<?xml version="1.0" encoding="utf-8" standalone="no"?>
<!DOCTYPE svg PUBLIC "-//W3C//DTD SVG 1.1//EN"
  "http://www.w3.org/Graphics/SVG/1.1/DTD/svg11.dtd">
<svg xmlns:xlink="http://www.w3.org/1999/xlink" width="813.6pt" height="273.277029pt" viewBox="0 0 813.6 273.277029" xmlns="http://www.w3.org/2000/svg" version="1.1">
 <metadata>
  <rdf:RDF xmlns:dc="http://purl.org/dc/elements/1.1/" xmlns:cc="http://creativecommons.org/ns#" xmlns:rdf="http://www.w3.org/1999/02/22-rdf-syntax-ns#">
   <cc:Work>
    <dc:type rdf:resource="http://purl.org/dc/dcmitype/StillImage"/>
    <dc:date>2026-06-12T09:56:29.395583</dc:date>
    <dc:format>image/svg+xml</dc:format>
    <dc:creator>
     <cc:Agent>
      <dc:title>Matplotlib v3.10.9, https://matplotlib.org/</dc:title>
     </cc:Agent>
    </dc:creator>
   </cc:Work>
  </rdf:RDF>
 </metadata>
 <defs>
  <style type="text/css">*{stroke-linejoin: round; stroke-linecap: butt}</style>
 </defs>
 <g id="figure_1">
  <g id="patch_1">
   <path d="M 0 273.277029 
L 813.6 273.277029 
L 813.6 0 
L 0 0 
z
" style="fill: #ffffff"/>
  </g>
  <g id="axes_1">
   <g id="patch_2">
    <path d="M 7.2 266.077029 
L 266.4 266.077029 
L 266.4 80.934171 
L 7.2 80.934171 
z
" style="fill: #ffffff"/>
   </g>
   <g id="line2d_1">
    <path d="M 7.2 229.048457 
L 266.4 229.048457 
" clip-path="url(#pcbe8b08f5f)" style="fill: none; stroke: #e3e8ee; stroke-width: 0.8; stroke-linecap: square"/>
   </g>
   <g id="line2d_2">
    <path d="M 56.571429 266.077029 
L 56.571429 80.934171 
" clip-path="url(#pcbe8b08f5f)" style="fill: none; stroke: #e3e8ee; stroke-width: 0.8; stroke-linecap: square"/>
   </g>
   <g id="patch_3">
    <path d="M 56.571429 229.048457 
L 118.285714 229.048457 
L 118.285714 167.334171 
L 56.571429 167.334171 
z
" clip-path="url(#pcbe8b08f5f)" style="fill: #1f6feb; opacity: 0.13"/>
   </g>
   <g id="line2d_3">
    <path d="M 41.142857 229.048457 
L 146.057143 229.048457 
" clip-path="url(#pcbe8b08f5f)" style="fill: none; stroke-dasharray: 5.4,3.6; stroke-dashoffset: 0; stroke: #1f6feb; stroke-opacity: 0.5; stroke-width: 0.9"/>
   </g>
   <g id="line2d_4">
    <path d="M 56.571429 244.477029 
L 56.571429 139.562743 
" clip-path="url(#pcbe8b08f5f)" style="fill: none; stroke-dasharray: 5.4,3.6; stroke-dashoffset: 0; stroke: #d1242f; stroke-opacity: 0.5; stroke-width: 0.9"/>
   </g>
   <g id="matplotlib.axis_1"/>
   <g id="matplotlib.axis_2"/>
   <g id="text_1">
    <!-- the standard / identity -->
    <g style="fill: #57606a" transform="translate(22.752 87.772765) scale(0.09 -0.09)">
     <defs>
      <path id="DejaVuSans-74" d="M 1172 4494 
L 1172 3500 
L 2356 3500 
L 2356 3053 
L 1172 3053 
L 1172 1153 
Q 1172 725 1289 603 
Q 1406 481 1766 481 
L 2356 481 
L 2356 0 
L 1766 0 
Q 1100 0 847 248 
Q 594 497 594 1153 
L 594 3053 
L 172 3053 
L 172 3500 
L 594 3500 
L 594 4494 
L 1172 4494 
z
" transform="scale(0.015625)"/>
      <path id="DejaVuSans-68" d="M 3513 2113 
L 3513 0 
L 2938 0 
L 2938 2094 
Q 2938 2591 2744 2837 
Q 2550 3084 2163 3084 
Q 1697 3084 1428 2787 
Q 1159 2491 1159 1978 
L 1159 0 
L 581 0 
L 581 4863 
L 1159 4863 
L 1159 2956 
Q 1366 3272 1645 3428 
Q 1925 3584 2291 3584 
Q 2894 3584 3203 3211 
Q 3513 2838 3513 2113 
z
" transform="scale(0.015625)"/>
      <path id="DejaVuSans-65" d="M 3597 1894 
L 3597 1613 
L 953 1613 
Q 991 1019 1311 708 
Q 1631 397 2203 397 
Q 2534 397 2845 478 
Q 3156 559 3463 722 
L 3463 178 
Q 3153 47 2828 -22 
Q 2503 -91 2169 -91 
Q 1331 -91 842 396 
Q 353 884 353 1716 
Q 353 2575 817 3079 
Q 1281 3584 2069 3584 
Q 2775 3584 3186 3129 
Q 3597 2675 3597 1894 
z
M 3022 2063 
Q 3016 2534 2758 2815 
Q 2500 3097 2075 3097 
Q 1594 3097 1305 2825 
Q 1016 2553 972 2059 
L 3022 2063 
z
" transform="scale(0.015625)"/>
      <path id="DejaVuSans-20" transform="scale(0.015625)"/>
      <path id="DejaVuSans-73" d="M 2834 3397 
L 2834 2853 
Q 2591 2978 2328 3040 
Q 2066 3103 1784 3103 
Q 1356 3103 1142 2972 
Q 928 2841 928 2578 
Q 928 2378 1081 2264 
Q 1234 2150 1697 2047 
L 1894 2003 
Q 2506 1872 2764 1633 
Q 3022 1394 3022 966 
Q 3022 478 2636 193 
Q 2250 -91 1575 -91 
Q 1294 -91 989 -36 
Q 684 19 347 128 
L 347 722 
Q 666 556 975 473 
Q 1284 391 1588 391 
Q 1994 391 2212 530 
Q 2431 669 2431 922 
Q 2431 1156 2273 1281 
Q 2116 1406 1581 1522 
L 1381 1569 
Q 847 1681 609 1914 
Q 372 2147 372 2553 
Q 372 3047 722 3315 
Q 1072 3584 1716 3584 
Q 2034 3584 2315 3537 
Q 2597 3491 2834 3397 
z
" transform="scale(0.015625)"/>
      <path id="DejaVuSans-61" d="M 2194 1759 
Q 1497 1759 1228 1600 
Q 959 1441 959 1056 
Q 959 750 1161 570 
Q 1363 391 1709 391 
Q 2188 391 2477 730 
Q 2766 1069 2766 1631 
L 2766 1759 
L 2194 1759 
z
M 3341 1997 
L 3341 0 
L 2766 0 
L 2766 531 
Q 2569 213 2275 61 
Q 1981 -91 1556 -91 
Q 1019 -91 701 211 
Q 384 513 384 1019 
Q 384 1609 779 1909 
Q 1175 2209 1959 2209 
L 2766 2209 
L 2766 2266 
Q 2766 2663 2505 2880 
Q 2244 3097 1772 3097 
Q 1472 3097 1187 3025 
Q 903 2953 641 2809 
L 641 3341 
Q 956 3463 1253 3523 
Q 1550 3584 1831 3584 
Q 2591 3584 2966 3190 
Q 3341 2797 3341 1997 
z
" transform="scale(0.015625)"/>
      <path id="DejaVuSans-6e" d="M 3513 2113 
L 3513 0 
L 2938 0 
L 2938 2094 
Q 2938 2591 2744 2837 
Q 2550 3084 2163 3084 
Q 1697 3084 1428 2787 
Q 1159 2491 1159 1978 
L 1159 0 
L 581 0 
L 581 3500 
L 1159 3500 
L 1159 2956 
Q 1366 3272 1645 3428 
Q 1925 3584 2291 3584 
Q 2894 3584 3203 3211 
Q 3513 2838 3513 2113 
z
" transform="scale(0.015625)"/>
      <path id="DejaVuSans-64" d="M 2906 2969 
L 2906 4863 
L 3481 4863 
L 3481 0 
L 2906 0 
L 2906 525 
Q 2725 213 2448 61 
Q 2172 -91 1784 -91 
Q 1150 -91 751 415 
Q 353 922 353 1747 
Q 353 2572 751 3078 
Q 1150 3584 1784 3584 
Q 2172 3584 2448 3432 
Q 2725 3281 2906 2969 
z
M 947 1747 
Q 947 1113 1208 752 
Q 1469 391 1925 391 
Q 2381 391 2643 752 
Q 2906 1113 2906 1747 
Q 2906 2381 2643 2742 
Q 2381 3103 1925 3103 
Q 1469 3103 1208 2742 
Q 947 2381 947 1747 
z
" transform="scale(0.015625)"/>
      <path id="DejaVuSans-72" d="M 2631 2963 
Q 2534 3019 2420 3045 
Q 2306 3072 2169 3072 
Q 1681 3072 1420 2755 
Q 1159 2438 1159 1844 
L 1159 0 
L 581 0 
L 581 3500 
L 1159 3500 
L 1159 2956 
Q 1341 3275 1631 3429 
Q 1922 3584 2338 3584 
Q 2397 3584 2469 3576 
Q 2541 3569 2628 3553 
L 2631 2963 
z
" transform="scale(0.015625)"/>
      <path id="DejaVuSans-2f" d="M 1625 4666 
L 2156 4666 
L 531 -594 
L 0 -594 
L 1625 4666 
z
" transform="scale(0.015625)"/>
      <path id="DejaVuSans-69" d="M 603 3500 
L 1178 3500 
L 1178 0 
L 603 0 
L 603 3500 
z
M 603 4863 
L 1178 4863 
L 1178 4134 
L 603 4134 
L 603 4863 
z
" transform="scale(0.015625)"/>
      <path id="DejaVuSans-79" d="M 2059 -325 
Q 1816 -950 1584 -1140 
Q 1353 -1331 966 -1331 
L 506 -1331 
L 506 -850 
L 844 -850 
Q 1081 -850 1212 -737 
Q 1344 -625 1503 -206 
L 1606 56 
L 191 3500 
L 800 3500 
L 1894 763 
L 2988 3500 
L 3597 3500 
L 2059 -325 
z
" transform="scale(0.015625)"/>
     </defs>
     <use xlink:href="#DejaVuSans-74"/>
     <use xlink:href="#DejaVuSans-68" transform="translate(39.208984 0)"/>
     <use xlink:href="#DejaVuSans-65" transform="translate(102.587891 0)"/>
     <use xlink:href="#DejaVuSans-20" transform="translate(164.111328 0)"/>
     <use xlink:href="#DejaVuSans-73" transform="translate(195.898438 0)"/>
     <use xlink:href="#DejaVuSans-74" transform="translate(247.998047 0)"/>
     <use xlink:href="#DejaVuSans-61" transform="translate(287.207031 0)"/>
     <use xlink:href="#DejaVuSans-6e" transform="translate(348.486328 0)"/>
     <use xlink:href="#DejaVuSans-64" transform="translate(411.865234 0)"/>
     <use xlink:href="#DejaVuSans-61" transform="translate(475.341797 0)"/>
     <use xlink:href="#DejaVuSans-72" transform="translate(536.621094 0)"/>
     <use xlink:href="#DejaVuSans-64" transform="translate(575.984375 0)"/>
     <use xlink:href="#DejaVuSans-20" transform="translate(639.460938 0)"/>
     <use xlink:href="#DejaVuSans-2f" transform="translate(671.248047 0)"/>
     <use xlink:href="#DejaVuSans-20" transform="translate(704.939453 0)"/>
     <use xlink:href="#DejaVuSans-69" transform="translate(736.726562 0)"/>
     <use xlink:href="#DejaVuSans-64" transform="translate(764.509766 0)"/>
     <use xlink:href="#DejaVuSans-65" transform="translate(827.986328 0)"/>
     <use xlink:href="#DejaVuSans-6e" transform="translate(889.509766 0)"/>
     <use xlink:href="#DejaVuSans-74" transform="translate(952.888672 0)"/>
     <use xlink:href="#DejaVuSans-69" transform="translate(992.097656 0)"/>
     <use xlink:href="#DejaVuSans-74" transform="translate(1019.880859 0)"/>
     <use xlink:href="#DejaVuSans-79" transform="translate(1059.089844 0)"/>
    </g>
    <!-- inner product -->
    <g style="fill: #57606a" transform="translate(22.752 97.850796) scale(0.09 -0.09)">
     <defs>
      <path id="DejaVuSans-70" d="M 1159 525 
L 1159 -1331 
L 581 -1331 
L 581 3500 
L 1159 3500 
L 1159 2969 
Q 1341 3281 1617 3432 
Q 1894 3584 2278 3584 
Q 2916 3584 3314 3078 
Q 3713 2572 3713 1747 
Q 3713 922 3314 415 
Q 2916 -91 2278 -91 
Q 1894 -91 1617 61 
Q 1341 213 1159 525 
z
M 3116 1747 
Q 3116 2381 2855 2742 
Q 2594 3103 2138 3103 
Q 1681 3103 1420 2742 
Q 1159 2381 1159 1747 
Q 1159 1113 1420 752 
Q 1681 391 2138 391 
Q 2594 391 2855 752 
Q 3116 1113 3116 1747 
z
" transform="scale(0.015625)"/>
      <path id="DejaVuSans-6f" d="M 1959 3097 
Q 1497 3097 1228 2736 
Q 959 2375 959 1747 
Q 959 1119 1226 758 
Q 1494 397 1959 397 
Q 2419 397 2687 759 
Q 2956 1122 2956 1747 
Q 2956 2369 2687 2733 
Q 2419 3097 1959 3097 
z
M 1959 3584 
Q 2709 3584 3137 3096 
Q 3566 2609 3566 1747 
Q 3566 888 3137 398 
Q 2709 -91 1959 -91 
Q 1206 -91 779 398 
Q 353 888 353 1747 
Q 353 2609 779 3096 
Q 1206 3584 1959 3584 
z
" transform="scale(0.015625)"/>
      <path id="DejaVuSans-75" d="M 544 1381 
L 544 3500 
L 1119 3500 
L 1119 1403 
Q 1119 906 1312 657 
Q 1506 409 1894 409 
Q 2359 409 2629 706 
Q 2900 1003 2900 1516 
L 2900 3500 
L 3475 3500 
L 3475 0 
L 2900 0 
L 2900 538 
Q 2691 219 2414 64 
Q 2138 -91 1772 -91 
Q 1169 -91 856 284 
Q 544 659 544 1381 
z
M 1991 3584 
L 1991 3584 
z
" transform="scale(0.015625)"/>
      <path id="DejaVuSans-63" d="M 3122 3366 
L 3122 2828 
Q 2878 2963 2633 3030 
Q 2388 3097 2138 3097 
Q 1578 3097 1268 2742 
Q 959 2388 959 1747 
Q 959 1106 1268 751 
Q 1578 397 2138 397 
Q 2388 397 2633 464 
Q 2878 531 3122 666 
L 3122 134 
Q 2881 22 2623 -34 
Q 2366 -91 2075 -91 
Q 1284 -91 818 406 
Q 353 903 353 1747 
Q 353 2603 823 3093 
Q 1294 3584 2113 3584 
Q 2378 3584 2631 3529 
Q 2884 3475 3122 3366 
z
" transform="scale(0.015625)"/>
     </defs>
     <use xlink:href="#DejaVuSans-69"/>
     <use xlink:href="#DejaVuSans-6e" transform="translate(27.783203 0)"/>
     <use xlink:href="#DejaVuSans-6e" transform="translate(91.162109 0)"/>
     <use xlink:href="#DejaVuSans-65" transform="translate(154.541016 0)"/>
     <use xlink:href="#DejaVuSans-72" transform="translate(216.064453 0)"/>
     <use xlink:href="#DejaVuSans-20" transform="translate(257.177734 0)"/>
     <use xlink:href="#DejaVuSans-70" transform="translate(288.964844 0)"/>
     <use xlink:href="#DejaVuSans-72" transform="translate(352.441406 0)"/>
     <use xlink:href="#DejaVuSans-6f" transform="translate(391.304688 0)"/>
     <use xlink:href="#DejaVuSans-64" transform="translate(452.486328 0)"/>
     <use xlink:href="#DejaVuSans-75" transform="translate(515.962891 0)"/>
     <use xlink:href="#DejaVuSans-63" transform="translate(579.341797 0)"/>
     <use xlink:href="#DejaVuSans-74" transform="translate(634.322266 0)"/>
    </g>
   </g>
   <g id="text_2">
    <!-- Euclidean (square) -->
    <g transform="translate(85.252969 62.482515) scale(0.11 -0.11)">
     <defs>
      <path id="DejaVuSans-45" d="M 628 4666 
L 3578 4666 
L 3578 4134 
L 1259 4134 
L 1259 2753 
L 3481 2753 
L 3481 2222 
L 1259 2222 
L 1259 531 
L 3634 531 
L 3634 0 
L 628 0 
L 628 4666 
z
" transform="scale(0.015625)"/>
      <path id="DejaVuSans-6c" d="M 603 4863 
L 1178 4863 
L 1178 0 
L 603 0 
L 603 4863 
z
" transform="scale(0.015625)"/>
      <path id="DejaVuSans-28" d="M 1984 4856 
Q 1566 4138 1362 3434 
Q 1159 2731 1159 2009 
Q 1159 1288 1364 580 
Q 1569 -128 1984 -844 
L 1484 -844 
Q 1016 -109 783 600 
Q 550 1309 550 2009 
Q 550 2706 781 3412 
Q 1013 4119 1484 4856 
L 1984 4856 
z
" transform="scale(0.015625)"/>
      <path id="DejaVuSans-71" d="M 947 1747 
Q 947 1113 1208 752 
Q 1469 391 1925 391 
Q 2381 391 2643 752 
Q 2906 1113 2906 1747 
Q 2906 2381 2643 2742 
Q 2381 3103 1925 3103 
Q 1469 3103 1208 2742 
Q 947 2381 947 1747 
z
M 2906 525 
Q 2725 213 2448 61 
Q 2172 -91 1784 -91 
Q 1150 -91 751 415 
Q 353 922 353 1747 
Q 353 2572 751 3078 
Q 1150 3584 1784 3584 
Q 2172 3584 2448 3432 
Q 2725 3281 2906 2969 
L 2906 3500 
L 3481 3500 
L 3481 -1331 
L 2906 -1331 
L 2906 525 
z
" transform="scale(0.015625)"/>
      <path id="DejaVuSans-29" d="M 513 4856 
L 1013 4856 
Q 1481 4119 1714 3412 
Q 1947 2706 1947 2009 
Q 1947 1309 1714 600 
Q 1481 -109 1013 -844 
L 513 -844 
Q 928 -128 1133 580 
Q 1338 1288 1338 2009 
Q 1338 2731 1133 3434 
Q 928 4138 513 4856 
z
" transform="scale(0.015625)"/>
     </defs>
     <use xlink:href="#DejaVuSans-45"/>
     <use xlink:href="#DejaVuSans-75" transform="translate(63.183594 0)"/>
     <use xlink:href="#DejaVuSans-63" transform="translate(126.5625 0)"/>
     <use xlink:href="#DejaVuSans-6c" transform="translate(181.542969 0)"/>
     <use xlink:href="#DejaVuSans-69" transform="translate(209.326172 0)"/>
     <use xlink:href="#DejaVuSans-64" transform="translate(237.109375 0)"/>
     <use xlink:href="#DejaVuSans-65" transform="translate(300.585938 0)"/>
     <use xlink:href="#DejaVuSans-61" transform="translate(362.109375 0)"/>
     <use xlink:href="#DejaVuSans-6e" transform="translate(423.388672 0)"/>
     <use xlink:href="#DejaVuSans-20" transform="translate(486.767578 0)"/>
     <use xlink:href="#DejaVuSans-28" transform="translate(518.554688 0)"/>
     <use xlink:href="#DejaVuSans-73" transform="translate(557.568359 0)"/>
     <use xlink:href="#DejaVuSans-71" transform="translate(609.667969 0)"/>
     <use xlink:href="#DejaVuSans-75" transform="translate(673.144531 0)"/>
     <use xlink:href="#DejaVuSans-61" transform="translate(736.523438 0)"/>
     <use xlink:href="#DejaVuSans-72" transform="translate(797.802734 0)"/>
     <use xlink:href="#DejaVuSans-65" transform="translate(836.666016 0)"/>
     <use xlink:href="#DejaVuSans-29" transform="translate(898.189453 0)"/>
    </g>
    <!-- $\|e_1\|=\|e_2\|=1,\ \angle=90^\circ$ -->
    <g transform="translate(69.425 74.934171) scale(0.11 -0.11)">
     <defs>
      <path id="DejaVuSans-2016" d="M 1344 4891 
L 1344 -1509 
L 813 -1509 
L 813 4891 
L 1344 4891 
z
M 2376 4891 
L 2376 -1509 
L 1845 -1509 
L 1845 4891 
L 2376 4891 
z
" transform="scale(0.015625)"/>
      <path id="DejaVuSans-Oblique-65" d="M 3078 2063 
Q 3088 2113 3092 2166 
Q 3097 2219 3097 2272 
Q 3097 2653 2873 2875 
Q 2650 3097 2266 3097 
Q 1838 3097 1509 2826 
Q 1181 2556 1013 2059 
L 3078 2063 
z
M 3578 1613 
L 903 1613 
Q 884 1494 878 1425 
Q 872 1356 872 1306 
Q 872 872 1139 634 
Q 1406 397 1894 397 
Q 2269 397 2603 481 
Q 2938 566 3225 728 
L 3116 159 
Q 2806 34 2476 -28 
Q 2147 -91 1806 -91 
Q 1078 -91 686 257 
Q 294 606 294 1247 
Q 294 1794 489 2264 
Q 684 2734 1063 3103 
Q 1306 3334 1642 3459 
Q 1978 3584 2356 3584 
Q 2950 3584 3301 3228 
Q 3653 2872 3653 2272 
Q 3653 2128 3634 1964 
Q 3616 1800 3578 1613 
z
" transform="scale(0.015625)"/>
      <path id="DejaVuSans-31" d="M 794 531 
L 1825 531 
L 1825 4091 
L 703 3866 
L 703 4441 
L 1819 4666 
L 2450 4666 
L 2450 531 
L 3481 531 
L 3481 0 
L 794 0 
L 794 531 
z
" transform="scale(0.015625)"/>
      <path id="DejaVuSans-3d" d="M 678 2906 
L 4684 2906 
L 4684 2381 
L 678 2381 
L 678 2906 
z
M 678 1631 
L 4684 1631 
L 4684 1100 
L 678 1100 
L 678 1631 
z
" transform="scale(0.015625)"/>
      <path id="DejaVuSans-32" d="M 1228 531 
L 3431 531 
L 3431 0 
L 469 0 
L 469 531 
Q 828 903 1448 1529 
Q 2069 2156 2228 2338 
Q 2531 2678 2651 2914 
Q 2772 3150 2772 3378 
Q 2772 3750 2511 3984 
Q 2250 4219 1831 4219 
Q 1534 4219 1204 4116 
Q 875 4013 500 3803 
L 500 4441 
Q 881 4594 1212 4672 
Q 1544 4750 1819 4750 
Q 2544 4750 2975 4387 
Q 3406 4025 3406 3419 
Q 3406 3131 3298 2873 
Q 3191 2616 2906 2266 
Q 2828 2175 2409 1742 
Q 1991 1309 1228 531 
z
" transform="scale(0.015625)"/>
      <path id="DejaVuSans-2c" d="M 750 794 
L 1409 794 
L 1409 256 
L 897 -744 
L 494 -744 
L 750 256 
L 750 794 
z
" transform="scale(0.015625)"/>
      <path id="DejaVuSans-2220" d="M 5028 631 
L 5028 0 
L 547 0 
L 3525 4666 
L 4281 4666 
L 1716 631 
L 5028 631 
z
" transform="scale(0.015625)"/>
      <path id="DejaVuSans-39" d="M 703 97 
L 703 672 
Q 941 559 1184 500 
Q 1428 441 1663 441 
Q 2288 441 2617 861 
Q 2947 1281 2994 2138 
Q 2813 1869 2534 1725 
Q 2256 1581 1919 1581 
Q 1219 1581 811 2004 
Q 403 2428 403 3163 
Q 403 3881 828 4315 
Q 1253 4750 1959 4750 
Q 2769 4750 3195 4129 
Q 3622 3509 3622 2328 
Q 3622 1225 3098 567 
Q 2575 -91 1691 -91 
Q 1453 -91 1209 -44 
Q 966 3 703 97 
z
M 1959 2075 
Q 2384 2075 2632 2365 
Q 2881 2656 2881 3163 
Q 2881 3666 2632 3958 
Q 2384 4250 1959 4250 
Q 1534 4250 1286 3958 
Q 1038 3666 1038 3163 
Q 1038 2656 1286 2365 
Q 1534 2075 1959 2075 
z
" transform="scale(0.015625)"/>
      <path id="DejaVuSans-30" d="M 2034 4250 
Q 1547 4250 1301 3770 
Q 1056 3291 1056 2328 
Q 1056 1369 1301 889 
Q 1547 409 2034 409 
Q 2525 409 2770 889 
Q 3016 1369 3016 2328 
Q 3016 3291 2770 3770 
Q 2525 4250 2034 4250 
z
M 2034 4750 
Q 2819 4750 3233 4129 
Q 3647 3509 3647 2328 
Q 3647 1150 3233 529 
Q 2819 -91 2034 -91 
Q 1250 -91 836 529 
Q 422 1150 422 2328 
Q 422 3509 836 4129 
Q 1250 4750 2034 4750 
z
" transform="scale(0.015625)"/>
      <path id="DejaVuSans-2218" d="M 2000 2619 
Q 1750 2619 1578 2445 
Q 1406 2272 1406 2022 
Q 1406 1775 1578 1605 
Q 1750 1435 2000 1435 
Q 2250 1435 2422 1605 
Q 2594 1775 2594 2022 
Q 2594 2269 2420 2444 
Q 2247 2619 2000 2619 
z
M 2000 3022 
Q 2200 3022 2384 2945 
Q 2569 2869 2703 2725 
Q 2847 2585 2919 2406 
Q 2991 2228 2991 2022 
Q 2991 1610 2702 1324 
Q 2413 1038 1994 1038 
Q 1572 1038 1290 1319 
Q 1009 1600 1009 2022 
Q 1009 2441 1296 2731 
Q 1584 3022 2000 3022 
z
" transform="scale(0.015625)"/>
     </defs>
     <use xlink:href="#DejaVuSans-2016" transform="translate(0 0.578125)"/>
     <use xlink:href="#DejaVuSans-Oblique-65" transform="translate(50 0.578125)"/>
     <use xlink:href="#DejaVuSans-31" transform="translate(111.523438 -15.828125) scale(0.7)"/>
     <use xlink:href="#DejaVuSans-2016" transform="translate(158.793945 0.578125)"/>
     <use xlink:href="#DejaVuSans-3d" transform="translate(228.276367 0.578125)"/>
     <use xlink:href="#DejaVuSans-2016" transform="translate(331.547852 0.578125)"/>
     <use xlink:href="#DejaVuSans-Oblique-65" transform="translate(381.547852 0.578125)"/>
     <use xlink:href="#DejaVuSans-32" transform="translate(443.071289 -15.828125) scale(0.7)"/>
     <use xlink:href="#DejaVuSans-2016" transform="translate(490.341797 0.578125)"/>
     <use xlink:href="#DejaVuSans-3d" transform="translate(559.824219 0.578125)"/>
     <use xlink:href="#DejaVuSans-31" transform="translate(663.095703 0.578125)"/>
     <use xlink:href="#DejaVuSans-2c" transform="translate(726.71875 0.578125)"/>
     <use xlink:href="#DejaVuSans-2220" transform="translate(810.45866 0.578125)"/>
     <use xlink:href="#DejaVuSans-3d" transform="translate(919.589519 0.578125)"/>
     <use xlink:href="#DejaVuSans-39" transform="translate(1022.861003 0.578125)"/>
     <use xlink:href="#DejaVuSans-30" transform="translate(1086.48405 0.578125)"/>
     <use xlink:href="#DejaVuSans-2218" transform="translate(1164.701824 38.859375) scale(0.7)"/>
    </g>
   </g>
   <g id="line2d_5">
    <path d="M 66.445714 229.048457 
L 66.445714 219.174171 
L 56.571429 219.174171 
" clip-path="url(#pcbe8b08f5f)" style="fill: none; stroke: #57606a; stroke-linecap: square"/>
   </g>
   <g id="patch_4">
    <path d="M 56.571429 229.048457 
Q 87.428571 229.048457 115.714236 229.048457 
" clip-path="url(#pcbe8b08f5f)" style="fill: none; stroke: #1f6feb; stroke-width: 2.3; stroke-linecap: round"/>
    <path d="M 109.714236 226.048457 
L 115.714236 229.048457 
L 109.714236 232.048457 
z
" clip-path="url(#pcbe8b08f5f)" style="fill: #1f6feb; stroke: #1f6feb; stroke-width: 2.3; stroke-linecap: round"/>
   </g>
   <g id="patch_5">
    <path d="M 56.571429 229.048457 
Q 56.571429 198.191314 56.571429 169.90565 
" clip-path="url(#pcbe8b08f5f)" style="fill: none; stroke: #d1242f; stroke-width: 2.3; stroke-linecap: round"/>
    <path d="M 53.571429 175.90565 
L 56.571429 169.90565 
L 59.571429 175.90565 
z
" clip-path="url(#pcbe8b08f5f)" style="fill: #d1242f; stroke: #d1242f; stroke-width: 2.3; stroke-linecap: round"/>
   </g>
   <g id="text_3">
    <!-- $e_1=(1,0)$ -->
    <g style="fill: #1f6feb" transform="translate(124.457143 222.877029) scale(0.105 -0.105)">
     <use xlink:href="#DejaVuSans-Oblique-65" transform="translate(0 0.125)"/>
     <use xlink:href="#DejaVuSans-31" transform="translate(61.523438 -16.28125) scale(0.7)"/>
     <use xlink:href="#DejaVuSans-3d" transform="translate(128.276367 0.125)"/>
     <use xlink:href="#DejaVuSans-28" transform="translate(231.547852 0.125)"/>
     <use xlink:href="#DejaVuSans-31" transform="translate(270.561523 0.125)"/>
     <use xlink:href="#DejaVuSans-2c" transform="translate(334.18457 0.125)"/>
     <use xlink:href="#DejaVuSans-30" transform="translate(385.454102 0.125)"/>
     <use xlink:href="#DejaVuSans-29" transform="translate(449.077148 0.125)"/>
    </g>
   </g>
   <g id="text_4">
    <!-- $e_2=(0,1)$ -->
    <g style="fill: #d1242f" transform="translate(62.742857 161.162743) scale(0.105 -0.105)">
     <use xlink:href="#DejaVuSans-Oblique-65" transform="translate(0 0.125)"/>
     <use xlink:href="#DejaVuSans-32" transform="translate(61.523438 -16.28125) scale(0.7)"/>
     <use xlink:href="#DejaVuSans-3d" transform="translate(128.276367 0.125)"/>
     <use xlink:href="#DejaVuSans-28" transform="translate(231.547852 0.125)"/>
     <use xlink:href="#DejaVuSans-30" transform="translate(270.561523 0.125)"/>
     <use xlink:href="#DejaVuSans-2c" transform="translate(334.18457 0.125)"/>
     <use xlink:href="#DejaVuSans-31" transform="translate(385.454102 0.125)"/>
     <use xlink:href="#DejaVuSans-29" transform="translate(449.077148 0.125)"/>
    </g>
   </g>
   <g id="PathCollection_1">
    <defs>
     <path id="m0c24a931bc" d="M 0 1.870829 
C 0.49615 1.870829 0.972045 1.673706 1.322876 1.322876 
C 1.673706 0.972045 1.870829 0.49615 1.870829 0 
C 1.870829 -0.49615 1.673706 -0.972045 1.322876 -1.322876 
C 0.972045 -1.673706 0.49615 -1.870829 0 -1.870829 
C -0.49615 -1.870829 -0.972045 -1.673706 -1.322876 -1.322876 
C -1.673706 -0.972045 -1.870829 -0.49615 -1.870829 0 
C -1.870829 0.49615 -1.673706 0.972045 -1.322876 1.322876 
C -0.972045 1.673706 -0.49615 1.870829 0 1.870829 
z
" style="stroke: #24292f"/>
    </defs>
    <g clip-path="url(#pcbe8b08f5f)">
     <use xlink:href="#m0c24a931bc" x="56.571429" y="229.048457" style="fill: #24292f; stroke: #24292f"/>
    </g>
   </g>
  </g>
  <g id="axes_2">
   <g id="patch_6">
    <path d="M 277.2 266.077029 
L 536.4 266.077029 
L 536.4 80.934171 
L 277.2 80.934171 
z
" style="fill: #ffffff"/>
   </g>
   <g id="line2d_6">
    <path d="M 277.2 229.048457 
L 536.4 229.048457 
" clip-path="url(#pfe47ddd8f1)" style="fill: none; stroke: #e3e8ee; stroke-width: 0.8; stroke-linecap: square"/>
   </g>
   <g id="line2d_7">
    <path d="M 326.571429 266.077029 
L 326.571429 80.934171 
" clip-path="url(#pfe47ddd8f1)" style="fill: none; stroke: #e3e8ee; stroke-width: 0.8; stroke-linecap: square"/>
   </g>
   <g id="patch_7">
    <path d="M 326.571429 229.048457 
L 388.285714 229.048457 
L 431.924304 185.409867 
L 370.210018 185.409867 
z
" clip-path="url(#pfe47ddd8f1)" style="fill: #1f6feb; opacity: 0.13"/>
   </g>
   <g id="line2d_8">
    <path d="M 311.142857 229.048457 
L 416.057143 229.048457 
" clip-path="url(#pfe47ddd8f1)" style="fill: none; stroke-dasharray: 5.4,3.6; stroke-dashoffset: 0; stroke: #1f6feb; stroke-opacity: 0.5; stroke-width: 0.9"/>
   </g>
   <g id="line2d_9">
    <path d="M 315.661781 239.958105 
L 389.847384 165.772502 
" clip-path="url(#pfe47ddd8f1)" style="fill: none; stroke-dasharray: 5.4,3.6; stroke-dashoffset: 0; stroke: #d1242f; stroke-opacity: 0.5; stroke-width: 0.9"/>
   </g>
   <g id="matplotlib.axis_3"/>
   <g id="matplotlib.axis_4"/>
   <g id="text_5">
    <!-- same lengths, -->
    <g style="fill: #57606a" transform="translate(292.752 87.772765) scale(0.09 -0.09)">
     <defs>
      <path id="DejaVuSans-6d" d="M 3328 2828 
Q 3544 3216 3844 3400 
Q 4144 3584 4550 3584 
Q 5097 3584 5394 3201 
Q 5691 2819 5691 2113 
L 5691 0 
L 5113 0 
L 5113 2094 
Q 5113 2597 4934 2840 
Q 4756 3084 4391 3084 
Q 3944 3084 3684 2787 
Q 3425 2491 3425 1978 
L 3425 0 
L 2847 0 
L 2847 2094 
Q 2847 2600 2669 2842 
Q 2491 3084 2119 3084 
Q 1678 3084 1418 2786 
Q 1159 2488 1159 1978 
L 1159 0 
L 581 0 
L 581 3500 
L 1159 3500 
L 1159 2956 
Q 1356 3278 1631 3431 
Q 1906 3584 2284 3584 
Q 2666 3584 2933 3390 
Q 3200 3197 3328 2828 
z
" transform="scale(0.015625)"/>
      <path id="DejaVuSans-67" d="M 2906 1791 
Q 2906 2416 2648 2759 
Q 2391 3103 1925 3103 
Q 1463 3103 1205 2759 
Q 947 2416 947 1791 
Q 947 1169 1205 825 
Q 1463 481 1925 481 
Q 2391 481 2648 825 
Q 2906 1169 2906 1791 
z
M 3481 434 
Q 3481 -459 3084 -895 
Q 2688 -1331 1869 -1331 
Q 1566 -1331 1297 -1286 
Q 1028 -1241 775 -1147 
L 775 -588 
Q 1028 -725 1275 -790 
Q 1522 -856 1778 -856 
Q 2344 -856 2625 -561 
Q 2906 -266 2906 331 
L 2906 616 
Q 2728 306 2450 153 
Q 2172 0 1784 0 
Q 1141 0 747 490 
Q 353 981 353 1791 
Q 353 2603 747 3093 
Q 1141 3584 1784 3584 
Q 2172 3584 2450 3431 
Q 2728 3278 2906 2969 
L 2906 3500 
L 3481 3500 
L 3481 434 
z
" transform="scale(0.015625)"/>
     </defs>
     <use xlink:href="#DejaVuSans-73"/>
     <use xlink:href="#DejaVuSans-61" transform="translate(52.099609 0)"/>
     <use xlink:href="#DejaVuSans-6d" transform="translate(113.378906 0)"/>
     <use xlink:href="#DejaVuSans-65" transform="translate(210.791016 0)"/>
     <use xlink:href="#DejaVuSans-20" transform="translate(272.314453 0)"/>
     <use xlink:href="#DejaVuSans-6c" transform="translate(304.101562 0)"/>
     <use xlink:href="#DejaVuSans-65" transform="translate(331.884766 0)"/>
     <use xlink:href="#DejaVuSans-6e" transform="translate(393.408203 0)"/>
     <use xlink:href="#DejaVuSans-67" transform="translate(456.787109 0)"/>
     <use xlink:href="#DejaVuSans-74" transform="translate(520.263672 0)"/>
     <use xlink:href="#DejaVuSans-68" transform="translate(559.472656 0)"/>
     <use xlink:href="#DejaVuSans-73" transform="translate(622.851562 0)"/>
     <use xlink:href="#DejaVuSans-2c" transform="translate(674.951172 0)"/>
    </g>
    <!-- angle changed -->
    <g style="fill: #57606a" transform="translate(292.752 97.850796) scale(0.09 -0.09)">
     <use xlink:href="#DejaVuSans-61"/>
     <use xlink:href="#DejaVuSans-6e" transform="translate(61.279297 0)"/>
     <use xlink:href="#DejaVuSans-67" transform="translate(124.658203 0)"/>
     <use xlink:href="#DejaVuSans-6c" transform="translate(188.134766 0)"/>
     <use xlink:href="#DejaVuSans-65" transform="translate(215.917969 0)"/>
     <use xlink:href="#DejaVuSans-20" transform="translate(277.441406 0)"/>
     <use xlink:href="#DejaVuSans-63" transform="translate(309.228516 0)"/>
     <use xlink:href="#DejaVuSans-68" transform="translate(364.208984 0)"/>
     <use xlink:href="#DejaVuSans-61" transform="translate(427.587891 0)"/>
     <use xlink:href="#DejaVuSans-6e" transform="translate(488.867188 0)"/>
     <use xlink:href="#DejaVuSans-67" transform="translate(552.246094 0)"/>
     <use xlink:href="#DejaVuSans-65" transform="translate(615.722656 0)"/>
     <use xlink:href="#DejaVuSans-64" transform="translate(677.246094 0)"/>
    </g>
   </g>
   <g id="text_6">
    <!-- non-Euclidean (skew) -->
    <g transform="translate(347.933672 62.482515) scale(0.11 -0.11)">
     <defs>
      <path id="DejaVuSans-2d" d="M 313 2009 
L 1997 2009 
L 1997 1497 
L 313 1497 
L 313 2009 
z
" transform="scale(0.015625)"/>
      <path id="DejaVuSans-6b" d="M 581 4863 
L 1159 4863 
L 1159 1991 
L 2875 3500 
L 3609 3500 
L 1753 1863 
L 3688 0 
L 2938 0 
L 1159 1709 
L 1159 0 
L 581 0 
L 581 4863 
z
" transform="scale(0.015625)"/>
      <path id="DejaVuSans-77" d="M 269 3500 
L 844 3500 
L 1563 769 
L 2278 3500 
L 2956 3500 
L 3675 769 
L 4391 3500 
L 4966 3500 
L 4050 0 
L 3372 0 
L 2619 2869 
L 1863 0 
L 1184 0 
L 269 3500 
z
" transform="scale(0.015625)"/>
     </defs>
     <use xlink:href="#DejaVuSans-6e"/>
     <use xlink:href="#DejaVuSans-6f" transform="translate(63.378906 0)"/>
     <use xlink:href="#DejaVuSans-6e" transform="translate(124.560547 0)"/>
     <use xlink:href="#DejaVuSans-2d" transform="translate(187.939453 0)"/>
     <use xlink:href="#DejaVuSans-45" transform="translate(224.023438 0)"/>
     <use xlink:href="#DejaVuSans-75" transform="translate(287.207031 0)"/>
     <use xlink:href="#DejaVuSans-63" transform="translate(350.585938 0)"/>
     <use xlink:href="#DejaVuSans-6c" transform="translate(405.566406 0)"/>
     <use xlink:href="#DejaVuSans-69" transform="translate(433.349609 0)"/>
     <use xlink:href="#DejaVuSans-64" transform="translate(461.132812 0)"/>
     <use xlink:href="#DejaVuSans-65" transform="translate(524.609375 0)"/>
     <use xlink:href="#DejaVuSans-61" transform="translate(586.132812 0)"/>
     <use xlink:href="#DejaVuSans-6e" transform="translate(647.412109 0)"/>
     <use xlink:href="#DejaVuSans-20" transform="translate(710.791016 0)"/>
     <use xlink:href="#DejaVuSans-28" transform="translate(742.578125 0)"/>
     <use xlink:href="#DejaVuSans-73" transform="translate(781.591797 0)"/>
     <use xlink:href="#DejaVuSans-6b" transform="translate(833.691406 0)"/>
     <use xlink:href="#DejaVuSans-65" transform="translate(887.976562 0)"/>
     <use xlink:href="#DejaVuSans-77" transform="translate(949.5 0)"/>
     <use xlink:href="#DejaVuSans-29" transform="translate(1031.287109 0)"/>
    </g>
    <!-- $\|e_1\|=\|e_2\|=1,\ \angle=45^\circ$ -->
    <g transform="translate(339.425 74.934171) scale(0.11 -0.11)">
     <defs>
      <path id="DejaVuSans-34" d="M 2419 4116 
L 825 1625 
L 2419 1625 
L 2419 4116 
z
M 2253 4666 
L 3047 4666 
L 3047 1625 
L 3713 1625 
L 3713 1100 
L 3047 1100 
L 3047 0 
L 2419 0 
L 2419 1100 
L 313 1100 
L 313 1709 
L 2253 4666 
z
" transform="scale(0.015625)"/>
      <path id="DejaVuSans-35" d="M 691 4666 
L 3169 4666 
L 3169 4134 
L 1269 4134 
L 1269 2991 
Q 1406 3038 1543 3061 
Q 1681 3084 1819 3084 
Q 2600 3084 3056 2656 
Q 3513 2228 3513 1497 
Q 3513 744 3044 326 
Q 2575 -91 1722 -91 
Q 1428 -91 1123 -41 
Q 819 9 494 109 
L 494 744 
Q 775 591 1075 516 
Q 1375 441 1709 441 
Q 2250 441 2565 725 
Q 2881 1009 2881 1497 
Q 2881 1984 2565 2268 
Q 2250 2553 1709 2553 
Q 1456 2553 1204 2497 
Q 953 2441 691 2322 
L 691 4666 
z
" transform="scale(0.015625)"/>
     </defs>
     <use xlink:href="#DejaVuSans-2016" transform="translate(0 0.578125)"/>
     <use xlink:href="#DejaVuSans-Oblique-65" transform="translate(50 0.578125)"/>
     <use xlink:href="#DejaVuSans-31" transform="translate(111.523438 -15.828125) scale(0.7)"/>
     <use xlink:href="#DejaVuSans-2016" transform="translate(158.793945 0.578125)"/>
     <use xlink:href="#DejaVuSans-3d" transform="translate(228.276367 0.578125)"/>
     <use xlink:href="#DejaVuSans-2016" transform="translate(331.547852 0.578125)"/>
     <use xlink:href="#DejaVuSans-Oblique-65" transform="translate(381.547852 0.578125)"/>
     <use xlink:href="#DejaVuSans-32" transform="translate(443.071289 -15.828125) scale(0.7)"/>
     <use xlink:href="#DejaVuSans-2016" transform="translate(490.341797 0.578125)"/>
     <use xlink:href="#DejaVuSans-3d" transform="translate(559.824219 0.578125)"/>
     <use xlink:href="#DejaVuSans-31" transform="translate(663.095703 0.578125)"/>
     <use xlink:href="#DejaVuSans-2c" transform="translate(726.71875 0.578125)"/>
     <use xlink:href="#DejaVuSans-2220" transform="translate(810.45866 0.578125)"/>
     <use xlink:href="#DejaVuSans-3d" transform="translate(919.589519 0.578125)"/>
     <use xlink:href="#DejaVuSans-34" transform="translate(1022.861003 0.578125)"/>
     <use xlink:href="#DejaVuSans-35" transform="translate(1086.48405 0.578125)"/>
     <use xlink:href="#DejaVuSans-2218" transform="translate(1164.701824 38.859375) scale(0.7)"/>
    </g>
   </g>
   <g id="patch_8">
    <path d="M 348.171429 229.048457 
C 348.171429 226.211971 347.612703 223.403066 346.527226 220.782495 
C 345.44175 218.161924 343.850634 215.780649 341.844935 213.774951 
" clip-path="url(#pfe47ddd8f1)" style="fill: none; stroke: #57606a; stroke-width: 1.2; stroke-linejoin: miter"/>
   </g>
   <g id="patch_9">
    <path d="M 326.571429 229.048457 
Q 357.428571 229.048457 385.714236 229.048457 
" clip-path="url(#pfe47ddd8f1)" style="fill: none; stroke: #1f6feb; stroke-width: 2.3; stroke-linecap: round"/>
    <path d="M 379.714236 226.048457 
L 385.714236 229.048457 
L 379.714236 232.048457 
z
" clip-path="url(#pfe47ddd8f1)" style="fill: #1f6feb; stroke: #1f6feb; stroke-width: 2.3; stroke-linecap: round"/>
   </g>
   <g id="patch_10">
    <path d="M 326.571429 229.048457 
Q 348.390724 207.229162 368.391709 187.228177 
" clip-path="url(#pfe47ddd8f1)" style="fill: none; stroke: #d1242f; stroke-width: 2.3; stroke-linecap: round"/>
    <path d="M 362.027748 189.349497 
L 368.391709 187.228177 
L 366.270388 193.592138 
z
" clip-path="url(#pfe47ddd8f1)" style="fill: #d1242f; stroke: #d1242f; stroke-width: 2.3; stroke-linecap: round"/>
   </g>
   <g id="text_7">
    <!-- $e_1=(1,0)$ -->
    <g style="fill: #1f6feb" transform="translate(394.457143 222.877029) scale(0.105 -0.105)">
     <use xlink:href="#DejaVuSans-Oblique-65" transform="translate(0 0.125)"/>
     <use xlink:href="#DejaVuSans-31" transform="translate(61.523438 -16.28125) scale(0.7)"/>
     <use xlink:href="#DejaVuSans-3d" transform="translate(128.276367 0.125)"/>
     <use xlink:href="#DejaVuSans-28" transform="translate(231.547852 0.125)"/>
     <use xlink:href="#DejaVuSans-31" transform="translate(270.561523 0.125)"/>
     <use xlink:href="#DejaVuSans-2c" transform="translate(334.18457 0.125)"/>
     <use xlink:href="#DejaVuSans-30" transform="translate(385.454102 0.125)"/>
     <use xlink:href="#DejaVuSans-29" transform="translate(449.077148 0.125)"/>
    </g>
   </g>
   <g id="text_8">
    <!-- $e_2=(0,1)$ -->
    <g style="fill: #d1242f" transform="translate(376.381447 179.238439) scale(0.105 -0.105)">
     <use xlink:href="#DejaVuSans-Oblique-65" transform="translate(0 0.125)"/>
     <use xlink:href="#DejaVuSans-32" transform="translate(61.523438 -16.28125) scale(0.7)"/>
     <use xlink:href="#DejaVuSans-3d" transform="translate(128.276367 0.125)"/>
     <use xlink:href="#DejaVuSans-28" transform="translate(231.547852 0.125)"/>
     <use xlink:href="#DejaVuSans-30" transform="translate(270.561523 0.125)"/>
     <use xlink:href="#DejaVuSans-2c" transform="translate(334.18457 0.125)"/>
     <use xlink:href="#DejaVuSans-31" transform="translate(385.454102 0.125)"/>
     <use xlink:href="#DejaVuSans-29" transform="translate(449.077148 0.125)"/>
    </g>
   </g>
   <g id="PathCollection_2">
    <g clip-path="url(#pfe47ddd8f1)">
     <use xlink:href="#m0c24a931bc" x="326.571429" y="229.048457" style="fill: #24292f; stroke: #24292f"/>
    </g>
   </g>
  </g>
  <g id="axes_3">
   <g id="patch_11">
    <path d="M 547.2 266.077029 
L 806.4 266.077029 
L 806.4 80.934171 
L 547.2 80.934171 
z
" style="fill: #ffffff"/>
   </g>
   <g id="line2d_10">
    <path d="M 547.2 229.048457 
L 806.4 229.048457 
" clip-path="url(#pef15a4105a)" style="fill: none; stroke: #e3e8ee; stroke-width: 0.8; stroke-linecap: square"/>
   </g>
   <g id="line2d_11">
    <path d="M 596.571429 266.077029 
L 596.571429 80.934171 
" clip-path="url(#pef15a4105a)" style="fill: none; stroke: #e3e8ee; stroke-width: 0.8; stroke-linecap: square"/>
   </g>
   <g id="patch_12">
    <path d="M 596.571429 229.048457 
L 720 229.048457 
L 766.285714 148.879248 
L 642.857143 148.879248 
z
" clip-path="url(#pef15a4105a)" style="fill: #1f6feb; opacity: 0.13"/>
   </g>
   <g id="line2d_12">
    <path d="M 565.714286 229.048457 
L 775.542857 229.048457 
" clip-path="url(#pef15a4105a)" style="fill: none; stroke-dasharray: 5.4,3.6; stroke-dashoffset: 0; stroke: #1f6feb; stroke-opacity: 0.5; stroke-width: 0.9"/>
   </g>
   <g id="line2d_13">
    <path d="M 585 249.090759 
L 663.685714 112.803104 
" clip-path="url(#pef15a4105a)" style="fill: none; stroke-dasharray: 5.4,3.6; stroke-dashoffset: 0; stroke: #d1242f; stroke-opacity: 0.5; stroke-width: 0.9"/>
   </g>
   <g id="matplotlib.axis_5"/>
   <g id="matplotlib.axis_6"/>
   <g id="text_9">
    <!-- lengths and -->
    <g style="fill: #57606a" transform="translate(562.752 87.772765) scale(0.09 -0.09)">
     <use xlink:href="#DejaVuSans-6c"/>
     <use xlink:href="#DejaVuSans-65" transform="translate(27.783203 0)"/>
     <use xlink:href="#DejaVuSans-6e" transform="translate(89.306641 0)"/>
     <use xlink:href="#DejaVuSans-67" transform="translate(152.685547 0)"/>
     <use xlink:href="#DejaVuSans-74" transform="translate(216.162109 0)"/>
     <use xlink:href="#DejaVuSans-68" transform="translate(255.371094 0)"/>
     <use xlink:href="#DejaVuSans-73" transform="translate(318.75 0)"/>
     <use xlink:href="#DejaVuSans-20" transform="translate(370.849609 0)"/>
     <use xlink:href="#DejaVuSans-61" transform="translate(402.636719 0)"/>
     <use xlink:href="#DejaVuSans-6e" transform="translate(463.916016 0)"/>
     <use xlink:href="#DejaVuSans-64" transform="translate(527.294922 0)"/>
    </g>
    <!-- angle changed -->
    <g style="fill: #57606a" transform="translate(562.752 97.850796) scale(0.09 -0.09)">
     <use xlink:href="#DejaVuSans-61"/>
     <use xlink:href="#DejaVuSans-6e" transform="translate(61.279297 0)"/>
     <use xlink:href="#DejaVuSans-67" transform="translate(124.658203 0)"/>
     <use xlink:href="#DejaVuSans-6c" transform="translate(188.134766 0)"/>
     <use xlink:href="#DejaVuSans-65" transform="translate(215.917969 0)"/>
     <use xlink:href="#DejaVuSans-20" transform="translate(277.441406 0)"/>
     <use xlink:href="#DejaVuSans-63" transform="translate(309.228516 0)"/>
     <use xlink:href="#DejaVuSans-68" transform="translate(364.208984 0)"/>
     <use xlink:href="#DejaVuSans-61" transform="translate(427.587891 0)"/>
     <use xlink:href="#DejaVuSans-6e" transform="translate(488.867188 0)"/>
     <use xlink:href="#DejaVuSans-67" transform="translate(552.246094 0)"/>
     <use xlink:href="#DejaVuSans-65" transform="translate(615.722656 0)"/>
     <use xlink:href="#DejaVuSans-64" transform="translate(677.246094 0)"/>
    </g>
   </g>
   <g id="text_10">
    <!-- non-Euclidean (rescaled) -->
    <g transform="translate(608.481406 62.482515) scale(0.11 -0.11)">
     <use xlink:href="#DejaVuSans-6e"/>
     <use xlink:href="#DejaVuSans-6f" transform="translate(63.378906 0)"/>
     <use xlink:href="#DejaVuSans-6e" transform="translate(124.560547 0)"/>
     <use xlink:href="#DejaVuSans-2d" transform="translate(187.939453 0)"/>
     <use xlink:href="#DejaVuSans-45" transform="translate(224.023438 0)"/>
     <use xlink:href="#DejaVuSans-75" transform="translate(287.207031 0)"/>
     <use xlink:href="#DejaVuSans-63" transform="translate(350.585938 0)"/>
     <use xlink:href="#DejaVuSans-6c" transform="translate(405.566406 0)"/>
     <use xlink:href="#DejaVuSans-69" transform="translate(433.349609 0)"/>
     <use xlink:href="#DejaVuSans-64" transform="translate(461.132812 0)"/>
     <use xlink:href="#DejaVuSans-65" transform="translate(524.609375 0)"/>
     <use xlink:href="#DejaVuSans-61" transform="translate(586.132812 0)"/>
     <use xlink:href="#DejaVuSans-6e" transform="translate(647.412109 0)"/>
     <use xlink:href="#DejaVuSans-20" transform="translate(710.791016 0)"/>
     <use xlink:href="#DejaVuSans-28" transform="translate(742.578125 0)"/>
     <use xlink:href="#DejaVuSans-72" transform="translate(781.591797 0)"/>
     <use xlink:href="#DejaVuSans-65" transform="translate(820.455078 0)"/>
     <use xlink:href="#DejaVuSans-73" transform="translate(881.978516 0)"/>
     <use xlink:href="#DejaVuSans-63" transform="translate(934.078125 0)"/>
     <use xlink:href="#DejaVuSans-61" transform="translate(989.058594 0)"/>
     <use xlink:href="#DejaVuSans-6c" transform="translate(1050.337891 0)"/>
     <use xlink:href="#DejaVuSans-65" transform="translate(1078.121094 0)"/>
     <use xlink:href="#DejaVuSans-64" transform="translate(1139.644531 0)"/>
     <use xlink:href="#DejaVuSans-29" transform="translate(1203.121094 0)"/>
    </g>
    <!-- $\|e_1\|=2,\ \|e_2\|=1.5,\ \angle=60^\circ$ -->
    <g transform="translate(596.06 74.934171) scale(0.11 -0.11)">
     <defs>
      <path id="DejaVuSans-2e" d="M 684 794 
L 1344 794 
L 1344 0 
L 684 0 
L 684 794 
z
" transform="scale(0.015625)"/>
      <path id="DejaVuSans-36" d="M 2113 2584 
Q 1688 2584 1439 2293 
Q 1191 2003 1191 1497 
Q 1191 994 1439 701 
Q 1688 409 2113 409 
Q 2538 409 2786 701 
Q 3034 994 3034 1497 
Q 3034 2003 2786 2293 
Q 2538 2584 2113 2584 
z
M 3366 4563 
L 3366 3988 
Q 3128 4100 2886 4159 
Q 2644 4219 2406 4219 
Q 1781 4219 1451 3797 
Q 1122 3375 1075 2522 
Q 1259 2794 1537 2939 
Q 1816 3084 2150 3084 
Q 2853 3084 3261 2657 
Q 3669 2231 3669 1497 
Q 3669 778 3244 343 
Q 2819 -91 2113 -91 
Q 1303 -91 875 529 
Q 447 1150 447 2328 
Q 447 3434 972 4092 
Q 1497 4750 2381 4750 
Q 2619 4750 2861 4703 
Q 3103 4656 3366 4563 
z
" transform="scale(0.015625)"/>
     </defs>
     <use xlink:href="#DejaVuSans-2016" transform="translate(0 0.578125)"/>
     <use xlink:href="#DejaVuSans-Oblique-65" transform="translate(50 0.578125)"/>
     <use xlink:href="#DejaVuSans-31" transform="translate(111.523438 -15.828125) scale(0.7)"/>
     <use xlink:href="#DejaVuSans-2016" transform="translate(158.793945 0.578125)"/>
     <use xlink:href="#DejaVuSans-3d" transform="translate(228.276367 0.578125)"/>
     <use xlink:href="#DejaVuSans-32" transform="translate(331.547852 0.578125)"/>
     <use xlink:href="#DejaVuSans-2c" transform="translate(395.170898 0.578125)"/>
     <use xlink:href="#DejaVuSans-2016" transform="translate(478.910808 0.578125)"/>
     <use xlink:href="#DejaVuSans-Oblique-65" transform="translate(528.910808 0.578125)"/>
     <use xlink:href="#DejaVuSans-32" transform="translate(590.434246 -15.828125) scale(0.7)"/>
     <use xlink:href="#DejaVuSans-2016" transform="translate(637.704753 0.578125)"/>
     <use xlink:href="#DejaVuSans-3d" transform="translate(707.187175 0.578125)"/>
     <use xlink:href="#DejaVuSans-31" transform="translate(810.45866 0.578125)"/>
     <use xlink:href="#DejaVuSans-2e" transform="translate(874.081707 0.578125)"/>
     <use xlink:href="#DejaVuSans-35" transform="translate(905.868816 0.578125)"/>
     <use xlink:href="#DejaVuSans-2c" transform="translate(969.491863 0.578125)"/>
     <use xlink:href="#DejaVuSans-2220" transform="translate(1053.231772 0.578125)"/>
     <use xlink:href="#DejaVuSans-3d" transform="translate(1162.362632 0.578125)"/>
     <use xlink:href="#DejaVuSans-36" transform="translate(1265.634116 0.578125)"/>
     <use xlink:href="#DejaVuSans-30" transform="translate(1329.257163 0.578125)"/>
     <use xlink:href="#DejaVuSans-2218" transform="translate(1407.474937 38.859375) scale(0.7)"/>
    </g>
   </g>
   <g id="patch_13">
    <path d="M 618.171429 229.048457 
C 618.171429 225.257147 617.173232 221.531828 615.277577 218.248457 
C 613.381922 214.965087 610.654799 212.237963 607.371429 210.342308 
" clip-path="url(#pef15a4105a)" style="fill: none; stroke: #57606a; stroke-width: 1.2; stroke-linejoin: miter"/>
   </g>
   <g id="patch_14">
    <path d="M 596.571429 229.048457 
Q 658.285714 229.048457 717.428522 229.048457 
" clip-path="url(#pef15a4105a)" style="fill: none; stroke: #1f6feb; stroke-width: 2.3; stroke-linecap: round"/>
    <path d="M 711.428522 226.048457 
L 717.428522 229.048457 
L 711.428522 232.048457 
z
" clip-path="url(#pef15a4105a)" style="fill: #1f6feb; stroke: #1f6feb; stroke-width: 2.3; stroke-linecap: round"/>
   </g>
   <g id="patch_15">
    <path d="M 596.571429 229.048457 
Q 619.714286 188.963853 641.571404 151.106214 
" clip-path="url(#pef15a4105a)" style="fill: none; stroke: #d1242f; stroke-width: 2.3; stroke-linecap: round"/>
    <path d="M 635.973328 154.802366 
L 641.571404 151.106214 
L 641.16948 157.802366 
z
" clip-path="url(#pef15a4105a)" style="fill: #d1242f; stroke: #d1242f; stroke-width: 2.3; stroke-linecap: round"/>
   </g>
   <g id="text_11">
    <!-- $e_1=(1,0)$ -->
    <g style="fill: #1f6feb" transform="translate(726.171429 222.877029) scale(0.105 -0.105)">
     <use xlink:href="#DejaVuSans-Oblique-65" transform="translate(0 0.125)"/>
     <use xlink:href="#DejaVuSans-31" transform="translate(61.523438 -16.28125) scale(0.7)"/>
     <use xlink:href="#DejaVuSans-3d" transform="translate(128.276367 0.125)"/>
     <use xlink:href="#DejaVuSans-28" transform="translate(231.547852 0.125)"/>
     <use xlink:href="#DejaVuSans-31" transform="translate(270.561523 0.125)"/>
     <use xlink:href="#DejaVuSans-2c" transform="translate(334.18457 0.125)"/>
     <use xlink:href="#DejaVuSans-30" transform="translate(385.454102 0.125)"/>
     <use xlink:href="#DejaVuSans-29" transform="translate(449.077148 0.125)"/>
    </g>
   </g>
   <g id="text_12">
    <!-- $e_2=(0,1)$ -->
    <g style="fill: #d1242f" transform="translate(649.028571 142.70782) scale(0.105 -0.105)">
     <use xlink:href="#DejaVuSans-Oblique-65" transform="translate(0 0.125)"/>
     <use xlink:href="#DejaVuSans-32" transform="translate(61.523438 -16.28125) scale(0.7)"/>
     <use xlink:href="#DejaVuSans-3d" transform="translate(128.276367 0.125)"/>
     <use xlink:href="#DejaVuSans-28" transform="translate(231.547852 0.125)"/>
     <use xlink:href="#DejaVuSans-30" transform="translate(270.561523 0.125)"/>
     <use xlink:href="#DejaVuSans-2c" transform="translate(334.18457 0.125)"/>
     <use xlink:href="#DejaVuSans-31" transform="translate(385.454102 0.125)"/>
     <use xlink:href="#DejaVuSans-29" transform="translate(449.077148 0.125)"/>
    </g>
   </g>
   <g id="PathCollection_3">
    <g clip-path="url(#pef15a4105a)">
     <use xlink:href="#m0c24a931bc" x="596.571429" y="229.048457" style="fill: #24292f; stroke: #24292f"/>
    </g>
   </g>
  </g>
  <g id="text_13">
   <!-- Same ordered pairs $e_1=(1,0),\ e_2=(0,1)$ — size &amp; angle are NOT in the definition of $\mathbb{R}^2$ -->
   <g transform="translate(131.8 18.575) scale(0.125 -0.125)">
    <defs>
     <path id="DejaVuSans-53" d="M 3425 4513 
L 3425 3897 
Q 3066 4069 2747 4153 
Q 2428 4238 2131 4238 
Q 1616 4238 1336 4038 
Q 1056 3838 1056 3469 
Q 1056 3159 1242 3001 
Q 1428 2844 1947 2747 
L 2328 2669 
Q 3034 2534 3370 2195 
Q 3706 1856 3706 1288 
Q 3706 609 3251 259 
Q 2797 -91 1919 -91 
Q 1588 -91 1214 -16 
Q 841 59 441 206 
L 441 856 
Q 825 641 1194 531 
Q 1563 422 1919 422 
Q 2459 422 2753 634 
Q 3047 847 3047 1241 
Q 3047 1584 2836 1778 
Q 2625 1972 2144 2069 
L 1759 2144 
Q 1053 2284 737 2584 
Q 422 2884 422 3419 
Q 422 4038 858 4394 
Q 1294 4750 2059 4750 
Q 2388 4750 2728 4690 
Q 3069 4631 3425 4513 
z
" transform="scale(0.015625)"/>
     <path id="DejaVuSansDisplay-2014" d="M 313 1978 
L 6088 1978 
L 6088 1528 
L 313 1528 
L 313 1978 
z
" transform="scale(0.015625)"/>
     <path id="DejaVuSans-7a" d="M 353 3500 
L 3084 3500 
L 3084 2975 
L 922 459 
L 3084 459 
L 3084 0 
L 275 0 
L 275 525 
L 2438 3041 
L 353 3041 
L 353 3500 
z
" transform="scale(0.015625)"/>
     <path id="DejaVuSans-26" d="M 1556 2509 
Q 1272 2256 1139 2004 
Q 1006 1753 1006 1478 
Q 1006 1022 1337 719 
Q 1669 416 2169 416 
Q 2466 416 2725 514 
Q 2984 613 3213 813 
L 1556 2509 
z
M 1997 2859 
L 3584 1234 
Q 3769 1513 3872 1830 
Q 3975 2147 3994 2503 
L 4575 2503 
Q 4538 2091 4375 1687 
Q 4213 1284 3922 891 
L 4794 0 
L 4006 0 
L 3559 459 
Q 3234 181 2878 45 
Q 2522 -91 2113 -91 
Q 1359 -91 881 339 
Q 403 769 403 1441 
Q 403 1841 612 2192 
Q 822 2544 1241 2853 
Q 1091 3050 1012 3245 
Q 934 3441 934 3628 
Q 934 4134 1281 4442 
Q 1628 4750 2203 4750 
Q 2463 4750 2720 4694 
Q 2978 4638 3244 4525 
L 3244 3956 
Q 2972 4103 2725 4179 
Q 2478 4256 2266 4256 
Q 1938 4256 1733 4082 
Q 1528 3909 1528 3634 
Q 1528 3475 1620 3314 
Q 1713 3153 1997 2859 
z
" transform="scale(0.015625)"/>
     <path id="DejaVuSans-4e" d="M 628 4666 
L 1478 4666 
L 3547 763 
L 3547 4666 
L 4159 4666 
L 4159 0 
L 3309 0 
L 1241 3903 
L 1241 0 
L 628 0 
L 628 4666 
z
" transform="scale(0.015625)"/>
     <path id="DejaVuSans-4f" d="M 2522 4238 
Q 1834 4238 1429 3725 
Q 1025 3213 1025 2328 
Q 1025 1447 1429 934 
Q 1834 422 2522 422 
Q 3209 422 3611 934 
Q 4013 1447 4013 2328 
Q 4013 3213 3611 3725 
Q 3209 4238 2522 4238 
z
M 2522 4750 
Q 3503 4750 4090 4092 
Q 4678 3434 4678 2328 
Q 4678 1225 4090 567 
Q 3503 -91 2522 -91 
Q 1538 -91 948 565 
Q 359 1222 359 2328 
Q 359 3434 948 4092 
Q 1538 4750 2522 4750 
z
" transform="scale(0.015625)"/>
     <path id="DejaVuSans-54" d="M -19 4666 
L 3928 4666 
L 3928 4134 
L 2272 4134 
L 2272 0 
L 1638 0 
L 1638 4134 
L -19 4134 
L -19 4666 
z
" transform="scale(0.015625)"/>
     <path id="DejaVuSans-66" d="M 2375 4863 
L 2375 4384 
L 1825 4384 
Q 1516 4384 1395 4259 
Q 1275 4134 1275 3809 
L 1275 3500 
L 2222 3500 
L 2222 3053 
L 1275 3053 
L 1275 0 
L 697 0 
L 697 3053 
L 147 3053 
L 147 3500 
L 697 3500 
L 697 3744 
Q 697 4328 969 4595 
Q 1241 4863 1831 4863 
L 2375 4863 
z
" transform="scale(0.015625)"/>
     <path id="STIXGeneral-Italic-211d" d="M 1229 4179 
L 3360 4179 
Q 3827 4179 4108 3894 
Q 4390 3610 4390 3142 
Q 4390 2554 4060 2186 
Q 3731 1818 3149 1715 
L 4026 0 
L 2925 0 
L 2125 1690 
L 1549 1690 
L 1094 0 
L 109 0 
L 1229 4179 
z
M 3866 3821 
L 3392 2022 
Q 3770 2144 3962 2438 
Q 4154 2733 4154 3136 
Q 4154 3584 3866 3821 
z
M 3142 1978 
L 3648 3872 
Q 3450 3942 3296 3942 
L 2150 3942 
L 1613 1926 
L 2630 1926 
Q 2957 1926 3142 1978 
z
M 3629 237 
L 2899 1696 
Q 2829 1683 2682 1683 
Q 2630 1683 2531 1686 
Q 2432 1690 2387 1690 
L 3072 237 
L 3629 237 
z
M 1907 3942 
L 1408 3942 
L 416 237 
L 915 237 
L 1907 3942 
z
" transform="scale(0.015625)"/>
    </defs>
    <use xlink:href="#DejaVuSans-53" transform="translate(0 0.765625)"/>
    <use xlink:href="#DejaVuSans-61" transform="translate(63.476562 0.765625)"/>
    <use xlink:href="#DejaVuSans-6d" transform="translate(124.755859 0.765625)"/>
    <use xlink:href="#DejaVuSans-65" transform="translate(222.167969 0.765625)"/>
    <use xlink:href="#DejaVuSans-20" transform="translate(283.691406 0.765625)"/>
    <use xlink:href="#DejaVuSans-6f" transform="translate(315.478516 0.765625)"/>
    <use xlink:href="#DejaVuSans-72" transform="translate(376.660156 0.765625)"/>
    <use xlink:href="#DejaVuSans-64" transform="translate(417.773438 0.765625)"/>
    <use xlink:href="#DejaVuSans-65" transform="translate(481.25 0.765625)"/>
    <use xlink:href="#DejaVuSans-72" transform="translate(542.773438 0.765625)"/>
    <use xlink:href="#DejaVuSans-65" transform="translate(583.886719 0.765625)"/>
    <use xlink:href="#DejaVuSans-64" transform="translate(645.410156 0.765625)"/>
    <use xlink:href="#DejaVuSans-20" transform="translate(708.886719 0.765625)"/>
    <use xlink:href="#DejaVuSans-70" transform="translate(740.673828 0.765625)"/>
    <use xlink:href="#DejaVuSans-61" transform="translate(804.150391 0.765625)"/>
    <use xlink:href="#DejaVuSans-69" transform="translate(865.429688 0.765625)"/>
    <use xlink:href="#DejaVuSans-72" transform="translate(893.212891 0.765625)"/>
    <use xlink:href="#DejaVuSans-73" transform="translate(934.326172 0.765625)"/>
    <use xlink:href="#DejaVuSans-20" transform="translate(986.425781 0.765625)"/>
    <use xlink:href="#DejaVuSans-Oblique-65" transform="translate(1018.212891 0.765625)"/>
    <use xlink:href="#DejaVuSans-31" transform="translate(1079.736328 -15.640625) scale(0.7)"/>
    <use xlink:href="#DejaVuSans-3d" transform="translate(1146.489258 0.765625)"/>
    <use xlink:href="#DejaVuSans-28" transform="translate(1249.760742 0.765625)"/>
    <use xlink:href="#DejaVuSans-31" transform="translate(1288.774414 0.765625)"/>
    <use xlink:href="#DejaVuSans-2c" transform="translate(1352.397461 0.765625)"/>
    <use xlink:href="#DejaVuSans-30" transform="translate(1403.666992 0.765625)"/>
    <use xlink:href="#DejaVuSans-29" transform="translate(1467.290039 0.765625)"/>
    <use xlink:href="#DejaVuSans-2c" transform="translate(1506.303711 0.765625)"/>
    <use xlink:href="#DejaVuSans-Oblique-65" transform="translate(1590.043621 0.765625)"/>
    <use xlink:href="#DejaVuSans-32" transform="translate(1651.567058 -15.640625) scale(0.7)"/>
    <use xlink:href="#DejaVuSans-3d" transform="translate(1718.319988 0.765625)"/>
    <use xlink:href="#DejaVuSans-28" transform="translate(1821.591472 0.765625)"/>
    <use xlink:href="#DejaVuSans-30" transform="translate(1860.605144 0.765625)"/>
    <use xlink:href="#DejaVuSans-2c" transform="translate(1924.228191 0.765625)"/>
    <use xlink:href="#DejaVuSans-31" transform="translate(1975.497722 0.765625)"/>
    <use xlink:href="#DejaVuSans-29" transform="translate(2039.120769 0.765625)"/>
    <use xlink:href="#DejaVuSans-20" transform="translate(2078.134441 0.765625)"/>
    <use xlink:href="#DejaVuSansDisplay-2014" transform="translate(2109.92155 0.765625)"/>
    <use xlink:href="#DejaVuSans-20" transform="translate(2209.92155 0.765625)"/>
    <use xlink:href="#DejaVuSans-73" transform="translate(2241.70866 0.765625)"/>
    <use xlink:href="#DejaVuSans-69" transform="translate(2293.808269 0.765625)"/>
    <use xlink:href="#DejaVuSans-7a" transform="translate(2321.591472 0.765625)"/>
    <use xlink:href="#DejaVuSans-65" transform="translate(2374.081707 0.765625)"/>
    <use xlink:href="#DejaVuSans-20" transform="translate(2435.605144 0.765625)"/>
    <use xlink:href="#DejaVuSans-26" transform="translate(2467.392253 0.765625)"/>
    <use xlink:href="#DejaVuSans-20" transform="translate(2545.370769 0.765625)"/>
    <use xlink:href="#DejaVuSans-61" transform="translate(2577.157878 0.765625)"/>
    <use xlink:href="#DejaVuSans-6e" transform="translate(2638.437175 0.765625)"/>
    <use xlink:href="#DejaVuSans-67" transform="translate(2701.816082 0.765625)"/>
    <use xlink:href="#DejaVuSans-6c" transform="translate(2765.292644 0.765625)"/>
    <use xlink:href="#DejaVuSans-65" transform="translate(2793.075847 0.765625)"/>
    <use xlink:href="#DejaVuSans-20" transform="translate(2854.599285 0.765625)"/>
    <use xlink:href="#DejaVuSans-61" transform="translate(2886.386394 0.765625)"/>
    <use xlink:href="#DejaVuSans-72" transform="translate(2947.665691 0.765625)"/>
    <use xlink:href="#DejaVuSans-65" transform="translate(2988.778972 0.765625)"/>
    <use xlink:href="#DejaVuSans-20" transform="translate(3050.30241 0.765625)"/>
    <use xlink:href="#DejaVuSans-4e" transform="translate(3082.089519 0.765625)"/>
    <use xlink:href="#DejaVuSans-4f" transform="translate(3156.894207 0.765625)"/>
    <use xlink:href="#DejaVuSans-54" transform="translate(3235.605144 0.765625)"/>
    <use xlink:href="#DejaVuSans-20" transform="translate(3296.689128 0.765625)"/>
    <use xlink:href="#DejaVuSans-69" transform="translate(3328.476238 0.765625)"/>
    <use xlink:href="#DejaVuSans-6e" transform="translate(3356.259441 0.765625)"/>
    <use xlink:href="#DejaVuSans-20" transform="translate(3419.638347 0.765625)"/>
    <use xlink:href="#DejaVuSans-74" transform="translate(3451.425457 0.765625)"/>
    <use xlink:href="#DejaVuSans-68" transform="translate(3490.634441 0.765625)"/>
    <use xlink:href="#DejaVuSans-65" transform="translate(3554.013347 0.765625)"/>
    <use xlink:href="#DejaVuSans-20" transform="translate(3615.536785 0.765625)"/>
    <use xlink:href="#DejaVuSans-64" transform="translate(3647.323894 0.765625)"/>
    <use xlink:href="#DejaVuSans-65" transform="translate(3710.800457 0.765625)"/>
    <use xlink:href="#DejaVuSans-66" transform="translate(3772.323894 0.765625)"/>
    <use xlink:href="#DejaVuSans-69" transform="translate(3807.528972 0.765625)"/>
    <use xlink:href="#DejaVuSans-6e" transform="translate(3835.312175 0.765625)"/>
    <use xlink:href="#DejaVuSans-69" transform="translate(3898.691082 0.765625)"/>
    <use xlink:href="#DejaVuSans-74" transform="translate(3926.474285 0.765625)"/>
    <use xlink:href="#DejaVuSans-69" transform="translate(3965.683269 0.765625)"/>
    <use xlink:href="#DejaVuSans-6f" transform="translate(3993.466472 0.765625)"/>
    <use xlink:href="#DejaVuSans-6e" transform="translate(4054.648113 0.765625)"/>
    <use xlink:href="#DejaVuSans-20" transform="translate(4118.027019 0.765625)"/>
    <use xlink:href="#DejaVuSans-6f" transform="translate(4149.814128 0.765625)"/>
    <use xlink:href="#DejaVuSans-66" transform="translate(4210.995769 0.765625)"/>
    <use xlink:href="#DejaVuSans-20" transform="translate(4246.200847 0.765625)"/>
    <use xlink:href="#STIXGeneral-Italic-211d" transform="translate(4277.987957 0.765625)"/>
    <use xlink:href="#DejaVuSans-32" transform="translate(4352.639397 39.046875) scale(0.7)"/>
   </g>
  </g>
 </g>
 <defs>
  <clipPath id="pcbe8b08f5f">
   <rect x="7.2" y="80.934171" width="259.2" height="185.142857"/>
  </clipPath>
  <clipPath id="pfe47ddd8f1">
   <rect x="277.2" y="80.934171" width="259.2" height="185.142857"/>
  </clipPath>
  <clipPath id="pef15a4105a">
   <rect x="547.2" y="80.934171" width="259.2" height="185.142857"/>
  </clipPath>
 </defs>
</svg>
