<?xml version="1.0" encoding="utf-8" standalone="no"?>
<!DOCTYPE svg PUBLIC "-//W3C//DTD SVG 1.1//EN"
  "http://www.w3.org/Graphics/SVG/1.1/DTD/svg11.dtd">
<svg xmlns:xlink="http://www.w3.org/1999/xlink" width="424.996629pt" height="375.423283pt" viewBox="0 0 424.996629 375.423283" xmlns="http://www.w3.org/2000/svg" version="1.1">
 <metadata>
  <rdf:RDF xmlns:dc="http://purl.org/dc/elements/1.1/" xmlns:cc="http://creativecommons.org/ns#" xmlns:rdf="http://www.w3.org/1999/02/22-rdf-syntax-ns#">
   <cc:Work>
    <dc:type rdf:resource="http://purl.org/dc/dcmitype/StillImage"/>
    <dc:date>2026-06-12T10:05:52.403263</dc:date>
    <dc:format>image/svg+xml</dc:format>
    <dc:creator>
     <cc:Agent>
      <dc:title>Matplotlib v3.10.9, https://matplotlib.org/</dc:title>
     </cc:Agent>
    </dc:creator>
   </cc:Work>
  </rdf:RDF>
 </metadata>
 <defs>
  <style type="text/css">*{stroke-linejoin: round; stroke-linecap: butt}</style>
 </defs>
 <g id="figure_1">
  <g id="patch_1">
   <path d="M -0 375.423283 
L 424.996629 375.423283 
L 424.996629 0 
L -0 0 
z
" style="fill: #ffffff"/>
  </g>
  <g id="axes_1">
   <g id="patch_2">
    <path d="M 8.277681 368.223283 
L 417.796629 368.223283 
L 417.796629 7.2 
L 8.277681 7.2 
z
" style="fill: #ffffff"/>
   </g>
   <g id="line2d_1">
    <path d="M 8.277681 179.62903 
L 417.796629 179.62903 
" clip-path="url(#p5435f874c8)" style="fill: none; stroke: #d0d7de; stroke-width: 0.8; stroke-linecap: square"/>
   </g>
   <g id="line2d_2">
    <path d="M 207.648748 368.223283 
L 207.648748 7.2 
" clip-path="url(#p5435f874c8)" style="fill: none; stroke: #d0d7de; stroke-width: 0.8; stroke-linecap: square"/>
   </g>
   <g id="line2d_3">
    <path d="M 279.941817 179.62903 
L 279.798447 175.078349 
L 279.368907 170.545718 
L 278.6549 166.049114 
L 277.659259 161.606373 
L 276.385931 157.235115 
L 274.839968 152.95268 
L 273.027502 148.776052 
L 270.955722 144.721798 
L 268.632844 140.805998 
L 266.068082 137.044183 
L 263.271609 133.451275 
L 260.254517 130.041523 
L 257.028772 126.828452 
L 253.607169 123.824807 
L 250.003279 121.0425 
L 246.231396 118.492568 
L 242.306482 116.185124 
L 238.244102 114.12932 
L 234.060372 112.333311 
L 229.771883 110.804219 
L 225.395647 109.54811 
L 220.949021 108.569967 
L 216.449641 107.873668 
L 211.915353 107.461975 
L 207.364143 107.336522 
L 202.814062 107.497806 
L 198.283156 107.945187 
L 193.789398 108.67689 
L 189.350611 109.690014 
L 184.9844 110.980541 
L 180.708084 112.543351 
L 176.538624 114.372245 
L 172.492558 116.459971 
L 168.585933 118.798247 
L 164.834244 121.377798 
L 161.252373 124.188394 
L 157.854525 127.218887 
L 154.654179 130.457256 
L 151.664027 133.890657 
L 148.895929 137.505473 
L 146.360866 141.287365 
L 144.068892 145.221333 
L 142.029097 149.291774 
L 140.249572 153.482543 
L 138.737375 157.777018 
L 137.498505 162.158165 
L 136.537874 166.608608 
L 135.859294 171.110694 
L 135.465455 175.646567 
L 135.35792 180.198236 
L 135.537115 184.747647 
L 136.00233 189.276756 
L 136.751719 193.767599 
L 137.78231 198.202363 
L 139.090016 202.563459 
L 140.669649 206.83359 
L 142.514944 210.995817 
L 144.618582 215.033634 
L 146.972219 218.931023 
L 149.56652 222.672527 
L 152.391196 226.243306 
L 155.435041 229.629197 
L 158.685985 232.81677 
L 162.131131 235.793382 
L 165.756816 238.547227 
L 169.548659 241.067382 
L 173.49162 243.343851 
L 177.570059 245.367606 
L 181.767801 247.130619 
L 186.068196 248.625897 
L 190.454187 249.84751 
L 194.908377 250.790612 
L 199.4131 251.451464 
L 203.950488 251.827442 
L 208.502545 251.917057 
L 213.051216 251.719953 
L 217.578458 251.236912 
L 222.066316 250.469849 
L 226.496989 249.421807 
L 230.852903 248.096943 
L 235.116781 246.500511 
L 239.271712 244.638845 
L 243.301215 242.519327 
L 247.189309 240.150364 
L 250.920571 237.541353 
L 254.480202 234.702642 
L 257.854083 231.645491 
L 261.028833 228.382024 
L 263.991859 224.925185 
L 266.731409 221.288687 
L 269.236616 217.486952 
L 271.497545 213.53506 
L 273.505228 209.448685 
L 275.251702 205.244035 
L 276.730038 200.937787 
L 277.934375 196.547021 
L 278.859935 192.089152 
L 279.503047 187.581862 
L 279.86116 183.043029 
L 279.941817 179.62903 
L 279.941817 179.62903 
" clip-path="url(#p5435f874c8)" style="fill: none; stroke-dasharray: 5,4; stroke-dashoffset: 0; stroke: #c7d2e0"/>
   </g>
   <g id="line2d_4">
    <path d="M 352.234885 179.62903 
L 352.073571 172.801033 
L 351.589989 165.988272 
L 350.785217 159.205949 
L 349.661052 152.469197 
L 348.220002 145.79305 
L 346.465283 139.192404 
L 344.40081 132.681988 
L 342.031189 126.27633 
L 339.361709 119.989722 
L 336.398325 113.836192 
L 333.147651 107.829472 
L 329.616939 101.982965 
L 325.814069 96.309717 
L 321.747526 90.822387 
L 317.426384 85.533219 
L 312.860285 80.454015 
L 308.059418 75.59611 
L 303.034496 70.970343 
L 297.79673 66.587036 
L 292.357809 62.45597 
L 286.72987 58.586363 
L 280.925469 54.986849 
L 274.957559 51.665461 
L 268.839457 48.62961 
L 262.584815 45.886069 
L 256.207588 43.440961 
L 249.722008 41.299742 
L 243.142546 39.46719 
L 236.483884 37.947394 
L 229.760879 36.743745 
L 222.988533 35.858929 
L 216.181958 35.29492 
L 209.356343 35.052977 
L 202.526917 35.13364 
L 195.708919 35.536728 
L 188.917565 36.261343 
L 182.168006 37.305867 
L 175.475306 38.667969 
L 168.854396 40.344611 
L 162.320053 42.332051 
L 155.886855 44.625854 
L 149.569158 47.220902 
L 143.38106 50.111405 
L 137.336367 53.290911 
L 131.44857 56.752328 
L 125.730804 60.487931 
L 120.19583 64.489383 
L 114.855997 68.747758 
L 109.723221 73.253552 
L 104.808956 77.996711 
L 100.124166 82.966652 
L 95.679305 88.152284 
L 91.484293 93.542037 
L 87.548488 99.123883 
L 83.880674 104.885368 
L 80.489035 110.813635 
L 77.381139 116.895456 
L 74.563921 123.117261 
L 72.043668 129.465165 
L 69.826002 135.925005 
L 67.915873 142.482365 
L 66.317542 149.122614 
L 65.034577 155.830934 
L 64.069839 162.592358 
L 63.425483 169.391797 
L 63.102945 176.214079 
L 63.102945 183.043982 
L 63.425483 189.866264 
L 64.069839 196.665703 
L 65.034577 203.427127 
L 66.317542 210.135447 
L 67.915873 216.775696 
L 69.826002 223.333056 
L 72.043668 229.792896 
L 74.563921 236.1408 
L 77.381139 242.362604 
L 80.489035 248.444426 
L 83.880674 254.372693 
L 87.548488 260.134178 
L 91.484293 265.716024 
L 95.679305 271.105777 
L 100.124166 276.291409 
L 104.808956 281.26135 
L 109.723221 286.004509 
L 114.855997 290.510303 
L 120.19583 294.768677 
L 125.730804 298.77013 
L 131.44857 302.505733 
L 137.336367 305.967149 
L 143.38106 309.146656 
L 149.569158 312.037159 
L 155.886855 314.632207 
L 162.320053 316.92601 
L 168.854396 318.91345 
L 175.475306 320.590092 
L 182.168006 321.952194 
L 188.917565 322.996718 
L 195.708919 323.721333 
L 202.526917 324.124421 
L 209.356343 324.205084 
L 216.181958 323.963141 
L 222.988533 323.399132 
L 229.760879 322.514316 
L 236.483884 321.310667 
L 243.142546 319.790871 
L 249.722008 317.958319 
L 256.207588 315.8171 
L 262.584815 313.371992 
L 268.839457 310.628451 
L 274.957559 307.5926 
L 280.925469 304.271212 
L 286.72987 300.671698 
L 292.357809 296.802091 
L 297.79673 292.671025 
L 303.034496 288.287718 
L 308.059418 283.661951 
L 312.860285 278.804046 
L 317.426384 273.724842 
L 321.747526 268.435674 
L 325.814069 262.948344 
L 329.616939 257.275096 
L 333.147651 251.428589 
L 336.398325 245.421869 
L 339.361709 239.268339 
L 342.031189 232.981731 
L 344.40081 226.576073 
L 346.465283 220.065657 
L 348.220002 213.465011 
L 349.661052 206.788863 
L 350.785217 200.052112 
L 351.589989 193.269789 
L 352.073571 186.457028 
L 352.234885 179.62903 
L 352.234885 179.62903 
" clip-path="url(#p5435f874c8)" style="fill: none; stroke-dasharray: 5,4; stroke-dashoffset: 0; stroke: #c7d2e0"/>
   </g>
   <g id="line2d_5">
    <path d="M 394.308649 179.62903 
L 394.216081 173.751212 
L 393.93847 167.879223 
L 393.476091 162.018887 
L 392.829403 156.176018 
L 391.999046 150.356411 
L 390.985845 144.565837 
L 389.790804 138.81004 
L 388.415109 133.094728 
L 386.860124 127.425571 
L 385.127392 121.80819 
L 383.218631 116.248158 
L 381.135733 110.75099 
L 378.880766 105.322137 
L 376.455966 99.966983 
L 373.863737 94.690841 
L 371.106651 89.498944 
L 368.187442 84.39644 
L 365.109006 79.388391 
L 361.874396 74.479764 
L 358.486819 69.675428 
L 354.949637 64.980146 
L 351.266357 60.398578 
L 347.440633 55.935265 
L 343.476258 51.594637 
L 339.377166 47.380996 
L 335.147421 43.298524 
L 330.791219 39.351268 
L 326.31288 35.543145 
L 321.716846 31.87793 
L 317.007676 28.35926 
L 312.19004 24.990624 
L 307.268717 21.775363 
L 302.248588 18.716666 
L 297.134631 15.817568 
L 291.93192 13.080943 
L 286.645614 10.509505 
L 281.280956 8.105806 
L 275.843267 5.872229 
L 270.337941 3.810989 
L 264.770438 1.924131 
L 259.14628 0.213527 
L 254.69081 -1 
M 160.589816 -1 
L 157.565455 -0.186382 
L 151.928003 1.479887 
L 146.345816 3.32285 
L 140.824431 5.340679 
L 135.369325 7.531373 
L 129.985908 9.892759 
L 124.679519 12.422495 
L 119.455422 15.118071 
L 114.318797 17.976814 
L 109.274741 20.99589 
L 104.328255 24.172302 
L 99.484245 27.502902 
L 94.747516 30.984385 
L 90.122767 34.613299 
L 85.614583 38.386044 
L 81.227437 42.298878 
L 76.965679 46.347921 
L 72.833537 50.529156 
L 68.835109 54.838436 
L 64.974361 59.271488 
L 61.255122 63.823914 
L 57.681081 68.4912 
L 54.255782 73.268715 
L 50.982624 78.151722 
L 47.864852 83.135377 
L 44.905558 88.214738 
L 42.107679 93.384766 
L 39.473988 98.640335 
L 37.007099 103.97623 
L 34.709457 109.38716 
L 32.583342 114.867759 
L 30.630863 120.412589 
L 28.853955 126.016153 
L 27.254382 131.672891 
L 25.833729 137.377194 
L 24.593407 143.123404 
L 23.534645 148.905821 
L 22.658493 154.71871 
L 21.96582 160.556306 
L 21.457313 166.412819 
L 21.133477 172.28244 
L 20.994633 178.159348 
L 21.040918 184.037714 
L 21.272287 189.911706 
L 21.68851 195.775501 
L 22.289174 201.62328 
L 23.073684 207.449245 
L 24.041261 213.247617 
L 25.190946 219.012645 
L 26.521598 224.738611 
L 28.031898 230.419836 
L 29.720348 236.050685 
L 31.585273 241.625574 
L 33.624823 247.138972 
L 35.836976 252.585411 
L 38.219537 257.95949 
L 40.770143 263.255879 
L 43.486265 268.469324 
L 46.365208 273.594654 
L 49.404118 278.626786 
L 52.599979 283.560729 
L 55.949623 288.391589 
L 59.449727 293.114575 
L 63.096819 297.725002 
L 66.887283 302.218298 
L 70.817358 306.590006 
L 74.883147 310.83579 
L 79.080617 314.95144 
L 83.405605 318.932872 
L 87.853822 322.776138 
L 92.420855 326.477426 
L 97.102174 330.033065 
L 101.893137 333.439529 
L 106.788992 336.693439 
L 111.784883 339.791567 
L 116.875855 342.730841 
L 122.056858 345.508345 
L 127.322754 348.121325 
L 132.66832 350.567189 
L 138.088253 352.843511 
L 143.57718 354.948033 
L 149.129654 356.878669 
L 154.740169 358.633502 
L 160.403161 360.210793 
L 166.113012 361.608978 
L 171.86406 362.826669 
L 177.650601 363.862659 
L 183.466894 364.71592 
L 189.307172 365.385606 
L 195.165641 365.871052 
L 201.036492 366.171778 
L 206.913901 366.287485 
L 212.792039 366.218058 
L 218.665075 365.963566 
L 224.527185 365.524262 
L 230.372555 364.90058 
L 236.195386 364.093141 
L 241.989904 363.102744 
L 247.750361 361.930372 
L 253.471045 360.577188 
L 259.14628 359.044534 
L 264.770438 357.333929 
L 270.337941 355.447072 
L 275.843267 353.385832 
L 281.280956 351.152255 
L 286.645614 348.748556 
L 291.93192 346.177118 
L 297.134631 343.440493 
L 302.248588 340.541395 
L 307.268717 337.482698 
L 312.19004 334.267437 
L 317.007676 330.898801 
L 321.716846 327.380131 
L 326.31288 323.714916 
L 330.791219 319.906793 
L 335.147421 315.959537 
L 339.377166 311.877065 
L 343.476258 307.663424 
L 347.440633 303.322796 
L 351.266357 298.859483 
L 354.949637 294.277915 
L 358.486819 289.582633 
L 361.874396 284.778297 
L 365.109006 279.86967 
L 368.187442 274.861621 
L 371.106651 269.759117 
L 373.863737 264.56722 
L 376.455966 259.291078 
L 378.880766 253.935924 
L 381.135733 248.507071 
L 383.218631 243.009902 
L 385.127392 237.449871 
L 386.860124 231.83249 
L 388.415109 226.163333 
L 389.790804 220.448021 
L 390.985845 214.692224 
L 391.999046 208.90165 
L 392.829403 203.082043 
L 393.476091 197.239174 
L 393.93847 191.378838 
L 394.216081 185.506849 
L 394.308649 179.62903 
L 394.308649 179.62903 
" clip-path="url(#p5435f874c8)" style="fill: none; stroke-dasharray: 5,4; stroke-dashoffset: 0; stroke: #c7d2e0"/>
   </g>
   <g id="matplotlib.axis_1"/>
   <g id="matplotlib.axis_2"/>
   <g id="line2d_6">
    <path d="M 315.416892 179.62903 
L 315.296656 174.539742 
L 314.936215 169.46181 
L 314.336373 164.406564 
L 313.49847 159.385286 
L 312.424375 154.40918 
L 311.116484 149.489349 
L 309.577717 144.636771 
L 307.811506 139.862275 
L 305.821792 135.176514 
L 303.613017 130.589944 
L 301.190107 126.112799 
L 298.55847 121.75507 
L 295.723978 117.526481 
L 292.692956 113.436466 
L 289.472167 109.494153 
L 286.068798 105.708339 
L 282.490443 102.08747 
L 278.745087 98.639627 
L 274.841087 95.372503 
L 270.787154 92.293388 
L 266.592336 89.409153 
L 262.265991 86.726234 
L 257.817774 84.250617 
L 253.25761 81.987827 
L 248.595674 79.942913 
L 243.842371 78.120437 
L 239.008305 76.524467 
L 234.104263 75.158563 
L 229.141189 74.025774 
L 224.130157 73.128627 
L 219.082349 72.469124 
L 214.009027 72.048736 
L 208.921514 71.868403 
L 203.83116 71.928525 
L 198.749325 72.228969 
L 193.687348 72.769065 
L 188.656524 73.547607 
L 183.66808 74.562859 
L 178.733146 75.812554 
L 173.862733 77.293904 
L 169.067711 79.003604 
L 164.358778 80.937839 
L 159.746441 83.092292 
L 155.240994 85.462156 
L 150.852488 88.042144 
L 146.590718 90.826498 
L 142.465191 93.809005 
L 138.485115 96.98301 
L 134.65937 100.34143 
L 130.996493 103.876772 
L 127.504656 107.581147 
L 124.191653 111.446289 
L 121.064875 115.463574 
L 118.1313 119.624037 
L 115.397472 123.918394 
L 112.869494 128.337063 
L 110.553005 132.870185 
L 108.453175 137.507644 
L 106.574689 142.239093 
L 104.921738 147.053973 
L 103.498012 151.941541 
L 102.306687 156.89089 
L 101.350421 161.890977 
L 100.631348 166.930645 
L 100.151073 171.998647 
L 99.910667 177.083676 
L 99.910667 182.174385 
L 100.151073 187.259414 
L 100.631348 192.327416 
L 101.350421 197.367084 
L 102.306687 202.367171 
L 103.498012 207.31652 
L 104.921738 212.204088 
L 106.574689 217.018968 
L 108.453175 221.750417 
L 110.553005 226.387876 
L 112.869494 230.920998 
L 115.397472 235.339667 
L 118.1313 239.634024 
L 121.064875 243.794487 
L 124.191653 247.811772 
L 127.504656 251.676914 
L 130.996493 255.381289 
L 134.65937 258.916631 
L 138.485115 262.275051 
L 142.465191 265.449056 
L 146.590718 268.431563 
L 150.852488 271.215917 
L 155.240994 273.795905 
L 159.746441 276.165769 
L 164.358778 278.320222 
L 169.067711 280.254457 
L 173.862733 281.964157 
L 178.733146 283.445507 
L 183.66808 284.695202 
L 188.656524 285.710454 
L 193.687348 286.488996 
L 198.749325 287.029092 
L 203.83116 287.329536 
L 208.921514 287.389658 
L 214.009027 287.209325 
L 219.082349 286.788937 
L 224.130157 286.129434 
L 229.141189 285.232287 
L 234.104263 284.099498 
L 239.008305 282.733594 
L 243.842371 281.137624 
L 248.595674 279.315148 
L 253.25761 277.270234 
L 257.817774 275.007444 
L 262.265991 272.531827 
L 266.592336 269.848908 
L 270.787154 266.964673 
L 274.841087 263.885558 
L 278.745087 260.618434 
L 282.490443 257.170591 
L 286.068798 253.549722 
L 289.472167 249.763908 
L 292.692956 245.821595 
L 295.723978 241.73158 
L 298.55847 237.50299 
L 301.190107 233.145261 
L 303.613017 228.668117 
L 305.821792 224.081547 
L 307.811506 219.395786 
L 309.577717 214.62129 
L 311.116484 209.768712 
L 312.424375 204.848881 
L 313.49847 199.872775 
L 314.336373 194.851497 
L 314.936215 189.796251 
L 315.296656 184.718319 
L 315.416892 179.62903 
L 315.416892 179.62903 
" clip-path="url(#p5435f874c8)" style="fill: none; stroke: #1f6feb; stroke-width: 2.4; stroke-linecap: square"/>
   </g>
   <g id="text_1">
    <!-- $(x,y)$ -->
    <g style="fill: #24292f" transform="translate(280.463531 89.318167) scale(0.12 -0.12)">
     <defs>
      <path id="DejaVuSans-28" d="M 1984 4856 
Q 1566 4138 1362 3434 
Q 1159 2731 1159 2009 
Q 1159 1288 1364 580 
Q 1569 -128 1984 -844 
L 1484 -844 
Q 1016 -109 783 600 
Q 550 1309 550 2009 
Q 550 2706 781 3412 
Q 1013 4119 1484 4856 
L 1984 4856 
z
" transform="scale(0.015625)"/>
      <path id="DejaVuSans-Oblique-78" d="M 3841 3500 
L 2234 1784 
L 3219 0 
L 2559 0 
L 1819 1388 
L 531 0 
L -166 0 
L 1556 1844 
L 641 3500 
L 1300 3500 
L 1972 2234 
L 3144 3500 
L 3841 3500 
z
" transform="scale(0.015625)"/>
      <path id="DejaVuSans-2c" d="M 750 794 
L 1409 794 
L 1409 256 
L 897 -744 
L 494 -744 
L 750 256 
L 750 794 
z
" transform="scale(0.015625)"/>
      <path id="DejaVuSans-Oblique-79" d="M 1588 -325 
Q 1188 -997 936 -1164 
Q 684 -1331 294 -1331 
L -159 -1331 
L -63 -850 
L 269 -850 
Q 509 -850 678 -719 
Q 847 -588 1056 -206 
L 1234 128 
L 459 3500 
L 1069 3500 
L 1650 819 
L 3256 3500 
L 3859 3500 
L 1588 -325 
z
" transform="scale(0.015625)"/>
      <path id="DejaVuSans-29" d="M 513 4856 
L 1013 4856 
Q 1481 4119 1714 3412 
Q 1947 2706 1947 2009 
Q 1947 1309 1714 600 
Q 1481 -109 1013 -844 
L 513 -844 
Q 928 -128 1133 580 
Q 1338 1288 1338 2009 
Q 1338 2731 1133 3434 
Q 928 4138 513 4856 
z
" transform="scale(0.015625)"/>
     </defs>
     <use xlink:href="#DejaVuSans-28" transform="translate(0 0.125)"/>
     <use xlink:href="#DejaVuSans-Oblique-78" transform="translate(39.013672 0.125)"/>
     <use xlink:href="#DejaVuSans-2c" transform="translate(98.193359 0.125)"/>
     <use xlink:href="#DejaVuSans-Oblique-79" transform="translate(149.462891 0.125)"/>
     <use xlink:href="#DejaVuSans-29" transform="translate(208.642578 0.125)"/>
    </g>
   </g>
   <g id="text_2">
    <!-- $\nabla F=(F_x,F_y)$ -->
    <g style="fill: #d1242f" transform="translate(326.992008 26.704006) scale(0.125 -0.125)">
     <defs>
      <path id="DejaVuSans-2207" d="M 2138 659 
L 3444 4047 
L 831 4047 
L 2138 659 
z
M 1791 0 
L -19 4603 
L 4300 4603 
L 2491 0 
L 1791 0 
z
" transform="scale(0.015625)"/>
      <path id="DejaVuSans-Oblique-46" d="M 1081 4666 
L 3756 4666 
L 3653 4134 
L 1606 4134 
L 1338 2759 
L 3188 2759 
L 3084 2228 
L 1234 2228 
L 800 0 
L 172 0 
L 1081 4666 
z
" transform="scale(0.015625)"/>
      <path id="DejaVuSans-3d" d="M 678 2906 
L 4684 2906 
L 4684 2381 
L 678 2381 
L 678 2906 
z
M 678 1631 
L 4684 1631 
L 4684 1100 
L 678 1100 
L 678 1631 
z
" transform="scale(0.015625)"/>
     </defs>
     <use xlink:href="#DejaVuSans-2207" transform="translate(0 0.125)"/>
     <use xlink:href="#DejaVuSans-Oblique-46" transform="translate(66.894531 0.125)"/>
     <use xlink:href="#DejaVuSans-3d" transform="translate(143.896484 0.125)"/>
     <use xlink:href="#DejaVuSans-28" transform="translate(247.167969 0.125)"/>
     <use xlink:href="#DejaVuSans-Oblique-46" transform="translate(286.181641 0.125)"/>
     <use xlink:href="#DejaVuSans-Oblique-78" transform="translate(343.701172 -16.28125) scale(0.7)"/>
     <use xlink:href="#DejaVuSans-2c" transform="translate(387.861328 0.125)"/>
     <use xlink:href="#DejaVuSans-Oblique-46" transform="translate(439.130859 0.125)"/>
     <use xlink:href="#DejaVuSans-Oblique-79" transform="translate(496.650391 -16.28125) scale(0.7)"/>
     <use xlink:href="#DejaVuSans-29" transform="translate(540.810547 0.125)"/>
    </g>
   </g>
   <g id="text_3">
    <!-- $(dx,dy)$ -->
    <g style="fill: #0b8457" transform="translate(212.068652 45.109955) scale(0.125 -0.125)">
     <defs>
      <path id="DejaVuSans-Oblique-64" d="M 2675 525 
Q 2444 222 2128 65 
Q 1813 -91 1428 -91 
Q 903 -91 598 267 
Q 294 625 294 1247 
Q 294 1766 478 2236 
Q 663 2706 1013 3078 
Q 1244 3325 1534 3454 
Q 1825 3584 2144 3584 
Q 2481 3584 2739 3421 
Q 2997 3259 3138 2956 
L 3513 4863 
L 4091 4863 
L 3144 0 
L 2566 0 
L 2675 525 
z
M 891 1350 
Q 891 897 1095 644 
Q 1300 391 1663 391 
Q 1931 391 2161 520 
Q 2391 650 2566 903 
Q 2750 1166 2856 1509 
Q 2963 1853 2963 2188 
Q 2963 2622 2758 2865 
Q 2553 3109 2194 3109 
Q 1922 3109 1687 2981 
Q 1453 2853 1288 2613 
Q 1106 2353 998 2009 
Q 891 1666 891 1350 
z
" transform="scale(0.015625)"/>
     </defs>
     <use xlink:href="#DejaVuSans-28" transform="translate(0 0.015625)"/>
     <use xlink:href="#DejaVuSans-Oblique-64" transform="translate(39.013672 0.015625)"/>
     <use xlink:href="#DejaVuSans-Oblique-78" transform="translate(102.490234 0.015625)"/>
     <use xlink:href="#DejaVuSans-2c" transform="translate(161.669922 0.015625)"/>
     <use xlink:href="#DejaVuSans-Oblique-64" transform="translate(212.939453 0.015625)"/>
     <use xlink:href="#DejaVuSans-Oblique-79" transform="translate(276.416016 0.015625)"/>
     <use xlink:href="#DejaVuSans-29" transform="translate(335.595703 0.015625)"/>
    </g>
   </g>
   <g id="text_4">
    <!-- $F=x^2+y^2-1=0$ -->
    <g style="fill: #1f6feb" transform="translate(239.979191 52.46262) scale(0.125 -0.125)">
     <defs>
      <path id="DejaVuSans-32" d="M 1228 531 
L 3431 531 
L 3431 0 
L 469 0 
L 469 531 
Q 828 903 1448 1529 
Q 2069 2156 2228 2338 
Q 2531 2678 2651 2914 
Q 2772 3150 2772 3378 
Q 2772 3750 2511 3984 
Q 2250 4219 1831 4219 
Q 1534 4219 1204 4116 
Q 875 4013 500 3803 
L 500 4441 
Q 881 4594 1212 4672 
Q 1544 4750 1819 4750 
Q 2544 4750 2975 4387 
Q 3406 4025 3406 3419 
Q 3406 3131 3298 2873 
Q 3191 2616 2906 2266 
Q 2828 2175 2409 1742 
Q 1991 1309 1228 531 
z
" transform="scale(0.015625)"/>
      <path id="DejaVuSans-2b" d="M 2944 4013 
L 2944 2272 
L 4684 2272 
L 4684 1741 
L 2944 1741 
L 2944 0 
L 2419 0 
L 2419 1741 
L 678 1741 
L 678 2272 
L 2419 2272 
L 2419 4013 
L 2944 4013 
z
" transform="scale(0.015625)"/>
      <path id="DejaVuSans-2212" d="M 678 2272 
L 4684 2272 
L 4684 1741 
L 678 1741 
L 678 2272 
z
" transform="scale(0.015625)"/>
      <path id="DejaVuSans-31" d="M 794 531 
L 1825 531 
L 1825 4091 
L 703 3866 
L 703 4441 
L 1819 4666 
L 2450 4666 
L 2450 531 
L 3481 531 
L 3481 0 
L 794 0 
L 794 531 
z
" transform="scale(0.015625)"/>
      <path id="DejaVuSans-30" d="M 2034 4250 
Q 1547 4250 1301 3770 
Q 1056 3291 1056 2328 
Q 1056 1369 1301 889 
Q 1547 409 2034 409 
Q 2525 409 2770 889 
Q 3016 1369 3016 2328 
Q 3016 3291 2770 3770 
Q 2525 4250 2034 4250 
z
M 2034 4750 
Q 2819 4750 3233 4129 
Q 3647 3509 3647 2328 
Q 3647 1150 3233 529 
Q 2819 -91 2034 -91 
Q 1250 -91 836 529 
Q 422 1150 422 2328 
Q 422 3509 836 4129 
Q 1250 4750 2034 4750 
z
" transform="scale(0.015625)"/>
     </defs>
     <use xlink:href="#DejaVuSans-Oblique-46" transform="translate(0 0.765625)"/>
     <use xlink:href="#DejaVuSans-3d" transform="translate(77.001953 0.765625)"/>
     <use xlink:href="#DejaVuSans-Oblique-78" transform="translate(180.273438 0.765625)"/>
     <use xlink:href="#DejaVuSans-32" transform="translate(243.919271 39.046875) scale(0.7)"/>
     <use xlink:href="#DejaVuSans-2b" transform="translate(310.672201 0.765625)"/>
     <use xlink:href="#DejaVuSans-Oblique-79" transform="translate(413.943685 0.765625)"/>
     <use xlink:href="#DejaVuSans-32" transform="translate(477.589518 39.046875) scale(0.7)"/>
     <use xlink:href="#DejaVuSans-2212" transform="translate(544.342448 0.765625)"/>
     <use xlink:href="#DejaVuSans-31" transform="translate(647.613932 0.765625)"/>
     <use xlink:href="#DejaVuSans-3d" transform="translate(730.719401 0.765625)"/>
     <use xlink:href="#DejaVuSans-30" transform="translate(833.990885 0.765625)"/>
    </g>
   </g>
   <g id="text_5">
    <!-- $\langle\nabla F,\,(dx,dy)\rangle = F_x\,dx + F_y\,dy = 0$ -->
    <g style="fill: #24292f" transform="translate(7.2 354.213424) scale(0.13 -0.13)">
     <defs>
      <path id="DejaVuSans-27e8" d="M 572 2006 
L 1453 4856 
L 1984 4856 
L 1103 2006 
L 1984 -844 
L 1453 -844 
L 572 2006 
z
" transform="scale(0.015625)"/>
      <path id="DejaVuSans-27e9" d="M 1925 2006 
L 1044 -844 
L 513 -844 
L 1394 2006 
L 513 4856 
L 1044 4856 
L 1925 2006 
z
" transform="scale(0.015625)"/>
     </defs>
     <use xlink:href="#DejaVuSans-27e8" transform="translate(0 0.015625)"/>
     <use xlink:href="#DejaVuSans-2207" transform="translate(39.013672 0.015625)"/>
     <use xlink:href="#DejaVuSans-Oblique-46" transform="translate(105.908203 0.015625)"/>
     <use xlink:href="#DejaVuSans-2c" transform="translate(163.427734 0.015625)"/>
     <use xlink:href="#DejaVuSans-28" transform="translate(230.932942 0.015625)"/>
     <use xlink:href="#DejaVuSans-Oblique-64" transform="translate(269.946614 0.015625)"/>
     <use xlink:href="#DejaVuSans-Oblique-78" transform="translate(333.423176 0.015625)"/>
     <use xlink:href="#DejaVuSans-2c" transform="translate(392.602864 0.015625)"/>
     <use xlink:href="#DejaVuSans-Oblique-64" transform="translate(443.872395 0.015625)"/>
     <use xlink:href="#DejaVuSans-Oblique-79" transform="translate(507.348958 0.015625)"/>
     <use xlink:href="#DejaVuSans-29" transform="translate(566.528645 0.015625)"/>
     <use xlink:href="#DejaVuSans-27e9" transform="translate(605.542317 0.015625)"/>
     <use xlink:href="#DejaVuSans-3d" transform="translate(664.038411 0.015625)"/>
     <use xlink:href="#DejaVuSans-Oblique-46" transform="translate(767.309895 0.015625)"/>
     <use xlink:href="#DejaVuSans-Oblique-78" transform="translate(824.829426 -16.390625) scale(0.7)"/>
     <use xlink:href="#DejaVuSans-Oblique-64" transform="translate(885.225259 0.015625)"/>
     <use xlink:href="#DejaVuSans-Oblique-78" transform="translate(948.701821 0.015625)"/>
     <use xlink:href="#DejaVuSans-2b" transform="translate(1027.363931 0.015625)"/>
     <use xlink:href="#DejaVuSans-Oblique-46" transform="translate(1130.635415 0.015625)"/>
     <use xlink:href="#DejaVuSans-Oblique-79" transform="translate(1188.154946 -16.390625) scale(0.7)"/>
     <use xlink:href="#DejaVuSans-Oblique-64" transform="translate(1248.550779 0.015625)"/>
     <use xlink:href="#DejaVuSans-Oblique-79" transform="translate(1312.027341 0.015625)"/>
     <use xlink:href="#DejaVuSans-3d" transform="translate(1390.689451 0.015625)"/>
     <use xlink:href="#DejaVuSans-30" transform="translate(1493.960935 0.015625)"/>
    </g>
   </g>
   <g id="PathCollection_1">
    <defs>
     <path id="m49dca0c2d4" d="M 0 2 
C 0.530406 2 1.03916 1.789267 1.414214 1.414214 
C 1.789267 1.03916 2 0.530406 2 0 
C 2 -0.530406 1.789267 -1.03916 1.414214 -1.414214 
C 1.03916 -1.789267 0.530406 -2 0 -2 
C -0.530406 -2 -1.03916 -1.789267 -1.414214 -1.414214 
C -1.789267 -1.03916 -2 -0.530406 -2 0 
C -2 0.530406 -1.789267 1.03916 -1.414214 1.414214 
C -1.03916 1.789267 -0.530406 2 0 2 
z
" style="stroke: #6e7781"/>
    </defs>
    <g clip-path="url(#p5435f874c8)">
     <use xlink:href="#m49dca0c2d4" x="207.648748" y="179.62903" style="fill: #6e7781; stroke: #6e7781"/>
    </g>
   </g>
   <g id="line2d_7">
    <path d="M 260.409849 84.090783 
L 271.025641 70.50319 
L 284.613234 81.118981 
L 273.997442 94.706574 
" clip-path="url(#p5435f874c8)" style="fill: none; stroke: #57606a; stroke-width: 1.1; stroke-linecap: square"/>
   </g>
   <g id="patch_3">
    <path d="M 273.997442 94.706574 
Q 298.878203 62.860653 322.10697 33.129186 
" clip-path="url(#p5435f874c8)" style="fill: none; stroke: #d1242f; stroke-width: 2.4; stroke-linecap: round"/>
    <path d="M 314.837369 36.586483 
L 322.10697 33.129186 
L 320.511046 41.019245 
z
" clip-path="url(#p5435f874c8)" style="fill: #d1242f; stroke: #d1242f; stroke-width: 2.4; stroke-linecap: round"/>
   </g>
   <g id="patch_4">
    <path d="M 273.997442 94.706574 
Q 240.877684 68.830583 209.872381 44.606585 
" clip-path="url(#p5435f874c8)" style="fill: none; stroke: #0b8457; stroke-width: 2.4; stroke-linecap: round"/>
    <path d="M 213.329677 51.876187 
L 209.872381 44.606585 
L 217.76244 46.202509 
z
" clip-path="url(#p5435f874c8)" style="fill: #0b8457; stroke: #0b8457; stroke-width: 2.4; stroke-linecap: round"/>
   </g>
   <g id="patch_5">
    <path d="M 273.997442 94.706574 
Q 307.1172 120.582565 338.122504 144.806563 
" clip-path="url(#p5435f874c8)" style="fill: none; stroke: #0b8457; stroke-width: 2.4; stroke-linecap: round"/>
    <path d="M 334.665208 137.536961 
L 338.122504 144.806563 
L 330.232445 143.210639 
z
" clip-path="url(#p5435f874c8)" style="fill: #0b8457; stroke: #0b8457; stroke-width: 2.4; stroke-linecap: round"/>
   </g>
   <g id="PathCollection_2">
    <defs>
     <path id="mf4ab9c32a9" d="M 0 2.915476 
C 0.773193 2.915476 1.514823 2.608283 2.061553 2.061553 
C 2.608283 1.514823 2.915476 0.773193 2.915476 0 
C 2.915476 -0.773193 2.608283 -1.514823 2.061553 -2.061553 
C 1.514823 -2.608283 0.773193 -2.915476 0 -2.915476 
C -0.773193 -2.915476 -1.514823 -2.608283 -2.061553 -2.061553 
C -2.608283 -1.514823 -2.915476 -0.773193 -2.915476 0 
C -2.915476 0.773193 -2.608283 1.514823 -2.061553 2.061553 
C -1.514823 2.608283 -0.773193 2.915476 0 2.915476 
z
" style="stroke: #24292f"/>
    </defs>
    <g clip-path="url(#p5435f874c8)">
     <use xlink:href="#mf4ab9c32a9" x="273.997442" y="94.706574" style="fill: #24292f; stroke: #24292f"/>
    </g>
   </g>
  </g>
 </g>
 <defs>
  <clipPath id="p5435f874c8">
   <rect x="8.277681" y="7.2" width="409.518947" height="361.023283"/>
  </clipPath>
 </defs>
</svg>
