<?xml version="1.0" encoding="utf-8" standalone="no"?>
<!DOCTYPE svg PUBLIC "-//W3C//DTD SVG 1.1//EN"
  "http://www.w3.org/Graphics/SVG/1.1/DTD/svg11.dtd">
<svg xmlns:xlink="http://www.w3.org/1999/xlink" width="765.412449pt" height="312.964136pt" viewBox="0 0 765.412449 312.964136" xmlns="http://www.w3.org/2000/svg" version="1.1">
 <metadata>
  <rdf:RDF xmlns:dc="http://purl.org/dc/elements/1.1/" xmlns:cc="http://creativecommons.org/ns#" xmlns:rdf="http://www.w3.org/1999/02/22-rdf-syntax-ns#">
   <cc:Work>
    <dc:type rdf:resource="http://purl.org/dc/dcmitype/StillImage"/>
    <dc:date>2026-06-12T10:00:14.315590</dc:date>
    <dc:format>image/svg+xml</dc:format>
    <dc:creator>
     <cc:Agent>
      <dc:title>Matplotlib v3.10.9, https://matplotlib.org/</dc:title>
     </cc:Agent>
    </dc:creator>
   </cc:Work>
  </rdf:RDF>
 </metadata>
 <defs>
  <style type="text/css">*{stroke-linejoin: round; stroke-linecap: butt}</style>
 </defs>
 <g id="figure_1">
  <g id="patch_1">
   <path d="M -0 312.964136 
L 765.412449 312.964136 
L 765.412449 0 
L -0 0 
z
" style="fill: #ffffff"/>
  </g>
  <g id="axes_1">
   <g id="patch_2">
    <path d="M 24.519531 246.879318 
L 218.212449 246.879318 
L 218.212449 53.1864 
L 24.519531 53.1864 
z
" style="fill: #ffffff"/>
   </g>
   <g id="line2d_1">
    <path d="M 24.519531 150.032859 
L 218.212449 150.032859 
" clip-path="url(#pd0eac712f5)" style="fill: none; stroke: #d0d7de; stroke-width: 0.8; stroke-linecap: square"/>
   </g>
   <g id="line2d_2">
    <path d="M 121.36599 246.879318 
L 121.36599 53.1864 
" clip-path="url(#pd0eac712f5)" style="fill: none; stroke: #d0d7de; stroke-width: 0.8; stroke-linecap: square"/>
   </g>
   <g id="patch_3">
    <path d="M 167.483351 150.032859 
L 167.477633 149.306663 
L 167.460481 148.580648 
L 167.431898 147.854993 
L 167.391893 147.129878 
L 167.340474 146.405483 
L 167.277654 145.681987 
L 167.20345 144.95957 
L 167.11788 144.238411 
L 167.020964 143.518689 
L 166.912726 142.800583 
L 166.793195 142.084269 
L 166.662399 141.369927 
L 166.52037 140.657733 
L 166.367144 139.947864 
L 166.20276 139.240496 
L 166.027257 138.535803 
L 165.840679 137.833962 
L 165.643072 137.135146 
L 165.434486 136.439528 
L 165.214973 135.747281 
L 164.984586 135.058576 
L 164.743382 134.373585 
L 164.491422 133.692476 
L 164.228769 133.01542 
L 163.955486 132.342583 
L 163.671642 131.674133 
L 163.377308 131.010236 
L 163.072556 130.351056 
L 162.757462 129.696756 
L 162.432104 129.047499 
L 162.096562 128.403446 
L 161.750921 127.764757 
L 161.395265 127.131589 
L 161.029683 126.5041 
L 160.654265 125.882446 
L 160.269105 125.26678 
L 159.874298 124.657256 
L 159.469942 124.054024 
L 159.056137 123.457234 
L 158.632986 122.867035 
L 158.200594 122.283571 
L 157.759068 121.706989 
L 157.308517 121.137431 
L 156.849054 120.575038 
L 156.380792 120.01995 
L 155.903847 119.472304 
L 155.418337 118.932237 
L 154.924383 118.399882 
L 154.422108 117.87537 
L 153.911636 117.358833 
L 153.393093 116.850398 
L 152.866609 116.350192 
L 152.332313 115.858338 
L 151.790338 115.374958 
L 151.240819 114.900173 
L 150.683892 114.4341 
L 150.119695 113.976854 
L 149.548367 113.528549 
L 148.970051 113.089296 
L 148.38489 112.659204 
L 147.793029 112.23838 
L 147.194615 111.826928 
L 146.589796 111.42495 
L 145.978722 111.032545 
L 145.361545 110.649812 
L 144.738418 110.276845 
L 144.109494 109.913736 
L 143.474932 109.560575 
L 142.834886 109.217451 
L 142.189517 108.884448 
L 141.538984 108.561648 
L 140.883449 108.249132 
L 140.223074 107.946978 
L 139.558023 107.655259 
L 138.888461 107.374049 
L 138.214554 107.103418 
L 137.536469 106.843432 
L 136.854374 106.594155 
L 136.168438 106.35565 
L 135.478832 106.127976 
L 134.785726 105.911189 
L 134.089292 105.705344 
L 133.389703 105.51049 
L 132.687133 105.326676 
L 131.981755 105.153949 
L 131.273745 104.99235 
L 130.563278 104.841921 
L 129.850531 104.702697 
L 129.135679 104.574714 
L 128.418901 104.458003 
L 127.700374 104.352594 
L 126.980276 104.258512 
L 126.258786 104.175781 
L 125.536082 104.104422 
L 124.812345 104.044451 
L 124.087753 103.995884 
L 123.362486 103.958734 
L 122.636724 103.933008 
L 121.910646 103.918714 
L 121.184434 103.915855 
L 120.458267 103.924432 
L 119.732325 103.944442 
L 119.006788 103.975881 
L 118.281836 104.018741 
L 117.557649 104.073012 
L 116.834406 104.138679 
L 116.112287 104.215726 
L 115.39147 104.304136 
L 114.672135 104.403884 
L 113.95446 104.514948 
L 113.238623 104.637298 
L 112.524802 104.770906 
L 111.813172 104.915737 
L 111.103912 105.071756 
L 110.397196 105.238924 
L 109.6932 105.4172 
L 108.992099 105.60654 
L 108.294066 105.806896 
L 107.599275 106.018218 
L 106.907897 106.240456 
L 106.220105 106.473552 
L 105.536068 106.717451 
L 104.855957 106.97209 
L 104.17994 107.237407 
L 103.508184 107.513336 
L 102.840857 107.799809 
L 102.178124 108.096755 
L 101.520148 108.4041 
L 100.867094 108.721767 
L 100.219123 109.049679 
L 99.576396 109.387753 
L 98.939072 109.735907 
L 98.307309 110.094052 
L 97.681265 110.462102 
L 97.061093 110.839964 
L 96.446949 111.227545 
L 95.838983 111.624748 
L 95.237348 112.031476 
L 94.642192 112.447627 
L 94.053663 112.873098 
L 93.471906 113.307784 
L 92.897067 113.751577 
L 92.329287 114.204366 
L 91.768707 114.66604 
L 91.215467 115.136484 
L 90.669703 115.615581 
L 90.131551 116.103213 
L 89.601144 116.599259 
L 89.078615 117.103595 
L 88.564091 117.616097 
L 88.057702 118.136637 
L 87.559572 118.665087 
L 87.069825 119.201315 
L 86.588583 119.745188 
L 86.115965 120.296572 
L 85.652087 120.85533 
L 85.197066 121.421323 
L 84.751014 121.994411 
L 84.314041 122.574452 
L 83.886256 123.161302 
L 83.467766 123.754815 
L 83.058673 124.354844 
L 82.659079 124.961241 
L 82.269083 125.573855 
L 81.888782 126.192534 
L 81.518271 126.817125 
L 81.157641 127.447473 
L 80.806981 128.083421 
L 80.466379 128.724812 
L 80.135919 129.371487 
L 79.815683 130.023286 
L 79.505751 130.680046 
L 79.206198 131.341605 
L 78.9171 132.0078 
L 78.638528 132.678464 
L 78.370552 133.353431 
L 78.113237 134.032534 
L 77.866648 134.715606 
L 77.630845 135.402475 
L 77.405888 136.092972 
L 77.191831 136.786926 
L 76.988729 137.484165 
L 76.796631 138.184515 
L 76.615585 138.887804 
L 76.445636 139.593856 
L 76.286826 140.302497 
L 76.139194 141.013551 
L 76.002777 141.726841 
L 75.877609 142.442191 
L 75.763722 143.159423 
L 75.661142 143.878359 
L 75.569896 144.598822 
L 75.490006 145.320632 
L 75.421492 146.043611 
L 75.364371 146.767579 
L 75.318657 147.492357 
L 75.284362 148.217764 
L 75.261494 148.943622 
L 75.250058 149.66975 
L 75.250058 150.395968 
L 75.261494 151.122096 
L 75.284362 151.847953 
L 75.318657 152.573361 
L 75.364371 153.298139 
L 75.421492 154.022107 
L 75.490006 154.745085 
L 75.569896 155.466896 
L 75.661142 156.187358 
L 75.763722 156.906295 
L 75.877609 157.623527 
L 76.002777 158.338877 
L 76.139194 159.052167 
L 76.286826 159.763221 
L 76.445636 160.471862 
L 76.615585 161.177914 
L 76.796631 161.881202 
L 76.988729 162.581553 
L 77.191831 163.278791 
L 77.405888 163.972745 
L 77.630845 164.663243 
L 77.866648 165.350112 
L 78.113237 166.033183 
L 78.370552 166.712287 
L 78.638528 167.387254 
L 78.9171 168.057918 
L 79.206198 168.724112 
L 79.505751 169.385672 
L 79.815683 170.042432 
L 80.135919 170.69423 
L 80.466379 171.340906 
L 80.806981 171.982297 
L 81.157641 172.618245 
L 81.518271 173.248593 
L 81.888782 173.873184 
L 82.269083 174.491863 
L 82.659079 175.104477 
L 83.058673 175.710874 
L 83.467766 176.310903 
L 83.886256 176.904416 
L 84.314041 177.491266 
L 84.751014 178.071306 
L 85.197066 178.644394 
L 85.652087 179.210387 
L 86.115965 179.769145 
L 86.588583 180.320529 
L 87.069825 180.864403 
L 87.559572 181.400631 
L 88.057702 181.92908 
L 88.564091 182.449621 
L 89.078615 182.962122 
L 89.601144 183.466459 
L 90.131551 183.962504 
L 90.669703 184.450136 
L 91.215467 184.929234 
L 91.768707 185.399678 
L 92.329287 185.861351 
L 92.897067 186.314141 
L 93.471906 186.757934 
L 94.053663 187.192619 
L 94.642192 187.618091 
L 95.237348 188.034242 
L 95.838983 188.440969 
L 96.446949 188.838173 
L 97.061093 189.225754 
L 97.681265 189.603616 
L 98.307309 189.971665 
L 98.939072 190.329811 
L 99.576396 190.677964 
L 100.219123 191.016039 
L 100.867094 191.34395 
L 101.520148 191.661618 
L 102.178124 191.968963 
L 102.840857 192.265908 
L 103.508184 192.552381 
L 104.17994 192.828311 
L 104.855957 193.093628 
L 105.536068 193.348267 
L 106.220105 193.592165 
L 106.907897 193.825262 
L 107.599275 194.047499 
L 108.294066 194.258822 
L 108.992099 194.459178 
L 109.6932 194.648517 
L 110.397196 194.826793 
L 111.103912 194.993962 
L 111.813172 195.149981 
L 112.524802 195.294812 
L 113.238623 195.428419 
L 113.95446 195.55077 
L 114.672135 195.661833 
L 115.39147 195.761582 
L 116.112287 195.849991 
L 116.834406 195.927039 
L 117.557649 195.992706 
L 118.281836 196.046976 
L 119.006788 196.089836 
L 119.732325 196.121276 
L 120.458267 196.141286 
L 121.184434 196.149863 
L 121.910646 196.147004 
L 122.636724 196.13271 
L 123.362486 196.106984 
L 124.087753 196.069833 
L 124.812345 196.021267 
L 125.536082 195.961296 
L 126.258786 195.889936 
L 126.980276 195.807205 
L 127.700374 195.713124 
L 128.418901 195.607714 
L 129.135679 195.491004 
L 129.850531 195.363021 
L 130.563278 195.223797 
L 131.273745 195.073367 
L 131.981755 194.911769 
L 132.687133 194.739041 
L 133.389703 194.555228 
L 134.089292 194.360374 
L 134.785726 194.154528 
L 135.478832 193.937741 
L 136.168438 193.710067 
L 136.854374 193.471563 
L 137.536469 193.222286 
L 138.214554 192.9623 
L 138.888461 192.691668 
L 139.558023 192.410458 
L 140.223074 192.11874 
L 140.883449 191.816585 
L 141.538984 191.50407 
L 142.189517 191.18127 
L 142.834886 190.848267 
L 143.474932 190.505142 
L 144.109494 190.151982 
L 144.738418 189.788873 
L 145.361545 189.415905 
L 145.978722 189.033172 
L 146.589796 188.640768 
L 147.194615 188.23879 
L 147.793029 187.827338 
L 148.38489 187.406513 
L 148.970051 186.976422 
L 149.548367 186.537169 
L 150.119695 186.088864 
L 150.683892 185.631618 
L 151.240819 185.165545 
L 151.790338 184.690759 
L 152.332313 184.20738 
L 152.866609 183.715526 
L 153.393093 183.215319 
L 153.911636 182.706884 
L 154.422108 182.190347 
L 154.924383 181.665836 
L 155.418337 181.133481 
L 155.903847 180.593413 
L 156.380792 180.045768 
L 156.849054 179.490679 
L 157.308517 178.928287 
L 157.759068 178.358728 
L 158.200594 177.782146 
L 158.632986 177.198683 
L 159.056137 176.608483 
L 159.469942 176.011693 
L 159.874298 175.408462 
L 160.269105 174.798937 
L 160.654265 174.183272 
L 161.029683 173.561618 
L 161.395265 172.934129 
L 161.750921 172.300961 
L 162.096562 171.662272 
L 162.432104 171.018219 
L 162.757462 170.368962 
L 163.072556 169.714662 
L 163.377308 169.055482 
L 163.671642 168.391584 
L 163.955486 167.723134 
L 164.228769 167.050298 
L 164.491422 166.373241 
L 164.743382 165.692133 
L 164.984586 165.007142 
L 165.214973 164.318437 
L 165.434486 163.62619 
L 165.643072 162.930572 
L 165.840679 162.231756 
L 166.027257 161.529914 
L 166.20276 160.825222 
L 166.367144 160.117854 
L 166.52037 159.407985 
L 166.662399 158.695791 
L 166.793195 157.981448 
L 166.912726 157.265135 
L 167.020964 156.547028 
L 167.11788 155.827307 
L 167.20345 155.106148 
L 167.277654 154.383731 
L 167.340474 153.660235 
L 167.391893 152.93584 
L 167.431898 152.210725 
L 167.460481 151.485069 
L 167.477633 150.759054 
L 167.483351 150.032859 
z
" clip-path="url(#pd0eac712f5)" style="fill: #1f6feb; opacity: 0.1; stroke: #1f6feb; stroke-linejoin: miter"/>
   </g>
   <g id="matplotlib.axis_1">
    <g id="xtick_1">
     <g id="line2d_3">
      <defs>
       <path id="m9e47a44436" d="M 0 0 
L 0 3.5 
" style="stroke: #8b949e; stroke-width: 0.8"/>
      </defs>
      <g>
       <use xlink:href="#m9e47a44436" x="29.131267" y="246.879318" style="fill: #8b949e; stroke: #8b949e; stroke-width: 0.8"/>
      </g>
     </g>
     <g id="text_1">
      <!-- −2 -->
      <g style="fill: #8b949e" transform="translate(23.971502 259.198224) scale(0.07 -0.07)">
       <defs>
        <path id="DejaVuSans-2212" d="M 678 2272 
L 4684 2272 
L 4684 1741 
L 678 1741 
L 678 2272 
z
" transform="scale(0.015625)"/>
        <path id="DejaVuSans-32" d="M 1228 531 
L 3431 531 
L 3431 0 
L 469 0 
L 469 531 
Q 828 903 1448 1529 
Q 2069 2156 2228 2338 
Q 2531 2678 2651 2914 
Q 2772 3150 2772 3378 
Q 2772 3750 2511 3984 
Q 2250 4219 1831 4219 
Q 1534 4219 1204 4116 
Q 875 4013 500 3803 
L 500 4441 
Q 881 4594 1212 4672 
Q 1544 4750 1819 4750 
Q 2544 4750 2975 4387 
Q 3406 4025 3406 3419 
Q 3406 3131 3298 2873 
Q 3191 2616 2906 2266 
Q 2828 2175 2409 1742 
Q 1991 1309 1228 531 
z
" transform="scale(0.015625)"/>
       </defs>
       <use xlink:href="#DejaVuSans-2212"/>
       <use xlink:href="#DejaVuSans-32" transform="translate(83.789062 0)"/>
      </g>
     </g>
    </g>
    <g id="xtick_2">
     <g id="line2d_4">
      <g>
       <use xlink:href="#m9e47a44436" x="75.248629" y="246.879318" style="fill: #8b949e; stroke: #8b949e; stroke-width: 0.8"/>
      </g>
     </g>
     <g id="text_2">
      <!-- −1 -->
      <g style="fill: #8b949e" transform="translate(70.088863 259.198224) scale(0.07 -0.07)">
       <defs>
        <path id="DejaVuSans-31" d="M 794 531 
L 1825 531 
L 1825 4091 
L 703 3866 
L 703 4441 
L 1819 4666 
L 2450 4666 
L 2450 531 
L 3481 531 
L 3481 0 
L 794 0 
L 794 531 
z
" transform="scale(0.015625)"/>
       </defs>
       <use xlink:href="#DejaVuSans-2212"/>
       <use xlink:href="#DejaVuSans-31" transform="translate(83.789062 0)"/>
      </g>
     </g>
    </g>
    <g id="xtick_3">
     <g id="line2d_5">
      <g>
       <use xlink:href="#m9e47a44436" x="121.36599" y="246.879318" style="fill: #8b949e; stroke: #8b949e; stroke-width: 0.8"/>
      </g>
     </g>
     <g id="text_3">
      <!-- 0 -->
      <g style="fill: #8b949e" transform="translate(119.139115 259.198224) scale(0.07 -0.07)">
       <defs>
        <path id="DejaVuSans-30" d="M 2034 4250 
Q 1547 4250 1301 3770 
Q 1056 3291 1056 2328 
Q 1056 1369 1301 889 
Q 1547 409 2034 409 
Q 2525 409 2770 889 
Q 3016 1369 3016 2328 
Q 3016 3291 2770 3770 
Q 2525 4250 2034 4250 
z
M 2034 4750 
Q 2819 4750 3233 4129 
Q 3647 3509 3647 2328 
Q 3647 1150 3233 529 
Q 2819 -91 2034 -91 
Q 1250 -91 836 529 
Q 422 1150 422 2328 
Q 422 3509 836 4129 
Q 1250 4750 2034 4750 
z
" transform="scale(0.015625)"/>
       </defs>
       <use xlink:href="#DejaVuSans-30"/>
      </g>
     </g>
    </g>
    <g id="xtick_4">
     <g id="line2d_6">
      <g>
       <use xlink:href="#m9e47a44436" x="167.483351" y="246.879318" style="fill: #8b949e; stroke: #8b949e; stroke-width: 0.8"/>
      </g>
     </g>
     <g id="text_4">
      <!-- 1 -->
      <g style="fill: #8b949e" transform="translate(165.256476 259.198224) scale(0.07 -0.07)">
       <use xlink:href="#DejaVuSans-31"/>
      </g>
     </g>
    </g>
    <g id="xtick_5">
     <g id="line2d_7">
      <g>
       <use xlink:href="#m9e47a44436" x="213.600713" y="246.879318" style="fill: #8b949e; stroke: #8b949e; stroke-width: 0.8"/>
      </g>
     </g>
     <g id="text_5">
      <!-- 2 -->
      <g style="fill: #8b949e" transform="translate(211.373838 259.198224) scale(0.07 -0.07)">
       <use xlink:href="#DejaVuSans-32"/>
      </g>
     </g>
    </g>
   </g>
   <g id="matplotlib.axis_2">
    <g id="ytick_1">
     <g id="line2d_8">
      <defs>
       <path id="m76edd6a8ad" d="M 0 0 
L -3.5 0 
" style="stroke: #8b949e; stroke-width: 0.8"/>
      </defs>
      <g>
       <use xlink:href="#m76edd6a8ad" x="24.519531" y="242.267582" style="fill: #8b949e; stroke: #8b949e; stroke-width: 0.8"/>
      </g>
     </g>
     <g id="text_6">
      <!-- −2 -->
      <g style="fill: #8b949e" transform="translate(7.2 244.927035) scale(0.07 -0.07)">
       <use xlink:href="#DejaVuSans-2212"/>
       <use xlink:href="#DejaVuSans-32" transform="translate(83.789062 0)"/>
      </g>
     </g>
    </g>
    <g id="ytick_2">
     <g id="line2d_9">
      <g>
       <use xlink:href="#m76edd6a8ad" x="24.519531" y="196.15022" style="fill: #8b949e; stroke: #8b949e; stroke-width: 0.8"/>
      </g>
     </g>
     <g id="text_7">
      <!-- −1 -->
      <g style="fill: #8b949e" transform="translate(7.2 198.809673) scale(0.07 -0.07)">
       <use xlink:href="#DejaVuSans-2212"/>
       <use xlink:href="#DejaVuSans-31" transform="translate(83.789062 0)"/>
      </g>
     </g>
    </g>
    <g id="ytick_3">
     <g id="line2d_10">
      <g>
       <use xlink:href="#m76edd6a8ad" x="24.519531" y="150.032859" style="fill: #8b949e; stroke: #8b949e; stroke-width: 0.8"/>
      </g>
     </g>
     <g id="text_8">
      <!-- 0 -->
      <g style="fill: #8b949e" transform="translate(13.065781 152.692312) scale(0.07 -0.07)">
       <use xlink:href="#DejaVuSans-30"/>
      </g>
     </g>
    </g>
    <g id="ytick_4">
     <g id="line2d_11">
      <g>
       <use xlink:href="#m76edd6a8ad" x="24.519531" y="103.915497" style="fill: #8b949e; stroke: #8b949e; stroke-width: 0.8"/>
      </g>
     </g>
     <g id="text_9">
      <!-- 1 -->
      <g style="fill: #8b949e" transform="translate(13.065781 106.574951) scale(0.07 -0.07)">
       <use xlink:href="#DejaVuSans-31"/>
      </g>
     </g>
    </g>
    <g id="ytick_5">
     <g id="line2d_12">
      <g>
       <use xlink:href="#m76edd6a8ad" x="24.519531" y="57.798136" style="fill: #8b949e; stroke: #8b949e; stroke-width: 0.8"/>
      </g>
     </g>
     <g id="text_10">
      <!-- 2 -->
      <g style="fill: #8b949e" transform="translate(13.065781 60.457589) scale(0.07 -0.07)">
       <use xlink:href="#DejaVuSans-32"/>
      </g>
     </g>
    </g>
   </g>
   <g id="text_11">
    <!-- e1 -->
    <g style="fill: #24292f" transform="translate(175.323303 147.726991) scale(0.11 -0.11)">
     <defs>
      <path id="DejaVuSans-65" d="M 3597 1894 
L 3597 1613 
L 953 1613 
Q 991 1019 1311 708 
Q 1631 397 2203 397 
Q 2534 397 2845 478 
Q 3156 559 3463 722 
L 3463 178 
Q 3153 47 2828 -22 
Q 2503 -91 2169 -91 
Q 1331 -91 842 396 
Q 353 884 353 1716 
Q 353 2575 817 3079 
Q 1281 3584 2069 3584 
Q 2775 3584 3186 3129 
Q 3597 2675 3597 1894 
z
M 3022 2063 
Q 3016 2534 2758 2815 
Q 2500 3097 2075 3097 
Q 1594 3097 1305 2825 
Q 1016 2553 972 2059 
L 3022 2063 
z
" transform="scale(0.015625)"/>
     </defs>
     <use xlink:href="#DejaVuSans-65"/>
     <use xlink:href="#DejaVuSans-31" transform="translate(61.523438 0)"/>
    </g>
   </g>
   <g id="text_12">
    <!-- e2 -->
    <g style="fill: #24292f" transform="translate(123.671858 96.075546) scale(0.11 -0.11)">
     <use xlink:href="#DejaVuSans-65"/>
     <use xlink:href="#DejaVuSans-32" transform="translate(61.523438 0)"/>
    </g>
   </g>
   <g id="text_13">
    <!-- unit circle -->
    <g style="fill: #57606a" transform="translate(98.022709 292.836417) scale(0.095 -0.095)">
     <defs>
      <path id="DejaVuSans-75" d="M 544 1381 
L 544 3500 
L 1119 3500 
L 1119 1403 
Q 1119 906 1312 657 
Q 1506 409 1894 409 
Q 2359 409 2629 706 
Q 2900 1003 2900 1516 
L 2900 3500 
L 3475 3500 
L 3475 0 
L 2900 0 
L 2900 538 
Q 2691 219 2414 64 
Q 2138 -91 1772 -91 
Q 1169 -91 856 284 
Q 544 659 544 1381 
z
M 1991 3584 
L 1991 3584 
z
" transform="scale(0.015625)"/>
      <path id="DejaVuSans-6e" d="M 3513 2113 
L 3513 0 
L 2938 0 
L 2938 2094 
Q 2938 2591 2744 2837 
Q 2550 3084 2163 3084 
Q 1697 3084 1428 2787 
Q 1159 2491 1159 1978 
L 1159 0 
L 581 0 
L 581 3500 
L 1159 3500 
L 1159 2956 
Q 1366 3272 1645 3428 
Q 1925 3584 2291 3584 
Q 2894 3584 3203 3211 
Q 3513 2838 3513 2113 
z
" transform="scale(0.015625)"/>
      <path id="DejaVuSans-69" d="M 603 3500 
L 1178 3500 
L 1178 0 
L 603 0 
L 603 3500 
z
M 603 4863 
L 1178 4863 
L 1178 4134 
L 603 4134 
L 603 4863 
z
" transform="scale(0.015625)"/>
      <path id="DejaVuSans-74" d="M 1172 4494 
L 1172 3500 
L 2356 3500 
L 2356 3053 
L 1172 3053 
L 1172 1153 
Q 1172 725 1289 603 
Q 1406 481 1766 481 
L 2356 481 
L 2356 0 
L 1766 0 
Q 1100 0 847 248 
Q 594 497 594 1153 
L 594 3053 
L 172 3053 
L 172 3500 
L 594 3500 
L 594 4494 
L 1172 4494 
z
" transform="scale(0.015625)"/>
      <path id="DejaVuSans-20" transform="scale(0.015625)"/>
      <path id="DejaVuSans-63" d="M 3122 3366 
L 3122 2828 
Q 2878 2963 2633 3030 
Q 2388 3097 2138 3097 
Q 1578 3097 1268 2742 
Q 959 2388 959 1747 
Q 959 1106 1268 751 
Q 1578 397 2138 397 
Q 2388 397 2633 464 
Q 2878 531 3122 666 
L 3122 134 
Q 2881 22 2623 -34 
Q 2366 -91 2075 -91 
Q 1284 -91 818 406 
Q 353 903 353 1747 
Q 353 2603 823 3093 
Q 1294 3584 2113 3584 
Q 2378 3584 2631 3529 
Q 2884 3475 3122 3366 
z
" transform="scale(0.015625)"/>
      <path id="DejaVuSans-72" d="M 2631 2963 
Q 2534 3019 2420 3045 
Q 2306 3072 2169 3072 
Q 1681 3072 1420 2755 
Q 1159 2438 1159 1844 
L 1159 0 
L 581 0 
L 581 3500 
L 1159 3500 
L 1159 2956 
Q 1341 3275 1631 3429 
Q 1922 3584 2338 3584 
Q 2397 3584 2469 3576 
Q 2541 3569 2628 3553 
L 2631 2963 
z
" transform="scale(0.015625)"/>
      <path id="DejaVuSans-6c" d="M 603 4863 
L 1178 4863 
L 1178 0 
L 603 0 
L 603 4863 
z
" transform="scale(0.015625)"/>
     </defs>
     <use xlink:href="#DejaVuSans-75"/>
     <use xlink:href="#DejaVuSans-6e" transform="translate(63.378906 0)"/>
     <use xlink:href="#DejaVuSans-69" transform="translate(126.757812 0)"/>
     <use xlink:href="#DejaVuSans-74" transform="translate(154.541016 0)"/>
     <use xlink:href="#DejaVuSans-20" transform="translate(193.75 0)"/>
     <use xlink:href="#DejaVuSans-63" transform="translate(225.537109 0)"/>
     <use xlink:href="#DejaVuSans-69" transform="translate(280.517578 0)"/>
     <use xlink:href="#DejaVuSans-72" transform="translate(308.300781 0)"/>
     <use xlink:href="#DejaVuSans-63" transform="translate(347.164062 0)"/>
     <use xlink:href="#DejaVuSans-6c" transform="translate(402.144531 0)"/>
     <use xlink:href="#DejaVuSans-65" transform="translate(429.927734 0)"/>
    </g>
    <!-- ||e1||=||e2||=1,  e1 _|_ e2 -->
    <g style="fill: #57606a" transform="translate(59.903959 303.524214) scale(0.095 -0.095)">
     <defs>
      <path id="DejaVuSans-7c" d="M 1344 4891 
L 1344 -1509 
L 813 -1509 
L 813 4891 
L 1344 4891 
z
" transform="scale(0.015625)"/>
      <path id="DejaVuSans-3d" d="M 678 2906 
L 4684 2906 
L 4684 2381 
L 678 2381 
L 678 2906 
z
M 678 1631 
L 4684 1631 
L 4684 1100 
L 678 1100 
L 678 1631 
z
" transform="scale(0.015625)"/>
      <path id="DejaVuSans-2c" d="M 750 794 
L 1409 794 
L 1409 256 
L 897 -744 
L 494 -744 
L 750 256 
L 750 794 
z
" transform="scale(0.015625)"/>
      <path id="DejaVuSans-5f" d="M 3263 -1063 
L 3263 -1509 
L -63 -1509 
L -63 -1063 
L 3263 -1063 
z
" transform="scale(0.015625)"/>
     </defs>
     <use xlink:href="#DejaVuSans-7c"/>
     <use xlink:href="#DejaVuSans-7c" transform="translate(33.691406 0)"/>
     <use xlink:href="#DejaVuSans-65" transform="translate(67.382812 0)"/>
     <use xlink:href="#DejaVuSans-31" transform="translate(128.90625 0)"/>
     <use xlink:href="#DejaVuSans-7c" transform="translate(192.529297 0)"/>
     <use xlink:href="#DejaVuSans-7c" transform="translate(226.220703 0)"/>
     <use xlink:href="#DejaVuSans-3d" transform="translate(259.912109 0)"/>
     <use xlink:href="#DejaVuSans-7c" transform="translate(343.701172 0)"/>
     <use xlink:href="#DejaVuSans-7c" transform="translate(377.392578 0)"/>
     <use xlink:href="#DejaVuSans-65" transform="translate(411.083984 0)"/>
     <use xlink:href="#DejaVuSans-32" transform="translate(472.607422 0)"/>
     <use xlink:href="#DejaVuSans-7c" transform="translate(536.230469 0)"/>
     <use xlink:href="#DejaVuSans-7c" transform="translate(569.921875 0)"/>
     <use xlink:href="#DejaVuSans-3d" transform="translate(603.613281 0)"/>
     <use xlink:href="#DejaVuSans-31" transform="translate(687.402344 0)"/>
     <use xlink:href="#DejaVuSans-2c" transform="translate(751.025391 0)"/>
     <use xlink:href="#DejaVuSans-20" transform="translate(782.8125 0)"/>
     <use xlink:href="#DejaVuSans-20" transform="translate(814.599609 0)"/>
     <use xlink:href="#DejaVuSans-65" transform="translate(846.386719 0)"/>
     <use xlink:href="#DejaVuSans-31" transform="translate(907.910156 0)"/>
     <use xlink:href="#DejaVuSans-20" transform="translate(971.533203 0)"/>
     <use xlink:href="#DejaVuSans-5f" transform="translate(1003.320312 0)"/>
     <use xlink:href="#DejaVuSans-7c" transform="translate(1053.320312 0)"/>
     <use xlink:href="#DejaVuSans-5f" transform="translate(1087.011719 0)"/>
     <use xlink:href="#DejaVuSans-20" transform="translate(1137.011719 0)"/>
     <use xlink:href="#DejaVuSans-65" transform="translate(1168.798828 0)"/>
     <use xlink:href="#DejaVuSans-32" transform="translate(1230.322266 0)"/>
    </g>
   </g>
   <g id="text_14">
    <!-- M = I  (standard) -->
    <g transform="translate(70.468178 43.1864) scale(0.12 -0.12)">
     <defs>
      <path id="DejaVuSans-4d" d="M 628 4666 
L 1569 4666 
L 2759 1491 
L 3956 4666 
L 4897 4666 
L 4897 0 
L 4281 0 
L 4281 4097 
L 3078 897 
L 2444 897 
L 1241 4097 
L 1241 0 
L 628 0 
L 628 4666 
z
" transform="scale(0.015625)"/>
      <path id="DejaVuSans-49" d="M 628 4666 
L 1259 4666 
L 1259 0 
L 628 0 
L 628 4666 
z
" transform="scale(0.015625)"/>
      <path id="DejaVuSans-28" d="M 1984 4856 
Q 1566 4138 1362 3434 
Q 1159 2731 1159 2009 
Q 1159 1288 1364 580 
Q 1569 -128 1984 -844 
L 1484 -844 
Q 1016 -109 783 600 
Q 550 1309 550 2009 
Q 550 2706 781 3412 
Q 1013 4119 1484 4856 
L 1984 4856 
z
" transform="scale(0.015625)"/>
      <path id="DejaVuSans-73" d="M 2834 3397 
L 2834 2853 
Q 2591 2978 2328 3040 
Q 2066 3103 1784 3103 
Q 1356 3103 1142 2972 
Q 928 2841 928 2578 
Q 928 2378 1081 2264 
Q 1234 2150 1697 2047 
L 1894 2003 
Q 2506 1872 2764 1633 
Q 3022 1394 3022 966 
Q 3022 478 2636 193 
Q 2250 -91 1575 -91 
Q 1294 -91 989 -36 
Q 684 19 347 128 
L 347 722 
Q 666 556 975 473 
Q 1284 391 1588 391 
Q 1994 391 2212 530 
Q 2431 669 2431 922 
Q 2431 1156 2273 1281 
Q 2116 1406 1581 1522 
L 1381 1569 
Q 847 1681 609 1914 
Q 372 2147 372 2553 
Q 372 3047 722 3315 
Q 1072 3584 1716 3584 
Q 2034 3584 2315 3537 
Q 2597 3491 2834 3397 
z
" transform="scale(0.015625)"/>
      <path id="DejaVuSans-61" d="M 2194 1759 
Q 1497 1759 1228 1600 
Q 959 1441 959 1056 
Q 959 750 1161 570 
Q 1363 391 1709 391 
Q 2188 391 2477 730 
Q 2766 1069 2766 1631 
L 2766 1759 
L 2194 1759 
z
M 3341 1997 
L 3341 0 
L 2766 0 
L 2766 531 
Q 2569 213 2275 61 
Q 1981 -91 1556 -91 
Q 1019 -91 701 211 
Q 384 513 384 1019 
Q 384 1609 779 1909 
Q 1175 2209 1959 2209 
L 2766 2209 
L 2766 2266 
Q 2766 2663 2505 2880 
Q 2244 3097 1772 3097 
Q 1472 3097 1187 3025 
Q 903 2953 641 2809 
L 641 3341 
Q 956 3463 1253 3523 
Q 1550 3584 1831 3584 
Q 2591 3584 2966 3190 
Q 3341 2797 3341 1997 
z
" transform="scale(0.015625)"/>
      <path id="DejaVuSans-64" d="M 2906 2969 
L 2906 4863 
L 3481 4863 
L 3481 0 
L 2906 0 
L 2906 525 
Q 2725 213 2448 61 
Q 2172 -91 1784 -91 
Q 1150 -91 751 415 
Q 353 922 353 1747 
Q 353 2572 751 3078 
Q 1150 3584 1784 3584 
Q 2172 3584 2448 3432 
Q 2725 3281 2906 2969 
z
M 947 1747 
Q 947 1113 1208 752 
Q 1469 391 1925 391 
Q 2381 391 2643 752 
Q 2906 1113 2906 1747 
Q 2906 2381 2643 2742 
Q 2381 3103 1925 3103 
Q 1469 3103 1208 2742 
Q 947 2381 947 1747 
z
" transform="scale(0.015625)"/>
      <path id="DejaVuSans-29" d="M 513 4856 
L 1013 4856 
Q 1481 4119 1714 3412 
Q 1947 2706 1947 2009 
Q 1947 1309 1714 600 
Q 1481 -109 1013 -844 
L 513 -844 
Q 928 -128 1133 580 
Q 1338 1288 1338 2009 
Q 1338 2731 1133 3434 
Q 928 4138 513 4856 
z
" transform="scale(0.015625)"/>
     </defs>
     <use xlink:href="#DejaVuSans-4d"/>
     <use xlink:href="#DejaVuSans-20" transform="translate(86.279297 0)"/>
     <use xlink:href="#DejaVuSans-3d" transform="translate(118.066406 0)"/>
     <use xlink:href="#DejaVuSans-20" transform="translate(201.855469 0)"/>
     <use xlink:href="#DejaVuSans-49" transform="translate(233.642578 0)"/>
     <use xlink:href="#DejaVuSans-20" transform="translate(263.134766 0)"/>
     <use xlink:href="#DejaVuSans-20" transform="translate(294.921875 0)"/>
     <use xlink:href="#DejaVuSans-28" transform="translate(326.708984 0)"/>
     <use xlink:href="#DejaVuSans-73" transform="translate(365.722656 0)"/>
     <use xlink:href="#DejaVuSans-74" transform="translate(417.822266 0)"/>
     <use xlink:href="#DejaVuSans-61" transform="translate(457.03125 0)"/>
     <use xlink:href="#DejaVuSans-6e" transform="translate(518.310547 0)"/>
     <use xlink:href="#DejaVuSans-64" transform="translate(581.689453 0)"/>
     <use xlink:href="#DejaVuSans-61" transform="translate(645.166016 0)"/>
     <use xlink:href="#DejaVuSans-72" transform="translate(706.445312 0)"/>
     <use xlink:href="#DejaVuSans-64" transform="translate(745.808594 0)"/>
     <use xlink:href="#DejaVuSans-29" transform="translate(809.285156 0)"/>
    </g>
   </g>
   <g id="line2d_13">
    <path d="M 167.483351 150.032859 
L 167.391893 147.129878 
L 167.11788 144.238411 
L 166.662399 141.369927 
L 166.027257 138.535803 
L 165.214973 135.747281 
L 164.228769 133.01542 
L 163.072556 130.351056 
L 161.750921 127.764757 
L 160.269105 125.26678 
L 158.632986 122.867035 
L 156.849054 120.575038 
L 154.924383 118.399882 
L 152.866609 116.350192 
L 150.683892 114.4341 
L 148.38489 112.659204 
L 145.978722 111.032545 
L 143.474932 109.560575 
L 140.883449 108.249132 
L 138.214554 107.103418 
L 135.478832 106.127976 
L 132.687133 105.326676 
L 129.850531 104.702697 
L 126.980276 104.258512 
L 124.087753 103.995884 
L 121.184434 103.915855 
L 118.281836 104.018741 
L 115.39147 104.304136 
L 112.524802 104.770906 
L 109.6932 105.4172 
L 106.907897 106.240456 
L 104.17994 107.237407 
L 101.520148 108.4041 
L 98.939072 109.735907 
L 96.446949 111.227545 
L 94.053663 112.873098 
L 91.768707 114.66604 
L 89.601144 116.599259 
L 87.559572 118.665087 
L 85.652087 120.85533 
L 83.886256 123.161302 
L 82.269083 125.573855 
L 80.806981 128.083421 
L 79.505751 130.680046 
L 78.370552 133.353431 
L 77.405888 136.092972 
L 76.615585 138.887804 
L 76.002777 141.726841 
L 75.569896 144.598822 
L 75.318657 147.492357 
L 75.250058 150.395968 
L 75.364371 153.298139 
L 75.661142 156.187358 
L 76.139194 159.052167 
L 76.796631 161.881202 
L 77.630845 164.663243 
L 78.638528 167.387254 
L 79.815683 170.042432 
L 81.157641 172.618245 
L 82.659079 175.104477 
L 84.314041 177.491266 
L 86.115965 179.769145 
L 88.057702 181.92908 
L 90.131551 183.962504 
L 92.329287 185.861351 
L 94.642192 187.618091 
L 97.061093 189.225754 
L 99.576396 190.677964 
L 102.178124 191.968963 
L 104.855957 193.093628 
L 107.599275 194.047499 
L 110.397196 194.826793 
L 113.238623 195.428419 
L 116.112287 195.849991 
L 119.006788 196.089836 
L 121.910646 196.147004 
L 124.812345 196.021267 
L 127.700374 195.713124 
L 130.563278 195.223797 
L 133.389703 194.555228 
L 136.168438 193.710067 
L 138.888461 192.691668 
L 141.538984 191.50407 
L 144.109494 190.151982 
L 146.589796 188.640768 
L 148.970051 186.976422 
L 151.240819 185.165545 
L 153.393093 183.215319 
L 155.418337 181.133481 
L 157.308517 178.928287 
L 159.056137 176.608483 
L 160.654265 174.183272 
L 162.096562 171.662272 
L 163.377308 169.055482 
L 164.491422 166.373241 
L 165.434486 163.62619 
L 166.20276 160.825222 
L 166.793195 157.981448 
L 167.20345 155.106148 
L 167.431898 152.210725 
L 167.483351 150.032859 
L 167.483351 150.032859 
" clip-path="url(#pd0eac712f5)" style="fill: none; stroke: #1f6feb; stroke-width: 2.3; stroke-linecap: square"/>
   </g>
   <g id="patch_4">
    <path d="M 121.36599 150.032859 
Q 144.424671 150.032859 165.247283 150.032859 
" clip-path="url(#pd0eac712f5)" style="fill: none; stroke: #57606a; stroke-width: 2; stroke-linecap: round"/>
    <path d="M 159.647283 147.232859 
L 165.247283 150.032859 
L 159.647283 152.832859 
z
" clip-path="url(#pd0eac712f5)" style="fill: #57606a; stroke: #57606a; stroke-width: 2; stroke-linecap: round"/>
   </g>
   <g id="patch_5">
    <path d="M 121.36599 150.032859 
Q 121.36599 126.974178 121.36599 106.151565 
" clip-path="url(#pd0eac712f5)" style="fill: none; stroke: #57606a; stroke-width: 2; stroke-linecap: round"/>
    <path d="M 118.56599 111.751565 
L 121.36599 106.151565 
L 124.16599 111.751565 
z
" clip-path="url(#pd0eac712f5)" style="fill: #57606a; stroke: #57606a; stroke-width: 2; stroke-linecap: round"/>
   </g>
   <g id="PathCollection_1">
    <defs>
     <path id="m850d494117" d="M 0 1.870829 
C 0.49615 1.870829 0.972045 1.673706 1.322876 1.322876 
C 1.673706 0.972045 1.870829 0.49615 1.870829 0 
C 1.870829 -0.49615 1.673706 -0.972045 1.322876 -1.322876 
C 0.972045 -1.673706 0.49615 -1.870829 0 -1.870829 
C -0.49615 -1.870829 -0.972045 -1.673706 -1.322876 -1.322876 
C -1.673706 -0.972045 -1.870829 -0.49615 -1.870829 0 
C -1.870829 0.49615 -1.673706 0.972045 -1.322876 1.322876 
C -0.972045 1.673706 -0.49615 1.870829 0 1.870829 
z
" style="stroke: #24292f"/>
    </defs>
    <g clip-path="url(#pd0eac712f5)">
     <use xlink:href="#m850d494117" x="121.36599" y="150.032859" style="fill: #24292f; stroke: #24292f"/>
    </g>
   </g>
  </g>
  <g id="axes_2">
   <g id="patch_6">
    <path d="M 294.519531 246.879318 
L 488.212449 246.879318 
L 488.212449 53.1864 
L 294.519531 53.1864 
z
" style="fill: #ffffff"/>
   </g>
   <g id="line2d_14">
    <path d="M 294.519531 150.032859 
L 488.212449 150.032859 
" clip-path="url(#p2bf8f00b57)" style="fill: none; stroke: #d0d7de; stroke-width: 0.8; stroke-linecap: square"/>
   </g>
   <g id="line2d_15">
    <path d="M 391.36599 246.879318 
L 391.36599 53.1864 
" clip-path="url(#p2bf8f00b57)" style="fill: none; stroke: #d0d7de; stroke-width: 0.8; stroke-linecap: square"/>
   </g>
   <g id="patch_7">
    <path d="M 456.585788 150.032859 
L 456.577702 148.775052 
L 456.553444 147.517556 
L 456.513023 146.260685 
L 456.456446 145.004748 
L 456.383729 143.750059 
L 456.294889 142.496927 
L 456.189948 141.245665 
L 456.068933 139.996581 
L 455.931873 138.749986 
L 455.778802 137.506189 
L 455.609759 136.265498 
L 455.424785 135.028221 
L 455.223927 133.794665 
L 455.007233 132.565135 
L 454.774758 131.339937 
L 454.526559 130.119375 
L 454.262698 128.90375 
L 453.98324 127.693365 
L 453.688255 126.488519 
L 453.377816 125.289512 
L 453.051999 124.09664 
L 452.710886 122.9102 
L 452.354561 121.730486 
L 451.983113 120.55779 
L 451.596633 119.392403 
L 451.195217 118.234614 
L 450.778966 117.08471 
L 450.347981 115.942976 
L 449.902371 114.809696 
L 449.442245 113.68515 
L 448.967718 112.569617 
L 448.478907 111.463374 
L 447.975934 110.366696 
L 447.458922 109.279853 
L 446.928002 108.203116 
L 446.383303 107.136752 
L 445.824962 106.081025 
L 445.253116 105.036197 
L 444.667908 104.002527 
L 444.069482 102.980271 
L 443.457987 101.969683 
L 442.833575 100.971013 
L 442.1964 99.98451 
L 441.54662 99.010417 
L 440.884397 98.048976 
L 440.209895 97.100426 
L 439.523281 96.165002 
L 438.824725 95.242935 
L 438.114401 94.334455 
L 437.392484 93.439786 
L 436.659154 92.559152 
L 435.914592 91.692769 
L 435.158984 90.840853 
L 434.392516 90.003615 
L 433.615379 89.181262 
L 432.827764 88.373999 
L 432.029869 87.582026 
L 431.22189 86.805539 
L 430.404028 86.044731 
L 429.576485 85.29979 
L 428.739467 84.570901 
L 427.893182 83.858245 
L 427.037838 83.161999 
L 426.173649 82.482335 
L 425.300829 81.819421 
L 424.419594 81.173423 
L 423.530162 80.5445 
L 422.632755 79.932808 
L 421.727594 79.338499 
L 420.814904 78.76172 
L 419.894912 78.202615 
L 418.967846 77.661322 
L 418.033934 77.137974 
L 417.09341 76.632703 
L 416.146507 76.145634 
L 415.193458 75.676886 
L 414.234501 75.226576 
L 413.269872 74.794817 
L 412.299813 74.381714 
L 411.324562 73.987371 
L 410.344362 73.611886 
L 409.359456 73.25535 
L 408.370088 72.917854 
L 407.376504 72.59948 
L 406.378949 72.300307 
L 405.377672 72.02041 
L 404.37292 71.759858 
L 403.364942 71.518715 
L 402.35399 71.297042 
L 401.340312 71.094893 
L 400.324161 70.912319 
L 399.305789 70.749365 
L 398.285448 70.60607 
L 397.263391 70.482472 
L 396.239872 70.3786 
L 395.215144 70.29448 
L 394.189461 70.230133 
L 393.163079 70.185575 
L 392.136251 70.160817 
L 391.109231 70.155865 
L 390.082276 70.17072 
L 389.055639 70.205379 
L 388.029574 70.259834 
L 387.004337 70.334069 
L 385.980182 70.428068 
L 384.957362 70.541807 
L 383.936131 70.675258 
L 382.916743 70.828387 
L 381.89945 71.001156 
L 380.884504 71.193524 
L 379.872158 71.405441 
L 378.862661 71.636856 
L 377.856266 71.887711 
L 376.85322 72.157944 
L 375.853773 72.447488 
L 374.858172 72.756271 
L 373.866665 73.084217 
L 372.879498 73.431244 
L 371.896914 73.797265 
L 370.919159 74.182192 
L 369.946474 74.585927 
L 368.9791 75.008371 
L 368.017277 75.449419 
L 367.061245 75.908962 
L 366.111239 76.386886 
L 365.167496 76.883071 
L 364.230249 77.397397 
L 363.299731 77.929733 
L 362.376173 78.47995 
L 361.459804 79.047909 
L 360.55085 79.633471 
L 359.649538 80.23649 
L 358.756091 80.856817 
L 357.87073 81.494297 
L 356.993675 82.148774 
L 356.125144 82.820083 
L 355.265351 83.50806 
L 354.41451 84.212533 
L 353.572833 84.933328 
L 352.740527 85.670266 
L 351.917799 86.423163 
L 351.104853 87.191835 
L 350.301891 87.976089 
L 349.509111 88.775732 
L 348.726711 89.590565 
L 347.954885 90.420386 
L 347.193823 91.264989 
L 346.443715 92.124165 
L 345.704746 92.997701 
L 344.9771 93.88538 
L 344.260957 94.786982 
L 343.556495 95.702284 
L 342.863889 96.631058 
L 342.183309 97.573075 
L 341.514926 98.5281 
L 340.858905 99.495897 
L 340.215407 100.476226 
L 339.584594 101.468843 
L 338.966622 102.473503 
L 338.361642 103.489956 
L 337.769807 104.517951 
L 337.191262 105.557233 
L 336.626151 106.607543 
L 336.074614 107.668621 
L 335.536788 108.740205 
L 335.012805 109.822028 
L 334.502797 110.913822 
L 334.00689 112.015317 
L 333.525206 113.126239 
L 333.057865 114.246313 
L 332.604983 115.375261 
L 332.166672 116.512804 
L 331.74304 117.658658 
L 331.334194 118.81254 
L 330.940234 119.974164 
L 330.561258 121.143242 
L 330.19736 122.319484 
L 329.84863 123.502598 
L 329.515155 124.692291 
L 329.197017 125.888267 
L 328.894296 127.090231 
L 328.607066 128.297884 
L 328.335398 129.510926 
L 328.07936 130.729058 
L 327.839016 131.951976 
L 327.614424 133.179378 
L 327.405641 134.410959 
L 327.212719 135.646414 
L 327.035705 136.885436 
L 326.874643 138.127718 
L 326.729574 139.372953 
L 326.600532 140.620831 
L 326.487551 141.871043 
L 326.390658 143.123279 
L 326.309876 144.377228 
L 326.245227 145.63258 
L 326.196727 146.889023 
L 326.164386 148.146245 
L 326.148214 149.403936 
L 326.148214 150.661782 
L 326.164386 151.919472 
L 326.196727 153.176695 
L 326.245227 154.433138 
L 326.309876 155.688489 
L 326.390658 156.942439 
L 326.487551 158.194675 
L 326.600532 159.444887 
L 326.729574 160.692765 
L 326.874643 161.937999 
L 327.035705 163.180282 
L 327.212719 164.419304 
L 327.405641 165.654759 
L 327.614424 166.88634 
L 327.839016 168.113742 
L 328.07936 169.33666 
L 328.335398 170.554792 
L 328.607066 171.767834 
L 328.894296 172.975487 
L 329.197017 174.177451 
L 329.515155 175.373427 
L 329.84863 176.56312 
L 330.19736 177.746234 
L 330.561258 178.922475 
L 330.940234 180.091553 
L 331.334194 181.253177 
L 331.74304 182.40706 
L 332.166672 183.552914 
L 332.604983 184.690456 
L 333.057865 185.819404 
L 333.525206 186.939478 
L 334.00689 188.0504 
L 334.502797 189.151895 
L 335.012805 190.24369 
L 335.536788 191.325513 
L 336.074614 192.397096 
L 336.626151 193.458175 
L 337.191262 194.508485 
L 337.769807 195.547766 
L 338.361642 196.575761 
L 338.966622 197.592215 
L 339.584594 198.596875 
L 340.215407 199.589492 
L 340.858905 200.569821 
L 341.514926 201.537618 
L 342.183309 202.492643 
L 342.863889 203.434659 
L 343.556495 204.363434 
L 344.260957 205.278735 
L 344.9771 206.180337 
L 345.704746 207.068017 
L 346.443715 207.941552 
L 347.193823 208.800729 
L 347.954885 209.645332 
L 348.726711 210.475153 
L 349.509111 211.289986 
L 350.301891 212.089628 
L 351.104853 212.873883 
L 351.917799 213.642554 
L 352.740527 214.395452 
L 353.572833 215.13239 
L 354.41451 215.853185 
L 355.265351 216.557658 
L 356.125144 217.245634 
L 356.993675 217.916944 
L 357.87073 218.57142 
L 358.756091 219.208901 
L 359.649538 219.829228 
L 360.55085 220.432247 
L 361.459804 221.017809 
L 362.376173 221.585768 
L 363.299731 222.135984 
L 364.230249 222.668321 
L 365.167496 223.182646 
L 366.111239 223.678832 
L 367.061245 224.156756 
L 368.017277 224.616298 
L 368.9791 225.057347 
L 369.946474 225.479791 
L 370.919159 225.883526 
L 371.896914 226.268452 
L 372.879498 226.634474 
L 373.866665 226.981501 
L 374.858172 227.309446 
L 375.853773 227.618229 
L 376.85322 227.907773 
L 377.856266 228.178006 
L 378.862661 228.428861 
L 379.872158 228.660276 
L 380.884504 228.872194 
L 381.89945 229.064561 
L 382.916743 229.237331 
L 383.936131 229.39046 
L 384.957362 229.52391 
L 385.980182 229.637649 
L 387.004337 229.731648 
L 388.029574 229.805884 
L 389.055639 229.860338 
L 390.082276 229.894997 
L 391.109231 229.909853 
L 392.136251 229.904901 
L 393.163079 229.880143 
L 394.189461 229.835585 
L 395.215144 229.771238 
L 396.239872 229.687118 
L 397.263391 229.583246 
L 398.285448 229.459647 
L 399.305789 229.316353 
L 400.324161 229.153399 
L 401.340312 228.970824 
L 402.35399 228.768676 
L 403.364942 228.547003 
L 404.37292 228.30586 
L 405.377672 228.045308 
L 406.378949 227.765411 
L 407.376504 227.466238 
L 408.370088 227.147864 
L 409.359456 226.810367 
L 410.344362 226.453832 
L 411.324562 226.078346 
L 412.299813 225.684003 
L 413.269872 225.270901 
L 414.234501 224.839141 
L 415.193458 224.388832 
L 416.146507 223.920084 
L 417.09341 223.433014 
L 418.033934 222.927743 
L 418.967846 222.404396 
L 419.894912 221.863103 
L 420.814904 221.303998 
L 421.727594 220.727219 
L 422.632755 220.13291 
L 423.530162 219.521218 
L 424.419594 218.892295 
L 425.300829 218.246297 
L 426.173649 217.583383 
L 427.037838 216.903719 
L 427.893182 216.207472 
L 428.739467 215.494816 
L 429.576485 214.765927 
L 430.404028 214.020987 
L 431.22189 213.260178 
L 432.029869 212.483691 
L 432.827764 211.691718 
L 433.615379 210.884455 
L 434.392516 210.062103 
L 435.158984 209.224865 
L 435.914592 208.372949 
L 436.659154 207.506566 
L 437.392484 206.625931 
L 438.114401 205.731263 
L 438.824725 204.822783 
L 439.523281 203.900716 
L 440.209895 202.965292 
L 440.884397 202.016742 
L 441.54662 201.055301 
L 442.1964 200.081208 
L 442.833575 199.094704 
L 443.457987 198.096034 
L 444.069482 197.085446 
L 444.667908 196.063191 
L 445.253116 195.02952 
L 445.824962 193.984692 
L 446.383303 192.928965 
L 446.928002 191.862601 
L 447.458922 190.785864 
L 447.975934 189.699022 
L 448.478907 188.602343 
L 448.967718 187.496101 
L 449.442245 186.380568 
L 449.902371 185.256022 
L 450.347981 184.122742 
L 450.778966 182.981008 
L 451.195217 181.831104 
L 451.596633 180.673315 
L 451.983113 179.507928 
L 452.354561 178.335232 
L 452.710886 177.155517 
L 453.051999 175.969077 
L 453.377816 174.776206 
L 453.688255 173.577199 
L 453.98324 172.372353 
L 454.262698 171.161968 
L 454.526559 169.946343 
L 454.774758 168.72578 
L 455.007233 167.500582 
L 455.223927 166.271053 
L 455.424785 165.037497 
L 455.609759 163.80022 
L 455.778802 162.559529 
L 455.931873 161.315732 
L 456.068933 160.069137 
L 456.189948 158.820053 
L 456.294889 157.56879 
L 456.383729 156.315659 
L 456.456446 155.060969 
L 456.513023 153.805033 
L 456.553444 152.548161 
L 456.577702 151.290666 
L 456.585788 150.032859 
z
" clip-path="url(#p2bf8f00b57)" style="fill: #0b8457; opacity: 0.1; stroke: #0b8457; stroke-linejoin: miter"/>
   </g>
   <g id="matplotlib.axis_3">
    <g id="xtick_6">
     <g id="line2d_16">
      <g>
       <use xlink:href="#m9e47a44436" x="299.131267" y="246.879318" style="fill: #8b949e; stroke: #8b949e; stroke-width: 0.8"/>
      </g>
     </g>
     <g id="text_15">
      <!-- −2 -->
      <g style="fill: #8b949e" transform="translate(293.971502 259.198224) scale(0.07 -0.07)">
       <use xlink:href="#DejaVuSans-2212"/>
       <use xlink:href="#DejaVuSans-32" transform="translate(83.789062 0)"/>
      </g>
     </g>
    </g>
    <g id="xtick_7">
     <g id="line2d_17">
      <g>
       <use xlink:href="#m9e47a44436" x="345.248629" y="246.879318" style="fill: #8b949e; stroke: #8b949e; stroke-width: 0.8"/>
      </g>
     </g>
     <g id="text_16">
      <!-- −1 -->
      <g style="fill: #8b949e" transform="translate(340.088863 259.198224) scale(0.07 -0.07)">
       <use xlink:href="#DejaVuSans-2212"/>
       <use xlink:href="#DejaVuSans-31" transform="translate(83.789062 0)"/>
      </g>
     </g>
    </g>
    <g id="xtick_8">
     <g id="line2d_18">
      <g>
       <use xlink:href="#m9e47a44436" x="391.36599" y="246.879318" style="fill: #8b949e; stroke: #8b949e; stroke-width: 0.8"/>
      </g>
     </g>
     <g id="text_17">
      <!-- 0 -->
      <g style="fill: #8b949e" transform="translate(389.139115 259.198224) scale(0.07 -0.07)">
       <use xlink:href="#DejaVuSans-30"/>
      </g>
     </g>
    </g>
    <g id="xtick_9">
     <g id="line2d_19">
      <g>
       <use xlink:href="#m9e47a44436" x="437.483351" y="246.879318" style="fill: #8b949e; stroke: #8b949e; stroke-width: 0.8"/>
      </g>
     </g>
     <g id="text_18">
      <!-- 1 -->
      <g style="fill: #8b949e" transform="translate(435.256476 259.198224) scale(0.07 -0.07)">
       <use xlink:href="#DejaVuSans-31"/>
      </g>
     </g>
    </g>
    <g id="xtick_10">
     <g id="line2d_20">
      <g>
       <use xlink:href="#m9e47a44436" x="483.600713" y="246.879318" style="fill: #8b949e; stroke: #8b949e; stroke-width: 0.8"/>
      </g>
     </g>
     <g id="text_19">
      <!-- 2 -->
      <g style="fill: #8b949e" transform="translate(481.373838 259.198224) scale(0.07 -0.07)">
       <use xlink:href="#DejaVuSans-32"/>
      </g>
     </g>
    </g>
   </g>
   <g id="matplotlib.axis_4">
    <g id="ytick_6">
     <g id="line2d_21">
      <g>
       <use xlink:href="#m76edd6a8ad" x="294.519531" y="242.267582" style="fill: #8b949e; stroke: #8b949e; stroke-width: 0.8"/>
      </g>
     </g>
     <g id="text_20">
      <!-- −2 -->
      <g style="fill: #8b949e" transform="translate(277.2 244.927035) scale(0.07 -0.07)">
       <use xlink:href="#DejaVuSans-2212"/>
       <use xlink:href="#DejaVuSans-32" transform="translate(83.789062 0)"/>
      </g>
     </g>
    </g>
    <g id="ytick_7">
     <g id="line2d_22">
      <g>
       <use xlink:href="#m76edd6a8ad" x="294.519531" y="196.15022" style="fill: #8b949e; stroke: #8b949e; stroke-width: 0.8"/>
      </g>
     </g>
     <g id="text_21">
      <!-- −1 -->
      <g style="fill: #8b949e" transform="translate(277.2 198.809673) scale(0.07 -0.07)">
       <use xlink:href="#DejaVuSans-2212"/>
       <use xlink:href="#DejaVuSans-31" transform="translate(83.789062 0)"/>
      </g>
     </g>
    </g>
    <g id="ytick_8">
     <g id="line2d_23">
      <g>
       <use xlink:href="#m76edd6a8ad" x="294.519531" y="150.032859" style="fill: #8b949e; stroke: #8b949e; stroke-width: 0.8"/>
      </g>
     </g>
     <g id="text_22">
      <!-- 0 -->
      <g style="fill: #8b949e" transform="translate(283.065781 152.692312) scale(0.07 -0.07)">
       <use xlink:href="#DejaVuSans-30"/>
      </g>
     </g>
    </g>
    <g id="ytick_9">
     <g id="line2d_24">
      <g>
       <use xlink:href="#m76edd6a8ad" x="294.519531" y="103.915497" style="fill: #8b949e; stroke: #8b949e; stroke-width: 0.8"/>
      </g>
     </g>
     <g id="text_23">
      <!-- 1 -->
      <g style="fill: #8b949e" transform="translate(283.065781 106.574951) scale(0.07 -0.07)">
       <use xlink:href="#DejaVuSans-31"/>
      </g>
     </g>
    </g>
    <g id="ytick_10">
     <g id="line2d_25">
      <g>
       <use xlink:href="#m76edd6a8ad" x="294.519531" y="57.798136" style="fill: #8b949e; stroke: #8b949e; stroke-width: 0.8"/>
      </g>
     </g>
     <g id="text_24">
      <!-- 2 -->
      <g style="fill: #8b949e" transform="translate(283.065781 60.457589) scale(0.07 -0.07)">
       <use xlink:href="#DejaVuSans-32"/>
      </g>
     </g>
    </g>
   </g>
   <g id="text_25">
    <!-- e1 -->
    <g style="fill: #24292f" transform="translate(466.718032 147.726991) scale(0.11 -0.11)">
     <use xlink:href="#DejaVuSans-65"/>
     <use xlink:href="#DejaVuSans-31" transform="translate(61.523438 0)"/>
    </g>
   </g>
   <g id="text_26">
    <!-- e2 -->
    <g style="fill: #24292f" transform="translate(393.671858 58.264064) scale(0.11 -0.11)">
     <use xlink:href="#DejaVuSans-65"/>
     <use xlink:href="#DejaVuSans-32" transform="translate(61.523438 0)"/>
    </g>
   </g>
   <g id="text_27">
    <!-- ellipse -->
    <g style="fill: #57606a" transform="translate(376.071732 292.836417) scale(0.095 -0.095)">
     <defs>
      <path id="DejaVuSans-70" d="M 1159 525 
L 1159 -1331 
L 581 -1331 
L 581 3500 
L 1159 3500 
L 1159 2969 
Q 1341 3281 1617 3432 
Q 1894 3584 2278 3584 
Q 2916 3584 3314 3078 
Q 3713 2572 3713 1747 
Q 3713 922 3314 415 
Q 2916 -91 2278 -91 
Q 1894 -91 1617 61 
Q 1341 213 1159 525 
z
M 3116 1747 
Q 3116 2381 2855 2742 
Q 2594 3103 2138 3103 
Q 1681 3103 1420 2742 
Q 1159 2381 1159 1747 
Q 1159 1113 1420 752 
Q 1681 391 2138 391 
Q 2594 391 2855 752 
Q 3116 1113 3116 1747 
z
" transform="scale(0.015625)"/>
     </defs>
     <use xlink:href="#DejaVuSans-65"/>
     <use xlink:href="#DejaVuSans-6c" transform="translate(61.523438 0)"/>
     <use xlink:href="#DejaVuSans-6c" transform="translate(89.306641 0)"/>
     <use xlink:href="#DejaVuSans-69" transform="translate(117.089844 0)"/>
     <use xlink:href="#DejaVuSans-70" transform="translate(144.873047 0)"/>
     <use xlink:href="#DejaVuSans-73" transform="translate(208.349609 0)"/>
     <use xlink:href="#DejaVuSans-65" transform="translate(260.449219 0)"/>
    </g>
    <!-- ||e1||=sqrt2, ||e2||=sqrt3,  e1 _|_ e2 -->
    <g style="fill: #57606a" transform="translate(305.252943 303.524214) scale(0.095 -0.095)">
     <defs>
      <path id="DejaVuSans-71" d="M 947 1747 
Q 947 1113 1208 752 
Q 1469 391 1925 391 
Q 2381 391 2643 752 
Q 2906 1113 2906 1747 
Q 2906 2381 2643 2742 
Q 2381 3103 1925 3103 
Q 1469 3103 1208 2742 
Q 947 2381 947 1747 
z
M 2906 525 
Q 2725 213 2448 61 
Q 2172 -91 1784 -91 
Q 1150 -91 751 415 
Q 353 922 353 1747 
Q 353 2572 751 3078 
Q 1150 3584 1784 3584 
Q 2172 3584 2448 3432 
Q 2725 3281 2906 2969 
L 2906 3500 
L 3481 3500 
L 3481 -1331 
L 2906 -1331 
L 2906 525 
z
" transform="scale(0.015625)"/>
      <path id="DejaVuSans-33" d="M 2597 2516 
Q 3050 2419 3304 2112 
Q 3559 1806 3559 1356 
Q 3559 666 3084 287 
Q 2609 -91 1734 -91 
Q 1441 -91 1130 -33 
Q 819 25 488 141 
L 488 750 
Q 750 597 1062 519 
Q 1375 441 1716 441 
Q 2309 441 2620 675 
Q 2931 909 2931 1356 
Q 2931 1769 2642 2001 
Q 2353 2234 1838 2234 
L 1294 2234 
L 1294 2753 
L 1863 2753 
Q 2328 2753 2575 2939 
Q 2822 3125 2822 3475 
Q 2822 3834 2567 4026 
Q 2313 4219 1838 4219 
Q 1578 4219 1281 4162 
Q 984 4106 628 3988 
L 628 4550 
Q 988 4650 1302 4700 
Q 1616 4750 1894 4750 
Q 2613 4750 3031 4423 
Q 3450 4097 3450 3541 
Q 3450 3153 3228 2886 
Q 3006 2619 2597 2516 
z
" transform="scale(0.015625)"/>
     </defs>
     <use xlink:href="#DejaVuSans-7c"/>
     <use xlink:href="#DejaVuSans-7c" transform="translate(33.691406 0)"/>
     <use xlink:href="#DejaVuSans-65" transform="translate(67.382812 0)"/>
     <use xlink:href="#DejaVuSans-31" transform="translate(128.90625 0)"/>
     <use xlink:href="#DejaVuSans-7c" transform="translate(192.529297 0)"/>
     <use xlink:href="#DejaVuSans-7c" transform="translate(226.220703 0)"/>
     <use xlink:href="#DejaVuSans-3d" transform="translate(259.912109 0)"/>
     <use xlink:href="#DejaVuSans-73" transform="translate(343.701172 0)"/>
     <use xlink:href="#DejaVuSans-71" transform="translate(395.800781 0)"/>
     <use xlink:href="#DejaVuSans-72" transform="translate(459.277344 0)"/>
     <use xlink:href="#DejaVuSans-74" transform="translate(500.390625 0)"/>
     <use xlink:href="#DejaVuSans-32" transform="translate(539.599609 0)"/>
     <use xlink:href="#DejaVuSans-2c" transform="translate(603.222656 0)"/>
     <use xlink:href="#DejaVuSans-20" transform="translate(635.009766 0)"/>
     <use xlink:href="#DejaVuSans-7c" transform="translate(666.796875 0)"/>
     <use xlink:href="#DejaVuSans-7c" transform="translate(700.488281 0)"/>
     <use xlink:href="#DejaVuSans-65" transform="translate(734.179688 0)"/>
     <use xlink:href="#DejaVuSans-32" transform="translate(795.703125 0)"/>
     <use xlink:href="#DejaVuSans-7c" transform="translate(859.326172 0)"/>
     <use xlink:href="#DejaVuSans-7c" transform="translate(893.017578 0)"/>
     <use xlink:href="#DejaVuSans-3d" transform="translate(926.708984 0)"/>
     <use xlink:href="#DejaVuSans-73" transform="translate(1010.498047 0)"/>
     <use xlink:href="#DejaVuSans-71" transform="translate(1062.597656 0)"/>
     <use xlink:href="#DejaVuSans-72" transform="translate(1126.074219 0)"/>
     <use xlink:href="#DejaVuSans-74" transform="translate(1167.1875 0)"/>
     <use xlink:href="#DejaVuSans-33" transform="translate(1206.396484 0)"/>
     <use xlink:href="#DejaVuSans-2c" transform="translate(1270.019531 0)"/>
     <use xlink:href="#DejaVuSans-20" transform="translate(1301.806641 0)"/>
     <use xlink:href="#DejaVuSans-20" transform="translate(1333.59375 0)"/>
     <use xlink:href="#DejaVuSans-65" transform="translate(1365.380859 0)"/>
     <use xlink:href="#DejaVuSans-31" transform="translate(1426.904297 0)"/>
     <use xlink:href="#DejaVuSans-20" transform="translate(1490.527344 0)"/>
     <use xlink:href="#DejaVuSans-5f" transform="translate(1522.314453 0)"/>
     <use xlink:href="#DejaVuSans-7c" transform="translate(1572.314453 0)"/>
     <use xlink:href="#DejaVuSans-5f" transform="translate(1606.005859 0)"/>
     <use xlink:href="#DejaVuSans-20" transform="translate(1656.005859 0)"/>
     <use xlink:href="#DejaVuSans-65" transform="translate(1687.792969 0)"/>
     <use xlink:href="#DejaVuSans-32" transform="translate(1749.316406 0)"/>
    </g>
   </g>
   <g id="text_28">
    <!-- M = diag(1/2, 1/3) -->
    <g transform="translate(336.577553 43.1864) scale(0.12 -0.12)">
     <defs>
      <path id="DejaVuSans-67" d="M 2906 1791 
Q 2906 2416 2648 2759 
Q 2391 3103 1925 3103 
Q 1463 3103 1205 2759 
Q 947 2416 947 1791 
Q 947 1169 1205 825 
Q 1463 481 1925 481 
Q 2391 481 2648 825 
Q 2906 1169 2906 1791 
z
M 3481 434 
Q 3481 -459 3084 -895 
Q 2688 -1331 1869 -1331 
Q 1566 -1331 1297 -1286 
Q 1028 -1241 775 -1147 
L 775 -588 
Q 1028 -725 1275 -790 
Q 1522 -856 1778 -856 
Q 2344 -856 2625 -561 
Q 2906 -266 2906 331 
L 2906 616 
Q 2728 306 2450 153 
Q 2172 0 1784 0 
Q 1141 0 747 490 
Q 353 981 353 1791 
Q 353 2603 747 3093 
Q 1141 3584 1784 3584 
Q 2172 3584 2450 3431 
Q 2728 3278 2906 2969 
L 2906 3500 
L 3481 3500 
L 3481 434 
z
" transform="scale(0.015625)"/>
      <path id="DejaVuSans-2f" d="M 1625 4666 
L 2156 4666 
L 531 -594 
L 0 -594 
L 1625 4666 
z
" transform="scale(0.015625)"/>
     </defs>
     <use xlink:href="#DejaVuSans-4d"/>
     <use xlink:href="#DejaVuSans-20" transform="translate(86.279297 0)"/>
     <use xlink:href="#DejaVuSans-3d" transform="translate(118.066406 0)"/>
     <use xlink:href="#DejaVuSans-20" transform="translate(201.855469 0)"/>
     <use xlink:href="#DejaVuSans-64" transform="translate(233.642578 0)"/>
     <use xlink:href="#DejaVuSans-69" transform="translate(297.119141 0)"/>
     <use xlink:href="#DejaVuSans-61" transform="translate(324.902344 0)"/>
     <use xlink:href="#DejaVuSans-67" transform="translate(386.181641 0)"/>
     <use xlink:href="#DejaVuSans-28" transform="translate(449.658203 0)"/>
     <use xlink:href="#DejaVuSans-31" transform="translate(488.671875 0)"/>
     <use xlink:href="#DejaVuSans-2f" transform="translate(552.294922 0)"/>
     <use xlink:href="#DejaVuSans-32" transform="translate(585.986328 0)"/>
     <use xlink:href="#DejaVuSans-2c" transform="translate(649.609375 0)"/>
     <use xlink:href="#DejaVuSans-20" transform="translate(681.396484 0)"/>
     <use xlink:href="#DejaVuSans-31" transform="translate(713.183594 0)"/>
     <use xlink:href="#DejaVuSans-2f" transform="translate(776.806641 0)"/>
     <use xlink:href="#DejaVuSans-33" transform="translate(810.498047 0)"/>
     <use xlink:href="#DejaVuSans-29" transform="translate(874.121094 0)"/>
    </g>
   </g>
   <g id="line2d_26">
    <path d="M 456.585788 150.032859 
L 456.456446 145.004748 
L 456.068933 139.996581 
L 455.424785 135.028221 
L 454.526559 130.119375 
L 453.377816 125.289512 
L 451.983113 120.55779 
L 450.347981 115.942976 
L 448.478907 111.463374 
L 446.383303 107.136752 
L 444.069482 102.980271 
L 441.54662 99.010417 
L 438.824725 95.242935 
L 435.914592 91.692769 
L 432.827764 88.373999 
L 429.576485 85.29979 
L 426.173649 82.482335 
L 423.530162 80.5445 
L 420.814904 78.76172 
L 418.033934 77.137974 
L 415.193458 75.676886 
L 412.299813 74.381714 
L 409.359456 73.25535 
L 406.378949 72.300307 
L 403.364942 71.518715 
L 400.324161 70.912319 
L 397.263391 70.482472 
L 394.189461 70.230133 
L 391.109231 70.155865 
L 388.029574 70.259834 
L 384.957362 70.541807 
L 381.89945 71.001156 
L 378.862661 71.636856 
L 375.853773 72.447488 
L 372.879498 73.431244 
L 369.946474 74.585927 
L 367.061245 75.908962 
L 364.230249 77.397397 
L 361.459804 79.047909 
L 358.756091 80.856817 
L 356.125144 82.820083 
L 352.740527 85.670266 
L 349.509111 88.775732 
L 346.443715 92.124165 
L 343.556495 95.702284 
L 340.858905 99.495897 
L 338.361642 103.489956 
L 336.074614 107.668621 
L 334.00689 112.015317 
L 332.166672 116.512804 
L 330.561258 121.143242 
L 329.197017 125.888267 
L 328.07936 130.729058 
L 327.212719 135.646414 
L 326.600532 140.620831 
L 326.245227 145.63258 
L 326.148214 150.661782 
L 326.309876 155.688489 
L 326.729574 160.692765 
L 327.405641 165.654759 
L 328.335398 170.554792 
L 329.515155 175.373427 
L 330.940234 180.091553 
L 332.604983 184.690456 
L 334.502797 189.151895 
L 336.626151 193.458175 
L 338.966622 197.592215 
L 341.514926 201.537618 
L 344.260957 205.278735 
L 347.193823 208.800729 
L 350.301891 212.089628 
L 353.572833 215.13239 
L 356.993675 217.916944 
L 359.649538 219.829228 
L 362.376173 221.585768 
L 365.167496 223.182646 
L 368.017277 224.616298 
L 370.919159 225.883526 
L 373.866665 226.981501 
L 376.85322 227.907773 
L 379.872158 228.660276 
L 382.916743 229.237331 
L 385.980182 229.637649 
L 389.055639 229.860338 
L 392.136251 229.904901 
L 395.215144 229.771238 
L 398.285448 229.459647 
L 401.340312 228.970824 
L 404.37292 228.30586 
L 407.376504 227.466238 
L 410.344362 226.453832 
L 413.269872 225.270901 
L 416.146507 223.920084 
L 418.967846 222.404396 
L 421.727594 220.727219 
L 424.419594 218.892295 
L 427.037838 216.903719 
L 430.404028 214.020987 
L 433.615379 210.884455 
L 436.659154 207.506566 
L 439.523281 203.900716 
L 442.1964 200.081208 
L 444.667908 196.063191 
L 446.928002 191.862601 
L 448.967718 187.496101 
L 450.778966 182.981008 
L 452.354561 178.335232 
L 453.688255 173.577199 
L 454.774758 168.72578 
L 455.609759 163.80022 
L 456.189948 158.820053 
L 456.513023 153.805033 
L 456.585788 150.032859 
L 456.585788 150.032859 
" clip-path="url(#p2bf8f00b57)" style="fill: none; stroke: #0b8457; stroke-width: 2.3; stroke-linecap: square"/>
   </g>
   <g id="patch_8">
    <path d="M 391.36599 150.032859 
Q 423.975889 150.032859 454.34972 150.032859 
" clip-path="url(#p2bf8f00b57)" style="fill: none; stroke: #57606a; stroke-width: 2; stroke-linecap: round"/>
    <path d="M 448.74972 147.232859 
L 454.34972 150.032859 
L 448.74972 152.832859 
z
" clip-path="url(#p2bf8f00b57)" style="fill: #57606a; stroke: #57606a; stroke-width: 2; stroke-linecap: round"/>
   </g>
   <g id="patch_9">
    <path d="M 391.36599 150.032859 
Q 391.36599 110.094052 391.36599 72.391314 
" clip-path="url(#p2bf8f00b57)" style="fill: none; stroke: #57606a; stroke-width: 2; stroke-linecap: round"/>
    <path d="M 388.56599 77.991314 
L 391.36599 72.391314 
L 394.16599 77.991314 
z
" clip-path="url(#p2bf8f00b57)" style="fill: #57606a; stroke: #57606a; stroke-width: 2; stroke-linecap: round"/>
   </g>
   <g id="PathCollection_2">
    <g clip-path="url(#p2bf8f00b57)">
     <use xlink:href="#m850d494117" x="391.36599" y="150.032859" style="fill: #24292f; stroke: #24292f"/>
    </g>
   </g>
  </g>
  <g id="axes_3">
   <g id="patch_10">
    <path d="M 564.519531 246.879318 
L 758.212449 246.879318 
L 758.212449 53.1864 
L 564.519531 53.1864 
z
" style="fill: #ffffff"/>
   </g>
   <g id="line2d_27">
    <path d="M 564.519531 150.032859 
L 758.212449 150.032859 
" clip-path="url(#p8f418ca34b)" style="fill: none; stroke: #d0d7de; stroke-width: 0.8; stroke-linecap: square"/>
   </g>
   <g id="line2d_28">
    <path d="M 661.36599 246.879318 
L 661.36599 53.1864 
" clip-path="url(#p8f418ca34b)" style="fill: none; stroke: #d0d7de; stroke-width: 0.8; stroke-linecap: square"/>
   </g>
   <g id="patch_11">
    <path d="M 726.585788 150.032859 
L 725.627581 148.336215 
L 724.653439 146.639991 
L 723.663603 144.944609 
L 722.658319 143.250489 
L 721.637836 141.558051 
L 720.602407 139.867714 
L 719.55229 138.179898 
L 718.487743 136.495021 
L 717.409032 134.813501 
L 716.316424 133.135755 
L 715.21019 131.462199 
L 714.090603 129.793248 
L 712.957943 128.129316 
L 711.812489 126.470816 
L 710.654525 124.818158 
L 709.48434 123.171753 
L 708.302222 121.532008 
L 707.108465 119.899331 
L 705.903365 118.274127 
L 704.687222 116.656798 
L 703.460336 115.047745 
L 702.223011 113.447367 
L 700.975555 111.856062 
L 699.718277 110.274223 
L 698.451489 108.702244 
L 697.175504 107.140514 
L 695.89064 105.589419 
L 694.597214 104.049346 
L 693.295548 102.520675 
L 691.985964 101.003786 
L 690.668787 99.499055 
L 689.344344 98.006854 
L 688.012964 96.527555 
L 686.674975 95.061524 
L 685.33071 93.609124 
L 683.980503 92.170716 
L 682.624688 90.746656 
L 681.263602 89.337298 
L 679.897581 87.94299 
L 678.526965 86.564079 
L 677.152094 85.200906 
L 675.773308 83.853811 
L 674.390949 82.523125 
L 673.00536 81.209181 
L 671.616886 79.912303 
L 670.225869 78.632812 
L 668.832655 77.371028 
L 667.43759 76.127261 
L 666.041019 74.901821 
L 664.643289 73.695011 
L 663.244747 72.507132 
L 661.845738 71.338476 
L 660.44661 70.189335 
L 659.047711 69.059992 
L 657.649386 67.950729 
L 656.251983 66.86182 
L 654.855848 65.793535 
L 653.461327 64.74614 
L 652.068767 63.719893 
L 650.678512 62.715049 
L 649.290907 61.731858 
L 647.906296 60.770563 
L 646.525023 59.831403 
L 645.147431 58.914611 
L 643.77386 58.020413 
L 642.404651 57.149032 
L 641.040144 56.300684 
L 639.680678 55.475578 
L 638.326589 54.673921 
L 636.978213 53.89591 
L 635.635885 53.141738 
L 634.299937 52.411593 
L 632.9707 51.705655 
L 631.648505 51.0241 
L 630.333679 50.367096 
L 629.026549 49.734807 
L 627.727437 49.127389 
L 626.436667 48.544992 
L 625.154559 47.987762 
L 623.88143 47.455837 
L 622.617596 46.949348 
L 621.363371 46.468421 
L 620.119065 46.013175 
L 618.884988 45.583723 
L 617.661445 45.180172 
L 616.448739 44.802621 
L 615.247171 44.451165 
L 614.05704 44.12589 
L 612.87864 43.826878 
L 611.712264 43.554201 
L 610.5582 43.307929 
L 609.416736 43.088121 
L 608.288153 42.894833 
L 607.172733 42.728112 
L 606.070751 42.588 
L 604.98248 42.474531 
L 603.908192 42.387734 
L 602.848151 42.32763 
L 601.802621 42.294234 
L 600.771861 42.287555 
L 599.756127 42.307593 
L 598.755671 42.354345 
L 597.77074 42.427797 
L 596.801579 42.527933 
L 595.848428 42.654728 
L 594.911524 42.808149 
L 593.991099 42.988159 
L 593.087381 43.194713 
L 592.200595 43.427761 
L 591.330959 43.687243 
L 590.478691 43.973097 
L 589.644 44.28525 
L 588.827095 44.623626 
L 588.028178 44.988141 
L 587.247446 45.378704 
L 586.485093 45.795218 
L 585.74131 46.237581 
L 585.016279 46.705682 
L 584.31018 47.199405 
L 583.62319 47.718628 
L 582.955477 48.263223 
L 582.307209 48.833054 
L 581.678545 49.427979 
L 581.069641 50.047852 
L 580.480648 50.692519 
L 579.911713 51.361819 
L 579.362977 52.055587 
L 578.834575 52.773651 
L 578.326638 53.515832 
L 577.839293 54.281947 
L 577.372661 55.071806 
L 576.926857 55.885213 
L 576.501991 56.721965 
L 576.098169 57.581857 
L 575.715492 58.464673 
L 575.354053 59.370197 
L 575.013943 60.298202 
L 574.695246 61.248459 
L 574.398041 62.220732 
L 574.122402 63.21478 
L 573.868397 64.230357 
L 573.636089 65.26721 
L 573.425536 66.325083 
L 573.23679 67.403713 
L 573.069897 68.502834 
L 572.924899 69.622171 
L 572.801833 70.761448 
L 572.700728 71.920383 
L 572.621609 73.098687 
L 572.564497 74.296068 
L 572.529406 75.512231 
L 572.516343 76.746873 
L 572.525313 77.999687 
L 572.556312 79.270364 
L 572.609335 80.558588 
L 572.684366 81.86404 
L 572.781388 83.186396 
L 572.900377 84.525328 
L 573.041303 85.880504 
L 573.204131 87.251588 
L 573.388821 88.638241 
L 573.595327 90.040117 
L 573.823597 91.45687 
L 574.073576 92.888149 
L 574.345201 94.333598 
L 574.638405 95.792858 
L 574.953115 97.265569 
L 575.289253 98.751365 
L 575.646736 100.249877 
L 576.025475 101.760734 
L 576.425376 103.283561 
L 576.84634 104.817981 
L 577.288263 106.363613 
L 577.751034 107.920073 
L 578.23454 109.486977 
L 578.738661 111.063935 
L 579.263271 112.650556 
L 579.80824 114.246447 
L 580.373433 115.851212 
L 580.95871 117.464453 
L 581.563926 119.08577 
L 582.188931 120.714761 
L 582.833569 122.351022 
L 583.497682 123.994148 
L 584.181104 125.643731 
L 584.883666 127.299361 
L 585.605193 128.960629 
L 586.345507 130.627122 
L 587.104424 132.298427 
L 587.881755 133.97413 
L 588.677309 135.653815 
L 589.490888 137.337066 
L 590.32229 139.023465 
L 591.171309 140.712593 
L 592.037734 142.404034 
L 592.921351 144.097365 
L 593.82194 145.792169 
L 594.739279 147.488024 
L 595.673139 149.184511 
L 596.623289 150.881207 
L 597.589493 152.577693 
L 598.571513 154.273549 
L 599.569104 155.968352 
L 600.582019 157.661684 
L 601.610006 159.353124 
L 602.652812 161.042253 
L 603.710176 162.728652 
L 604.781838 164.411903 
L 605.867532 166.091588 
L 606.966987 167.76729 
L 608.079932 169.438596 
L 609.20609 171.105089 
L 610.345183 172.766356 
L 611.496927 174.421987 
L 612.661038 176.07157 
L 613.837226 177.714695 
L 615.0252 179.350957 
L 616.224666 180.979948 
L 617.435325 182.601265 
L 618.656878 184.214506 
L 619.889021 185.819271 
L 621.13145 187.415162 
L 622.383856 189.001783 
L 623.645928 190.578741 
L 624.917354 192.145644 
L 626.197818 193.702105 
L 627.487003 195.247737 
L 628.784589 196.782156 
L 630.090255 198.304984 
L 631.403676 199.815841 
L 632.724526 201.314353 
L 634.052479 202.800148 
L 635.387206 204.272859 
L 636.728374 205.73212 
L 638.075651 207.177569 
L 639.428704 208.608847 
L 640.787197 210.0256 
L 642.150793 211.427477 
L 643.519154 212.814129 
L 644.89194 214.185214 
L 646.268812 215.54039 
L 647.649427 216.879322 
L 649.033443 218.201678 
L 650.420518 219.50713 
L 651.810306 220.795354 
L 653.202465 222.066031 
L 654.596647 223.318845 
L 655.992509 224.553487 
L 657.389702 225.769649 
L 658.787882 226.967031 
L 660.186701 228.145335 
L 661.585813 229.304269 
L 662.98487 230.443547 
L 664.383525 231.562884 
L 665.781433 232.662004 
L 667.178245 233.740635 
L 668.573616 234.798508 
L 669.9672 235.835361 
L 671.358651 236.850938 
L 672.747624 237.844986 
L 674.133774 238.817259 
L 675.516759 239.767516 
L 676.896235 240.695521 
L 678.271859 241.601044 
L 679.643291 242.483861 
L 681.010191 243.343752 
L 682.37222 244.180505 
L 683.72904 244.993912 
L 685.080314 245.78377 
L 686.425708 246.549886 
L 687.764888 247.292067 
L 689.097521 248.010131 
L 690.423278 248.703899 
L 691.741829 249.373199 
L 693.052848 250.017866 
L 694.35601 250.637739 
L 695.650991 251.232664 
L 696.93747 251.802495 
L 698.215128 252.347089 
L 699.483649 252.866313 
L 700.742717 253.360036 
L 701.992021 253.828137 
L 703.231251 254.2705 
L 704.4601 254.687014 
L 705.678262 255.077577 
L 706.885436 255.442092 
L 708.081322 255.780468 
L 709.265625 256.092621 
L 710.438049 256.378475 
L 711.598305 256.637957 
L 712.746105 256.871004 
L 713.881163 257.077559 
L 715.0032 257.257569 
L 716.111935 257.41099 
L 717.207096 257.537784 
L 718.288409 257.63792 
L 719.355606 257.711373 
L 720.408424 257.758124 
L 721.446601 257.778163 
L 722.46988 257.771483 
L 723.478007 257.738087 
L 724.470731 257.677983 
L 725.447807 257.591186 
L 726.408993 257.477718 
L 727.354049 257.337606 
L 728.282742 257.170885 
L 729.194842 256.977597 
L 730.090122 256.757789 
L 730.96836 256.511516 
L 731.829339 256.23884 
L 732.672845 255.939827 
L 733.498668 255.614552 
L 734.306605 255.263096 
L 735.096454 254.885546 
L 735.86802 254.481995 
L 736.621111 254.052543 
L 737.355542 253.597297 
L 738.071128 253.11637 
L 738.767694 252.609881 
L 739.445067 252.077955 
L 740.103078 251.520725 
L 740.741564 250.938329 
L 741.360367 250.330911 
L 741.959334 249.698622 
L 742.538315 249.041618 
L 743.097169 248.360063 
L 743.635755 247.654125 
L 744.15394 246.92398 
L 744.651596 246.169808 
L 745.128599 245.391797 
L 745.584832 244.590139 
L 746.020181 243.765034 
L 746.434537 242.916686 
L 746.827799 242.045305 
L 747.199868 241.151107 
L 747.550654 240.234314 
L 747.880067 239.295154 
L 748.188028 238.33386 
L 748.474458 237.350668 
L 748.739289 236.345825 
L 748.982453 235.319578 
L 749.20389 234.272182 
L 749.403546 233.203897 
L 749.581371 232.114988 
L 749.737321 231.005725 
L 749.871357 229.876383 
L 749.983447 228.727242 
L 750.073561 227.558586 
L 750.141679 226.370706 
L 750.187782 225.163897 
L 750.21186 223.938457 
L 750.213906 222.69469 
L 750.193921 221.432905 
L 750.151909 220.153415 
L 750.08788 218.856537 
L 750.00185 217.542592 
L 749.893842 216.211907 
L 749.76388 214.864811 
L 749.611999 213.501639 
L 749.438234 212.122728 
L 749.24263 210.72842 
L 749.025235 209.319061 
L 748.786103 207.895002 
L 748.525293 206.456593 
L 748.24287 205.004194 
L 747.938904 203.538162 
L 747.613469 202.058863 
L 747.266648 200.566663 
L 746.898526 199.061932 
L 746.509194 197.545043 
L 746.098749 196.016372 
L 745.667292 194.476298 
L 745.214931 192.925204 
L 744.741777 191.363474 
L 744.247949 189.791494 
L 743.733568 188.209656 
L 743.198762 186.61835 
L 742.643663 185.017973 
L 742.06841 183.40892 
L 741.473145 181.791591 
L 740.858016 180.166386 
L 740.223174 178.533709 
L 739.568778 176.893965 
L 738.89499 175.24756 
L 738.201977 173.594902 
L 737.489911 171.936402 
L 736.758967 170.27247 
L 736.009329 168.603519 
L 735.241181 166.929963 
L 734.454713 165.252217 
L 733.650122 163.570697 
L 732.827606 161.88582 
L 731.98737 160.198004 
L 731.129621 158.507667 
L 730.254573 156.815228 
L 729.362442 155.121108 
L 728.45345 153.425726 
L 727.527822 151.729503 
L 726.585788 150.032859 
z
" clip-path="url(#p8f418ca34b)" style="fill: #d1242f; opacity: 0.1; stroke: #d1242f; stroke-linejoin: miter"/>
   </g>
   <g id="matplotlib.axis_5">
    <g id="xtick_11">
     <g id="line2d_29">
      <g>
       <use xlink:href="#m9e47a44436" x="569.131267" y="246.879318" style="fill: #8b949e; stroke: #8b949e; stroke-width: 0.8"/>
      </g>
     </g>
     <g id="text_29">
      <!-- −2 -->
      <g style="fill: #8b949e" transform="translate(563.971502 259.198224) scale(0.07 -0.07)">
       <use xlink:href="#DejaVuSans-2212"/>
       <use xlink:href="#DejaVuSans-32" transform="translate(83.789062 0)"/>
      </g>
     </g>
    </g>
    <g id="xtick_12">
     <g id="line2d_30">
      <g>
       <use xlink:href="#m9e47a44436" x="615.248629" y="246.879318" style="fill: #8b949e; stroke: #8b949e; stroke-width: 0.8"/>
      </g>
     </g>
     <g id="text_30">
      <!-- −1 -->
      <g style="fill: #8b949e" transform="translate(610.088863 259.198224) scale(0.07 -0.07)">
       <use xlink:href="#DejaVuSans-2212"/>
       <use xlink:href="#DejaVuSans-31" transform="translate(83.789062 0)"/>
      </g>
     </g>
    </g>
    <g id="xtick_13">
     <g id="line2d_31">
      <g>
       <use xlink:href="#m9e47a44436" x="661.36599" y="246.879318" style="fill: #8b949e; stroke: #8b949e; stroke-width: 0.8"/>
      </g>
     </g>
     <g id="text_31">
      <!-- 0 -->
      <g style="fill: #8b949e" transform="translate(659.139115 259.198224) scale(0.07 -0.07)">
       <use xlink:href="#DejaVuSans-30"/>
      </g>
     </g>
    </g>
    <g id="xtick_14">
     <g id="line2d_32">
      <g>
       <use xlink:href="#m9e47a44436" x="707.483351" y="246.879318" style="fill: #8b949e; stroke: #8b949e; stroke-width: 0.8"/>
      </g>
     </g>
     <g id="text_32">
      <!-- 1 -->
      <g style="fill: #8b949e" transform="translate(705.256476 259.198224) scale(0.07 -0.07)">
       <use xlink:href="#DejaVuSans-31"/>
      </g>
     </g>
    </g>
    <g id="xtick_15">
     <g id="line2d_33">
      <g>
       <use xlink:href="#m9e47a44436" x="753.600713" y="246.879318" style="fill: #8b949e; stroke: #8b949e; stroke-width: 0.8"/>
      </g>
     </g>
     <g id="text_33">
      <!-- 2 -->
      <g style="fill: #8b949e" transform="translate(751.373838 259.198224) scale(0.07 -0.07)">
       <use xlink:href="#DejaVuSans-32"/>
      </g>
     </g>
    </g>
   </g>
   <g id="matplotlib.axis_6">
    <g id="ytick_11">
     <g id="line2d_34">
      <g>
       <use xlink:href="#m76edd6a8ad" x="564.519531" y="242.267582" style="fill: #8b949e; stroke: #8b949e; stroke-width: 0.8"/>
      </g>
     </g>
     <g id="text_34">
      <!-- −2 -->
      <g style="fill: #8b949e" transform="translate(547.2 244.927035) scale(0.07 -0.07)">
       <use xlink:href="#DejaVuSans-2212"/>
       <use xlink:href="#DejaVuSans-32" transform="translate(83.789062 0)"/>
      </g>
     </g>
    </g>
    <g id="ytick_12">
     <g id="line2d_35">
      <g>
       <use xlink:href="#m76edd6a8ad" x="564.519531" y="196.15022" style="fill: #8b949e; stroke: #8b949e; stroke-width: 0.8"/>
      </g>
     </g>
     <g id="text_35">
      <!-- −1 -->
      <g style="fill: #8b949e" transform="translate(547.2 198.809673) scale(0.07 -0.07)">
       <use xlink:href="#DejaVuSans-2212"/>
       <use xlink:href="#DejaVuSans-31" transform="translate(83.789062 0)"/>
      </g>
     </g>
    </g>
    <g id="ytick_13">
     <g id="line2d_36">
      <g>
       <use xlink:href="#m76edd6a8ad" x="564.519531" y="150.032859" style="fill: #8b949e; stroke: #8b949e; stroke-width: 0.8"/>
      </g>
     </g>
     <g id="text_36">
      <!-- 0 -->
      <g style="fill: #8b949e" transform="translate(553.065781 152.692312) scale(0.07 -0.07)">
       <use xlink:href="#DejaVuSans-30"/>
      </g>
     </g>
    </g>
    <g id="ytick_14">
     <g id="line2d_37">
      <g>
       <use xlink:href="#m76edd6a8ad" x="564.519531" y="103.915497" style="fill: #8b949e; stroke: #8b949e; stroke-width: 0.8"/>
      </g>
     </g>
     <g id="text_37">
      <!-- 1 -->
      <g style="fill: #8b949e" transform="translate(553.065781 106.574951) scale(0.07 -0.07)">
       <use xlink:href="#DejaVuSans-31"/>
      </g>
     </g>
    </g>
    <g id="ytick_15">
     <g id="line2d_38">
      <g>
       <use xlink:href="#m76edd6a8ad" x="564.519531" y="57.798136" style="fill: #8b949e; stroke: #8b949e; stroke-width: 0.8"/>
      </g>
     </g>
     <g id="text_38">
      <!-- 2 -->
      <g style="fill: #8b949e" transform="translate(553.065781 60.457589) scale(0.07 -0.07)">
       <use xlink:href="#DejaVuSans-32"/>
      </g>
     </g>
    </g>
   </g>
   <g id="text_39">
    <!-- e1 -->
    <g style="fill: #24292f" transform="translate(736.718032 147.726991) scale(0.11 -0.11)">
     <use xlink:href="#DejaVuSans-65"/>
     <use xlink:href="#DejaVuSans-31" transform="translate(61.523438 0)"/>
    </g>
   </g>
   <g id="text_40">
    <!-- e2 -->
    <g style="fill: #24292f" transform="translate(663.671858 59.145494) scale(0.11 -0.11)">
     <use xlink:href="#DejaVuSans-65"/>
     <use xlink:href="#DejaVuSans-32" transform="translate(61.523438 0)"/>
    </g>
   </g>
   <g id="text_41">
    <!-- tilted ellipse -->
    <g style="fill: #57606a" transform="translate(632.260365 292.836417) scale(0.095 -0.095)">
     <use xlink:href="#DejaVuSans-74"/>
     <use xlink:href="#DejaVuSans-69" transform="translate(39.208984 0)"/>
     <use xlink:href="#DejaVuSans-6c" transform="translate(66.992188 0)"/>
     <use xlink:href="#DejaVuSans-74" transform="translate(94.775391 0)"/>
     <use xlink:href="#DejaVuSans-65" transform="translate(133.984375 0)"/>
     <use xlink:href="#DejaVuSans-64" transform="translate(195.507812 0)"/>
     <use xlink:href="#DejaVuSans-20" transform="translate(258.984375 0)"/>
     <use xlink:href="#DejaVuSans-65" transform="translate(290.771484 0)"/>
     <use xlink:href="#DejaVuSans-6c" transform="translate(352.294922 0)"/>
     <use xlink:href="#DejaVuSans-6c" transform="translate(380.078125 0)"/>
     <use xlink:href="#DejaVuSans-69" transform="translate(407.861328 0)"/>
     <use xlink:href="#DejaVuSans-70" transform="translate(435.644531 0)"/>
     <use xlink:href="#DejaVuSans-73" transform="translate(499.121094 0)"/>
     <use xlink:href="#DejaVuSans-65" transform="translate(551.220703 0)"/>
    </g>
    <!-- e1, e2 not orthogonal -->
    <g style="fill: #57606a" transform="translate(609.858178 303.474339) scale(0.095 -0.095)">
     <defs>
      <path id="DejaVuSans-6f" d="M 1959 3097 
Q 1497 3097 1228 2736 
Q 959 2375 959 1747 
Q 959 1119 1226 758 
Q 1494 397 1959 397 
Q 2419 397 2687 759 
Q 2956 1122 2956 1747 
Q 2956 2369 2687 2733 
Q 2419 3097 1959 3097 
z
M 1959 3584 
Q 2709 3584 3137 3096 
Q 3566 2609 3566 1747 
Q 3566 888 3137 398 
Q 2709 -91 1959 -91 
Q 1206 -91 779 398 
Q 353 888 353 1747 
Q 353 2609 779 3096 
Q 1206 3584 1959 3584 
z
" transform="scale(0.015625)"/>
      <path id="DejaVuSans-68" d="M 3513 2113 
L 3513 0 
L 2938 0 
L 2938 2094 
Q 2938 2591 2744 2837 
Q 2550 3084 2163 3084 
Q 1697 3084 1428 2787 
Q 1159 2491 1159 1978 
L 1159 0 
L 581 0 
L 581 4863 
L 1159 4863 
L 1159 2956 
Q 1366 3272 1645 3428 
Q 1925 3584 2291 3584 
Q 2894 3584 3203 3211 
Q 3513 2838 3513 2113 
z
" transform="scale(0.015625)"/>
     </defs>
     <use xlink:href="#DejaVuSans-65"/>
     <use xlink:href="#DejaVuSans-31" transform="translate(61.523438 0)"/>
     <use xlink:href="#DejaVuSans-2c" transform="translate(125.146484 0)"/>
     <use xlink:href="#DejaVuSans-20" transform="translate(156.933594 0)"/>
     <use xlink:href="#DejaVuSans-65" transform="translate(188.720703 0)"/>
     <use xlink:href="#DejaVuSans-32" transform="translate(250.244141 0)"/>
     <use xlink:href="#DejaVuSans-20" transform="translate(313.867188 0)"/>
     <use xlink:href="#DejaVuSans-6e" transform="translate(345.654297 0)"/>
     <use xlink:href="#DejaVuSans-6f" transform="translate(409.033203 0)"/>
     <use xlink:href="#DejaVuSans-74" transform="translate(470.214844 0)"/>
     <use xlink:href="#DejaVuSans-20" transform="translate(509.423828 0)"/>
     <use xlink:href="#DejaVuSans-6f" transform="translate(541.210938 0)"/>
     <use xlink:href="#DejaVuSans-72" transform="translate(602.392578 0)"/>
     <use xlink:href="#DejaVuSans-74" transform="translate(643.505859 0)"/>
     <use xlink:href="#DejaVuSans-68" transform="translate(682.714844 0)"/>
     <use xlink:href="#DejaVuSans-6f" transform="translate(746.09375 0)"/>
     <use xlink:href="#DejaVuSans-67" transform="translate(807.275391 0)"/>
     <use xlink:href="#DejaVuSans-6f" transform="translate(870.751953 0)"/>
     <use xlink:href="#DejaVuSans-6e" transform="translate(931.933594 0)"/>
     <use xlink:href="#DejaVuSans-61" transform="translate(995.3125 0)"/>
     <use xlink:href="#DejaVuSans-6c" transform="translate(1056.591797 0)"/>
    </g>
   </g>
   <g id="text_42">
    <!-- M off-diagonal (SPD) -->
    <g transform="translate(600.136928 43.1864) scale(0.12 -0.12)">
     <defs>
      <path id="DejaVuSans-66" d="M 2375 4863 
L 2375 4384 
L 1825 4384 
Q 1516 4384 1395 4259 
Q 1275 4134 1275 3809 
L 1275 3500 
L 2222 3500 
L 2222 3053 
L 1275 3053 
L 1275 0 
L 697 0 
L 697 3053 
L 147 3053 
L 147 3500 
L 697 3500 
L 697 3744 
Q 697 4328 969 4595 
Q 1241 4863 1831 4863 
L 2375 4863 
z
" transform="scale(0.015625)"/>
      <path id="DejaVuSans-2d" d="M 313 2009 
L 1997 2009 
L 1997 1497 
L 313 1497 
L 313 2009 
z
" transform="scale(0.015625)"/>
      <path id="DejaVuSans-53" d="M 3425 4513 
L 3425 3897 
Q 3066 4069 2747 4153 
Q 2428 4238 2131 4238 
Q 1616 4238 1336 4038 
Q 1056 3838 1056 3469 
Q 1056 3159 1242 3001 
Q 1428 2844 1947 2747 
L 2328 2669 
Q 3034 2534 3370 2195 
Q 3706 1856 3706 1288 
Q 3706 609 3251 259 
Q 2797 -91 1919 -91 
Q 1588 -91 1214 -16 
Q 841 59 441 206 
L 441 856 
Q 825 641 1194 531 
Q 1563 422 1919 422 
Q 2459 422 2753 634 
Q 3047 847 3047 1241 
Q 3047 1584 2836 1778 
Q 2625 1972 2144 2069 
L 1759 2144 
Q 1053 2284 737 2584 
Q 422 2884 422 3419 
Q 422 4038 858 4394 
Q 1294 4750 2059 4750 
Q 2388 4750 2728 4690 
Q 3069 4631 3425 4513 
z
" transform="scale(0.015625)"/>
      <path id="DejaVuSans-50" d="M 1259 4147 
L 1259 2394 
L 2053 2394 
Q 2494 2394 2734 2622 
Q 2975 2850 2975 3272 
Q 2975 3691 2734 3919 
Q 2494 4147 2053 4147 
L 1259 4147 
z
M 628 4666 
L 2053 4666 
Q 2838 4666 3239 4311 
Q 3641 3956 3641 3272 
Q 3641 2581 3239 2228 
Q 2838 1875 2053 1875 
L 1259 1875 
L 1259 0 
L 628 0 
L 628 4666 
z
" transform="scale(0.015625)"/>
      <path id="DejaVuSans-44" d="M 1259 4147 
L 1259 519 
L 2022 519 
Q 2988 519 3436 956 
Q 3884 1394 3884 2338 
Q 3884 3275 3436 3711 
Q 2988 4147 2022 4147 
L 1259 4147 
z
M 628 4666 
L 1925 4666 
Q 3281 4666 3915 4102 
Q 4550 3538 4550 2338 
Q 4550 1131 3912 565 
Q 3275 0 1925 0 
L 628 0 
L 628 4666 
z
" transform="scale(0.015625)"/>
     </defs>
     <use xlink:href="#DejaVuSans-4d"/>
     <use xlink:href="#DejaVuSans-20" transform="translate(86.279297 0)"/>
     <use xlink:href="#DejaVuSans-6f" transform="translate(118.066406 0)"/>
     <use xlink:href="#DejaVuSans-66" transform="translate(179.248047 0)"/>
     <use xlink:href="#DejaVuSans-66" transform="translate(214.453125 0)"/>
     <use xlink:href="#DejaVuSans-2d" transform="translate(244.158203 0)"/>
     <use xlink:href="#DejaVuSans-64" transform="translate(280.242188 0)"/>
     <use xlink:href="#DejaVuSans-69" transform="translate(343.71875 0)"/>
     <use xlink:href="#DejaVuSans-61" transform="translate(371.501953 0)"/>
     <use xlink:href="#DejaVuSans-67" transform="translate(432.78125 0)"/>
     <use xlink:href="#DejaVuSans-6f" transform="translate(496.257812 0)"/>
     <use xlink:href="#DejaVuSans-6e" transform="translate(557.439453 0)"/>
     <use xlink:href="#DejaVuSans-61" transform="translate(620.818359 0)"/>
     <use xlink:href="#DejaVuSans-6c" transform="translate(682.097656 0)"/>
     <use xlink:href="#DejaVuSans-20" transform="translate(709.880859 0)"/>
     <use xlink:href="#DejaVuSans-28" transform="translate(741.667969 0)"/>
     <use xlink:href="#DejaVuSans-53" transform="translate(780.681641 0)"/>
     <use xlink:href="#DejaVuSans-50" transform="translate(844.158203 0)"/>
     <use xlink:href="#DejaVuSans-44" transform="translate(904.460938 0)"/>
     <use xlink:href="#DejaVuSans-29" transform="translate(981.462891 0)"/>
    </g>
   </g>
   <g id="line2d_39">
    <path d="M 726.585788 150.032859 
L 722.658319 143.250489 
L 718.487743 136.495021 
L 714.090603 129.793248 
L 709.48434 123.171753 
L 704.687222 116.656798 
L 699.718277 110.274223 
L 694.597214 104.049346 
L 689.344344 98.006854 
L 683.980503 92.170716 
L 678.526965 86.564079 
L 673.00536 81.209181 
L 667.43759 76.127261 
L 661.845738 71.338476 
L 656.251983 66.86182 
L 650.678512 62.715049 
L 645.147431 58.914611 
L 639.680678 55.475578 
L 634.299937 52.411593 
L 629.026549 49.734807 
L 625.154559 47.987762 
L 621.363371 46.468421 
L 617.661445 45.180172 
L 614.05704 44.12589 
L 610.5582 43.307929 
L 607.172733 42.728112 
L 603.908192 42.387734 
L 600.771861 42.287555 
L 597.77074 42.427797 
L 594.911524 42.808149 
L 592.200595 43.427761 
L 589.644 44.28525 
L 587.247446 45.378704 
L 585.016279 46.705682 
L 582.955477 48.263223 
L 581.069641 50.047852 
L 579.362977 52.055587 
L 577.839293 54.281947 
L 576.501991 56.721965 
L 575.354053 59.370197 
L 574.398041 62.220732 
L 573.636089 65.26721 
L 573.069897 68.502834 
L 572.700728 71.920383 
L 572.529406 75.512231 
L 572.556312 79.270364 
L 572.781388 83.186396 
L 573.204131 87.251588 
L 573.823597 91.45687 
L 574.638405 95.792858 
L 576.025475 101.760734 
L 577.751034 107.920073 
L 579.80824 114.246447 
L 582.188931 120.714761 
L 584.883666 127.299361 
L 587.881755 133.97413 
L 591.171309 140.712593 
L 594.739279 147.488024 
L 598.571513 154.273549 
L 602.652812 161.042253 
L 606.966987 167.76729 
L 611.496927 174.421987 
L 616.224666 180.979948 
L 621.13145 187.415162 
L 626.197818 193.702105 
L 631.403676 199.815841 
L 636.728374 205.73212 
L 642.150793 211.427477 
L 647.649427 216.879322 
L 653.202465 222.066031 
L 658.787882 226.967031 
L 664.383525 231.562884 
L 669.9672 235.835361 
L 675.516759 239.767516 
L 681.010191 243.343752 
L 686.425708 246.549886 
L 691.741829 249.373199 
L 695.650991 251.232664 
L 699.483649 252.866313 
L 703.231251 254.2705 
L 706.885436 255.442092 
L 710.438049 256.378475 
L 713.881163 257.077559 
L 717.207096 257.537784 
L 720.408424 257.758124 
L 723.478007 257.738087 
L 726.408993 257.477718 
L 729.194842 256.977597 
L 731.829339 256.23884 
L 734.306605 255.263096 
L 736.621111 254.052543 
L 738.767694 252.609881 
L 740.741564 250.938329 
L 742.538315 249.041618 
L 744.15394 246.92398 
L 745.584832 244.590139 
L 746.827799 242.045305 
L 747.880067 239.295154 
L 748.739289 236.345825 
L 749.403546 233.203897 
L 749.871357 229.876383 
L 750.141679 226.370706 
L 750.213906 222.69469 
L 750.08788 218.856537 
L 749.76388 214.864811 
L 749.24263 210.72842 
L 748.525293 206.456593 
L 747.613469 202.058863 
L 746.098749 196.016372 
L 744.247949 189.791494 
L 742.06841 183.40892 
L 739.568778 176.893965 
L 736.758967 170.27247 
L 733.650122 163.570697 
L 730.254573 156.815228 
L 726.585788 150.032859 
L 726.585788 150.032859 
" clip-path="url(#p8f418ca34b)" style="fill: none; stroke: #d1242f; stroke-width: 2.3; stroke-linecap: square"/>
   </g>
   <g id="patch_12">
    <path d="M 661.36599 150.032859 
Q 693.975889 150.032859 724.34972 150.032859 
" clip-path="url(#p8f418ca34b)" style="fill: none; stroke: #57606a; stroke-width: 2; stroke-linecap: round"/>
    <path d="M 718.74972 147.232859 
L 724.34972 150.032859 
L 718.74972 152.832859 
z
" clip-path="url(#p8f418ca34b)" style="fill: #57606a; stroke: #57606a; stroke-width: 2; stroke-linecap: round"/>
   </g>
   <g id="patch_13">
    <path d="M 661.36599 150.032859 
Q 661.36599 110.487548 661.36599 73.178305 
" clip-path="url(#p8f418ca34b)" style="fill: none; stroke: #57606a; stroke-width: 2; stroke-linecap: round"/>
    <path d="M 658.56599 78.778305 
L 661.36599 73.178305 
L 664.16599 78.778305 
z
" clip-path="url(#p8f418ca34b)" style="fill: #57606a; stroke: #57606a; stroke-width: 2; stroke-linecap: round"/>
   </g>
   <g id="PathCollection_3">
    <g clip-path="url(#p8f418ca34b)">
     <use xlink:href="#m850d494117" x="661.36599" y="150.032859" style="fill: #24292f; stroke: #24292f"/>
    </g>
   </g>
  </g>
  <g id="text_43">
   <!-- Unit ball  $\{\,v : v^{\top} M\, v = 1\,\}$  of the inner product  $M$ -->
   <g transform="translate(221.03599 18.64) scale(0.13 -0.13)">
    <defs>
     <path id="DejaVuSans-55" d="M 556 4666 
L 1191 4666 
L 1191 1831 
Q 1191 1081 1462 751 
Q 1734 422 2344 422 
Q 2950 422 3222 751 
Q 3494 1081 3494 1831 
L 3494 4666 
L 4128 4666 
L 4128 1753 
Q 4128 841 3676 375 
Q 3225 -91 2344 -91 
Q 1459 -91 1007 375 
Q 556 841 556 1753 
L 556 4666 
z
" transform="scale(0.015625)"/>
     <path id="DejaVuSans-62" d="M 3116 1747 
Q 3116 2381 2855 2742 
Q 2594 3103 2138 3103 
Q 1681 3103 1420 2742 
Q 1159 2381 1159 1747 
Q 1159 1113 1420 752 
Q 1681 391 2138 391 
Q 2594 391 2855 752 
Q 3116 1113 3116 1747 
z
M 1159 2969 
Q 1341 3281 1617 3432 
Q 1894 3584 2278 3584 
Q 2916 3584 3314 3078 
Q 3713 2572 3713 1747 
Q 3713 922 3314 415 
Q 2916 -91 2278 -91 
Q 1894 -91 1617 61 
Q 1341 213 1159 525 
L 1159 0 
L 581 0 
L 581 4863 
L 1159 4863 
L 1159 2969 
z
" transform="scale(0.015625)"/>
     <path id="DejaVuSans-7b" d="M 3272 -594 
L 3272 -1044 
L 3078 -1044 
Q 2300 -1044 2036 -812 
Q 1772 -581 1772 109 
L 1772 856 
Q 1772 1328 1603 1509 
Q 1434 1691 991 1691 
L 800 1691 
L 800 2138 
L 991 2138 
Q 1438 2138 1605 2317 
Q 1772 2497 1772 2963 
L 1772 3713 
Q 1772 4403 2036 4633 
Q 2300 4863 3078 4863 
L 3272 4863 
L 3272 4416 
L 3059 4416 
Q 2619 4416 2484 4278 
Q 2350 4141 2350 3700 
L 2350 2925 
Q 2350 2434 2208 2212 
Q 2066 1991 1722 1913 
Q 2069 1828 2209 1606 
Q 2350 1384 2350 897 
L 2350 122 
Q 2350 -319 2484 -456 
Q 2619 -594 3059 -594 
L 3272 -594 
z
" transform="scale(0.015625)"/>
     <path id="DejaVuSans-Oblique-76" d="M 459 3500 
L 1069 3500 
L 1581 525 
L 3256 3500 
L 3866 3500 
L 1875 0 
L 1100 0 
L 459 3500 
z
" transform="scale(0.015625)"/>
     <path id="DejaVuSans-3a" d="M 750 794 
L 1409 794 
L 1409 0 
L 750 0 
L 750 794 
z
M 750 3309 
L 1409 3309 
L 1409 2516 
L 750 2516 
L 750 3309 
z
" transform="scale(0.015625)"/>
     <path id="DejaVuSans-22a4" d="M 5028 4481 
L 5028 4084 
L 2988 4084 
L 2988 0 
L 2588 0 
L 2588 4084 
L 547 4084 
L 547 4481 
L 5028 4481 
z
" transform="scale(0.015625)"/>
     <path id="DejaVuSans-Oblique-4d" d="M 1081 4666 
L 2028 4666 
L 2572 1522 
L 4378 4666 
L 5350 4666 
L 4441 0 
L 3828 0 
L 4622 4091 
L 2791 897 
L 2175 897 
L 1581 4103 
L 788 0 
L 172 0 
L 1081 4666 
z
" transform="scale(0.015625)"/>
     <path id="DejaVuSans-7d" d="M 800 -594 
L 1019 -594 
Q 1456 -594 1589 -459 
Q 1722 -325 1722 122 
L 1722 897 
Q 1722 1384 1862 1606 
Q 2003 1828 2350 1913 
Q 2003 1991 1862 2212 
Q 1722 2434 1722 2925 
L 1722 3700 
Q 1722 4144 1589 4280 
Q 1456 4416 1019 4416 
L 800 4416 
L 800 4863 
L 997 4863 
Q 1775 4863 2036 4633 
Q 2297 4403 2297 3713 
L 2297 2963 
Q 2297 2497 2465 2317 
Q 2634 2138 3078 2138 
L 3272 2138 
L 3272 1691 
L 3078 1691 
Q 2634 1691 2465 1509 
Q 2297 1328 2297 856 
L 2297 109 
Q 2297 -581 2036 -812 
Q 1775 -1044 997 -1044 
L 800 -1044 
L 800 -594 
z
" transform="scale(0.015625)"/>
    </defs>
    <use xlink:href="#DejaVuSans-55" transform="translate(0 0.707813)"/>
    <use xlink:href="#DejaVuSans-6e" transform="translate(73.193359 0.707813)"/>
    <use xlink:href="#DejaVuSans-69" transform="translate(136.572266 0.707813)"/>
    <use xlink:href="#DejaVuSans-74" transform="translate(164.355469 0.707813)"/>
    <use xlink:href="#DejaVuSans-20" transform="translate(203.564453 0.707813)"/>
    <use xlink:href="#DejaVuSans-62" transform="translate(235.351562 0.707813)"/>
    <use xlink:href="#DejaVuSans-61" transform="translate(298.828125 0.707813)"/>
    <use xlink:href="#DejaVuSans-6c" transform="translate(360.107422 0.707813)"/>
    <use xlink:href="#DejaVuSans-6c" transform="translate(387.890625 0.707813)"/>
    <use xlink:href="#DejaVuSans-20" transform="translate(415.673828 0.707813)"/>
    <use xlink:href="#DejaVuSans-20" transform="translate(447.460938 0.707813)"/>
    <use xlink:href="#DejaVuSans-7b" transform="translate(479.248047 0.707813)"/>
    <use xlink:href="#DejaVuSans-Oblique-76" transform="translate(559.10677 0.707813)"/>
    <use xlink:href="#DejaVuSans-3a" transform="translate(637.768879 0.707813)"/>
    <use xlink:href="#DejaVuSans-Oblique-76" transform="translate(690.942708 0.707813)"/>
    <use xlink:href="#DejaVuSans-22a4" transform="translate(768.226236 38.989063) scale(0.7)"/>
    <use xlink:href="#DejaVuSans-Oblique-4d" transform="translate(845.574869 0.707813)"/>
    <use xlink:href="#DejaVuSans-Oblique-76" transform="translate(948.089842 0.707813)"/>
    <use xlink:href="#DejaVuSans-3d" transform="translate(1026.751951 0.707813)"/>
    <use xlink:href="#DejaVuSans-31" transform="translate(1130.023436 0.707813)"/>
    <use xlink:href="#DejaVuSans-7d" transform="translate(1209.882159 0.707813)"/>
    <use xlink:href="#DejaVuSans-20" transform="translate(1273.505206 0.707813)"/>
    <use xlink:href="#DejaVuSans-20" transform="translate(1305.292315 0.707813)"/>
    <use xlink:href="#DejaVuSans-6f" transform="translate(1337.079425 0.707813)"/>
    <use xlink:href="#DejaVuSans-66" transform="translate(1398.261065 0.707813)"/>
    <use xlink:href="#DejaVuSans-20" transform="translate(1433.466143 0.707813)"/>
    <use xlink:href="#DejaVuSans-74" transform="translate(1465.253253 0.707813)"/>
    <use xlink:href="#DejaVuSans-68" transform="translate(1504.462237 0.707813)"/>
    <use xlink:href="#DejaVuSans-65" transform="translate(1567.841143 0.707813)"/>
    <use xlink:href="#DejaVuSans-20" transform="translate(1629.364581 0.707813)"/>
    <use xlink:href="#DejaVuSans-69" transform="translate(1661.15169 0.707813)"/>
    <use xlink:href="#DejaVuSans-6e" transform="translate(1688.934893 0.707813)"/>
    <use xlink:href="#DejaVuSans-6e" transform="translate(1752.3138 0.707813)"/>
    <use xlink:href="#DejaVuSans-65" transform="translate(1815.692706 0.707813)"/>
    <use xlink:href="#DejaVuSans-72" transform="translate(1877.216143 0.707813)"/>
    <use xlink:href="#DejaVuSans-20" transform="translate(1918.329425 0.707813)"/>
    <use xlink:href="#DejaVuSans-70" transform="translate(1950.116534 0.707813)"/>
    <use xlink:href="#DejaVuSans-72" transform="translate(2013.593097 0.707813)"/>
    <use xlink:href="#DejaVuSans-6f" transform="translate(2054.706378 0.707813)"/>
    <use xlink:href="#DejaVuSans-64" transform="translate(2115.888018 0.707813)"/>
    <use xlink:href="#DejaVuSans-75" transform="translate(2179.364581 0.707813)"/>
    <use xlink:href="#DejaVuSans-63" transform="translate(2242.743487 0.707813)"/>
    <use xlink:href="#DejaVuSans-74" transform="translate(2297.723956 0.707813)"/>
    <use xlink:href="#DejaVuSans-20" transform="translate(2336.93294 0.707813)"/>
    <use xlink:href="#DejaVuSans-20" transform="translate(2368.72005 0.707813)"/>
    <use xlink:href="#DejaVuSans-Oblique-4d" transform="translate(2400.507159 0.707813)"/>
   </g>
  </g>
 </g>
 <defs>
  <clipPath id="pd0eac712f5">
   <rect x="24.519531" y="53.1864" width="193.692918" height="193.692918"/>
  </clipPath>
  <clipPath id="p2bf8f00b57">
   <rect x="294.519531" y="53.1864" width="193.692918" height="193.692918"/>
  </clipPath>
  <clipPath id="p8f418ca34b">
   <rect x="564.519531" y="53.1864" width="193.692918" height="193.692918"/>
  </clipPath>
 </defs>
</svg>
