<?xml version="1.0" encoding="utf-8" standalone="no"?>
<!DOCTYPE svg PUBLIC "-//W3C//DTD SVG 1.1//EN"
  "http://www.w3.org/Graphics/SVG/1.1/DTD/svg11.dtd">
<svg xmlns:xlink="http://www.w3.org/1999/xlink" width="611.9725pt" height="311.24425pt" viewBox="0 0 611.9725 311.24425" xmlns="http://www.w3.org/2000/svg" version="1.1">
 <metadata>
  <rdf:RDF xmlns:dc="http://purl.org/dc/elements/1.1/" xmlns:cc="http://creativecommons.org/ns#" xmlns:rdf="http://www.w3.org/1999/02/22-rdf-syntax-ns#">
   <cc:Work>
    <dc:type rdf:resource="http://purl.org/dc/dcmitype/StillImage"/>
    <dc:date>2026-06-12T10:07:28.871112</dc:date>
    <dc:format>image/svg+xml</dc:format>
    <dc:creator>
     <cc:Agent>
      <dc:title>Matplotlib v3.10.9, https://matplotlib.org/</dc:title>
     </cc:Agent>
    </dc:creator>
   </cc:Work>
  </rdf:RDF>
 </metadata>
 <defs>
  <style type="text/css">*{stroke-linejoin: round; stroke-linecap: butt}</style>
 </defs>
 <g id="figure_1">
  <g id="patch_1">
   <path d="M 0 311.24425 
L 611.9725 311.24425 
L 611.9725 0 
L 0 0 
z
" style="fill: #ffffff"/>
  </g>
  <g id="axes_1">
   <g id="patch_2">
    <path d="M 20.5625 273.688 
L 296.41 273.688 
L 296.41 78.3528 
L 20.5625 78.3528 
z
" style="fill: #ffffff"/>
   </g>
   <g id="line2d_1">
    <path d="M 20.5625 257.850011 
L 296.41 257.850011 
" clip-path="url(#p251be64ad8)" style="fill: none; stroke: #d0d7de; stroke-width: 0.9; stroke-linecap: square"/>
   </g>
   <g id="line2d_2">
    <path d="M 158.48625 273.688 
L 158.48625 78.3528 
" clip-path="url(#p251be64ad8)" style="fill: none; stroke: #d0d7de; stroke-width: 0.9; stroke-linecap: square"/>
   </g>
   <g id="matplotlib.axis_1">
    <g id="xtick_1">
     <g id="line2d_3">
      <defs>
       <path id="m1e1f27ca77" d="M 0 0 
L 0 3.5 
" style="stroke: #000000; stroke-width: 0.8"/>
      </defs>
      <g>
       <use xlink:href="#m1e1f27ca77" x="52.391058" y="273.688" style="stroke: #000000; stroke-width: 0.8"/>
      </g>
     </g>
     <g id="text_1">
      <!-- −1 -->
      <g transform="translate(45.019964 288.286438) scale(0.1 -0.1)">
       <defs>
        <path id="DejaVuSans-2212" d="M 678 2272 
L 4684 2272 
L 4684 1741 
L 678 1741 
L 678 2272 
z
" transform="scale(0.015625)"/>
        <path id="DejaVuSans-31" d="M 794 531 
L 1825 531 
L 1825 4091 
L 703 3866 
L 703 4441 
L 1819 4666 
L 2450 4666 
L 2450 531 
L 3481 531 
L 3481 0 
L 794 0 
L 794 531 
z
" transform="scale(0.015625)"/>
       </defs>
       <use xlink:href="#DejaVuSans-2212"/>
       <use xlink:href="#DejaVuSans-31" transform="translate(83.789062 0)"/>
      </g>
     </g>
    </g>
    <g id="xtick_2">
     <g id="line2d_4">
      <g>
       <use xlink:href="#m1e1f27ca77" x="158.48625" y="273.688" style="stroke: #000000; stroke-width: 0.8"/>
      </g>
     </g>
     <g id="text_2">
      <!-- 0 -->
      <g transform="translate(155.305 288.286438) scale(0.1 -0.1)">
       <defs>
        <path id="DejaVuSans-30" d="M 2034 4250 
Q 1547 4250 1301 3770 
Q 1056 3291 1056 2328 
Q 1056 1369 1301 889 
Q 1547 409 2034 409 
Q 2525 409 2770 889 
Q 3016 1369 3016 2328 
Q 3016 3291 2770 3770 
Q 2525 4250 2034 4250 
z
M 2034 4750 
Q 2819 4750 3233 4129 
Q 3647 3509 3647 2328 
Q 3647 1150 3233 529 
Q 2819 -91 2034 -91 
Q 1250 -91 836 529 
Q 422 1150 422 2328 
Q 422 3509 836 4129 
Q 1250 4750 2034 4750 
z
" transform="scale(0.015625)"/>
       </defs>
       <use xlink:href="#DejaVuSans-30"/>
      </g>
     </g>
    </g>
    <g id="xtick_3">
     <g id="line2d_5">
      <g>
       <use xlink:href="#m1e1f27ca77" x="264.581442" y="273.688" style="stroke: #000000; stroke-width: 0.8"/>
      </g>
     </g>
     <g id="text_3">
      <!-- 1 -->
      <g transform="translate(261.400192 288.286438) scale(0.1 -0.1)">
       <use xlink:href="#DejaVuSans-31"/>
      </g>
     </g>
    </g>
    <g id="text_4">
     <!-- $x$ -->
     <g transform="translate(155.48625 301.964562) scale(0.1 -0.1)">
      <defs>
       <path id="DejaVuSans-Oblique-78" d="M 3841 3500 
L 2234 1784 
L 3219 0 
L 2559 0 
L 1819 1388 
L 531 0 
L -166 0 
L 1556 1844 
L 641 3500 
L 1300 3500 
L 1972 2234 
L 3144 3500 
L 3841 3500 
z
" transform="scale(0.015625)"/>
      </defs>
      <use xlink:href="#DejaVuSans-Oblique-78" transform="translate(0 0.3125)"/>
     </g>
    </g>
   </g>
   <g id="matplotlib.axis_2">
    <g id="ytick_1">
     <g id="line2d_6">
      <defs>
       <path id="m82a3640ab2" d="M 0 0 
L -3.5 0 
" style="stroke: #000000; stroke-width: 0.8"/>
      </defs>
      <g>
       <use xlink:href="#m82a3640ab2" x="20.5625" y="257.850011" style="stroke: #000000; stroke-width: 0.8"/>
      </g>
     </g>
     <g id="text_5">
      <!-- 0 -->
      <g transform="translate(7.2 261.64923) scale(0.1 -0.1)">
       <use xlink:href="#DejaVuSans-30"/>
      </g>
     </g>
    </g>
    <g id="ytick_2">
     <g id="line2d_7">
      <g>
       <use xlink:href="#m82a3640ab2" x="20.5625" y="152.263416" style="stroke: #000000; stroke-width: 0.8"/>
      </g>
     </g>
     <g id="text_6">
      <!-- 1 -->
      <g transform="translate(7.2 156.062635) scale(0.1 -0.1)">
       <use xlink:href="#DejaVuSans-31"/>
      </g>
     </g>
    </g>
   </g>
   <g id="patch_3">
    <path d="M 20.5625 273.688 
L 20.5625 78.3528 
" style="fill: none; stroke: #000000; stroke-width: 0.8; stroke-linejoin: miter; stroke-linecap: square"/>
   </g>
   <g id="patch_4">
    <path d="M 20.5625 273.688 
L 296.41 273.688 
" style="fill: none; stroke: #000000; stroke-width: 0.8; stroke-linejoin: miter; stroke-linecap: square"/>
   </g>
   <g id="patch_5">
    <path d="M 90.808572 152.849173 
Q 124.105254 204.508445 156.735659 255.133997 
" style="fill: none; stroke: #0b8457; stroke-width: 1.1; stroke-linecap: round"/>
    <path d="M 156.225384 250.466062 
L 156.735659 255.133997 
L 152.695146 252.741456 
" style="fill: none; stroke: #0b8457; stroke-width: 1.1; stroke-linecap: round"/>
   </g>
   <g id="text_7">
    <!-- local min -->
    <g style="fill: #0b8457" transform="translate(33.293923 135.226383) scale(0.105 -0.105)">
     <defs>
      <path id="DejaVuSans-6c" d="M 603 4863 
L 1178 4863 
L 1178 0 
L 603 0 
L 603 4863 
z
" transform="scale(0.015625)"/>
      <path id="DejaVuSans-6f" d="M 1959 3097 
Q 1497 3097 1228 2736 
Q 959 2375 959 1747 
Q 959 1119 1226 758 
Q 1494 397 1959 397 
Q 2419 397 2687 759 
Q 2956 1122 2956 1747 
Q 2956 2369 2687 2733 
Q 2419 3097 1959 3097 
z
M 1959 3584 
Q 2709 3584 3137 3096 
Q 3566 2609 3566 1747 
Q 3566 888 3137 398 
Q 2709 -91 1959 -91 
Q 1206 -91 779 398 
Q 353 888 353 1747 
Q 353 2609 779 3096 
Q 1206 3584 1959 3584 
z
" transform="scale(0.015625)"/>
      <path id="DejaVuSans-63" d="M 3122 3366 
L 3122 2828 
Q 2878 2963 2633 3030 
Q 2388 3097 2138 3097 
Q 1578 3097 1268 2742 
Q 959 2388 959 1747 
Q 959 1106 1268 751 
Q 1578 397 2138 397 
Q 2388 397 2633 464 
Q 2878 531 3122 666 
L 3122 134 
Q 2881 22 2623 -34 
Q 2366 -91 2075 -91 
Q 1284 -91 818 406 
Q 353 903 353 1747 
Q 353 2603 823 3093 
Q 1294 3584 2113 3584 
Q 2378 3584 2631 3529 
Q 2884 3475 3122 3366 
z
" transform="scale(0.015625)"/>
      <path id="DejaVuSans-61" d="M 2194 1759 
Q 1497 1759 1228 1600 
Q 959 1441 959 1056 
Q 959 750 1161 570 
Q 1363 391 1709 391 
Q 2188 391 2477 730 
Q 2766 1069 2766 1631 
L 2766 1759 
L 2194 1759 
z
M 3341 1997 
L 3341 0 
L 2766 0 
L 2766 531 
Q 2569 213 2275 61 
Q 1981 -91 1556 -91 
Q 1019 -91 701 211 
Q 384 513 384 1019 
Q 384 1609 779 1909 
Q 1175 2209 1959 2209 
L 2766 2209 
L 2766 2266 
Q 2766 2663 2505 2880 
Q 2244 3097 1772 3097 
Q 1472 3097 1187 3025 
Q 903 2953 641 2809 
L 641 3341 
Q 956 3463 1253 3523 
Q 1550 3584 1831 3584 
Q 2591 3584 2966 3190 
Q 3341 2797 3341 1997 
z
" transform="scale(0.015625)"/>
      <path id="DejaVuSans-20" transform="scale(0.015625)"/>
      <path id="DejaVuSans-6d" d="M 3328 2828 
Q 3544 3216 3844 3400 
Q 4144 3584 4550 3584 
Q 5097 3584 5394 3201 
Q 5691 2819 5691 2113 
L 5691 0 
L 5113 0 
L 5113 2094 
Q 5113 2597 4934 2840 
Q 4756 3084 4391 3084 
Q 3944 3084 3684 2787 
Q 3425 2491 3425 1978 
L 3425 0 
L 2847 0 
L 2847 2094 
Q 2847 2600 2669 2842 
Q 2491 3084 2119 3084 
Q 1678 3084 1418 2786 
Q 1159 2488 1159 1978 
L 1159 0 
L 581 0 
L 581 3500 
L 1159 3500 
L 1159 2956 
Q 1356 3278 1631 3431 
Q 1906 3584 2284 3584 
Q 2666 3584 2933 3390 
Q 3200 3197 3328 2828 
z
" transform="scale(0.015625)"/>
      <path id="DejaVuSans-69" d="M 603 3500 
L 1178 3500 
L 1178 0 
L 603 0 
L 603 3500 
z
M 603 4863 
L 1178 4863 
L 1178 4134 
L 603 4134 
L 603 4863 
z
" transform="scale(0.015625)"/>
      <path id="DejaVuSans-6e" d="M 3513 2113 
L 3513 0 
L 2938 0 
L 2938 2094 
Q 2938 2591 2744 2837 
Q 2550 3084 2163 3084 
Q 1697 3084 1428 2787 
Q 1159 2491 1159 1978 
L 1159 0 
L 581 0 
L 581 3500 
L 1159 3500 
L 1159 2956 
Q 1366 3272 1645 3428 
Q 1925 3584 2291 3584 
Q 2894 3584 3203 3211 
Q 3513 2838 3513 2113 
z
" transform="scale(0.015625)"/>
     </defs>
     <use xlink:href="#DejaVuSans-6c"/>
     <use xlink:href="#DejaVuSans-6f" transform="translate(27.783203 0)"/>
     <use xlink:href="#DejaVuSans-63" transform="translate(88.964844 0)"/>
     <use xlink:href="#DejaVuSans-61" transform="translate(143.945312 0)"/>
     <use xlink:href="#DejaVuSans-6c" transform="translate(205.224609 0)"/>
     <use xlink:href="#DejaVuSans-20" transform="translate(233.007812 0)"/>
     <use xlink:href="#DejaVuSans-6d" transform="translate(264.794922 0)"/>
     <use xlink:href="#DejaVuSans-69" transform="translate(362.207031 0)"/>
     <use xlink:href="#DejaVuSans-6e" transform="translate(389.990234 0)"/>
    </g>
    <!-- (both sides go UP) -->
    <g style="fill: #0b8457" transform="translate(33.293923 146.984086) scale(0.105 -0.105)">
     <defs>
      <path id="DejaVuSans-28" d="M 1984 4856 
Q 1566 4138 1362 3434 
Q 1159 2731 1159 2009 
Q 1159 1288 1364 580 
Q 1569 -128 1984 -844 
L 1484 -844 
Q 1016 -109 783 600 
Q 550 1309 550 2009 
Q 550 2706 781 3412 
Q 1013 4119 1484 4856 
L 1984 4856 
z
" transform="scale(0.015625)"/>
      <path id="DejaVuSans-62" d="M 3116 1747 
Q 3116 2381 2855 2742 
Q 2594 3103 2138 3103 
Q 1681 3103 1420 2742 
Q 1159 2381 1159 1747 
Q 1159 1113 1420 752 
Q 1681 391 2138 391 
Q 2594 391 2855 752 
Q 3116 1113 3116 1747 
z
M 1159 2969 
Q 1341 3281 1617 3432 
Q 1894 3584 2278 3584 
Q 2916 3584 3314 3078 
Q 3713 2572 3713 1747 
Q 3713 922 3314 415 
Q 2916 -91 2278 -91 
Q 1894 -91 1617 61 
Q 1341 213 1159 525 
L 1159 0 
L 581 0 
L 581 4863 
L 1159 4863 
L 1159 2969 
z
" transform="scale(0.015625)"/>
      <path id="DejaVuSans-74" d="M 1172 4494 
L 1172 3500 
L 2356 3500 
L 2356 3053 
L 1172 3053 
L 1172 1153 
Q 1172 725 1289 603 
Q 1406 481 1766 481 
L 2356 481 
L 2356 0 
L 1766 0 
Q 1100 0 847 248 
Q 594 497 594 1153 
L 594 3053 
L 172 3053 
L 172 3500 
L 594 3500 
L 594 4494 
L 1172 4494 
z
" transform="scale(0.015625)"/>
      <path id="DejaVuSans-68" d="M 3513 2113 
L 3513 0 
L 2938 0 
L 2938 2094 
Q 2938 2591 2744 2837 
Q 2550 3084 2163 3084 
Q 1697 3084 1428 2787 
Q 1159 2491 1159 1978 
L 1159 0 
L 581 0 
L 581 4863 
L 1159 4863 
L 1159 2956 
Q 1366 3272 1645 3428 
Q 1925 3584 2291 3584 
Q 2894 3584 3203 3211 
Q 3513 2838 3513 2113 
z
" transform="scale(0.015625)"/>
      <path id="DejaVuSans-73" d="M 2834 3397 
L 2834 2853 
Q 2591 2978 2328 3040 
Q 2066 3103 1784 3103 
Q 1356 3103 1142 2972 
Q 928 2841 928 2578 
Q 928 2378 1081 2264 
Q 1234 2150 1697 2047 
L 1894 2003 
Q 2506 1872 2764 1633 
Q 3022 1394 3022 966 
Q 3022 478 2636 193 
Q 2250 -91 1575 -91 
Q 1294 -91 989 -36 
Q 684 19 347 128 
L 347 722 
Q 666 556 975 473 
Q 1284 391 1588 391 
Q 1994 391 2212 530 
Q 2431 669 2431 922 
Q 2431 1156 2273 1281 
Q 2116 1406 1581 1522 
L 1381 1569 
Q 847 1681 609 1914 
Q 372 2147 372 2553 
Q 372 3047 722 3315 
Q 1072 3584 1716 3584 
Q 2034 3584 2315 3537 
Q 2597 3491 2834 3397 
z
" transform="scale(0.015625)"/>
      <path id="DejaVuSans-64" d="M 2906 2969 
L 2906 4863 
L 3481 4863 
L 3481 0 
L 2906 0 
L 2906 525 
Q 2725 213 2448 61 
Q 2172 -91 1784 -91 
Q 1150 -91 751 415 
Q 353 922 353 1747 
Q 353 2572 751 3078 
Q 1150 3584 1784 3584 
Q 2172 3584 2448 3432 
Q 2725 3281 2906 2969 
z
M 947 1747 
Q 947 1113 1208 752 
Q 1469 391 1925 391 
Q 2381 391 2643 752 
Q 2906 1113 2906 1747 
Q 2906 2381 2643 2742 
Q 2381 3103 1925 3103 
Q 1469 3103 1208 2742 
Q 947 2381 947 1747 
z
" transform="scale(0.015625)"/>
      <path id="DejaVuSans-65" d="M 3597 1894 
L 3597 1613 
L 953 1613 
Q 991 1019 1311 708 
Q 1631 397 2203 397 
Q 2534 397 2845 478 
Q 3156 559 3463 722 
L 3463 178 
Q 3153 47 2828 -22 
Q 2503 -91 2169 -91 
Q 1331 -91 842 396 
Q 353 884 353 1716 
Q 353 2575 817 3079 
Q 1281 3584 2069 3584 
Q 2775 3584 3186 3129 
Q 3597 2675 3597 1894 
z
M 3022 2063 
Q 3016 2534 2758 2815 
Q 2500 3097 2075 3097 
Q 1594 3097 1305 2825 
Q 1016 2553 972 2059 
L 3022 2063 
z
" transform="scale(0.015625)"/>
      <path id="DejaVuSans-67" d="M 2906 1791 
Q 2906 2416 2648 2759 
Q 2391 3103 1925 3103 
Q 1463 3103 1205 2759 
Q 947 2416 947 1791 
Q 947 1169 1205 825 
Q 1463 481 1925 481 
Q 2391 481 2648 825 
Q 2906 1169 2906 1791 
z
M 3481 434 
Q 3481 -459 3084 -895 
Q 2688 -1331 1869 -1331 
Q 1566 -1331 1297 -1286 
Q 1028 -1241 775 -1147 
L 775 -588 
Q 1028 -725 1275 -790 
Q 1522 -856 1778 -856 
Q 2344 -856 2625 -561 
Q 2906 -266 2906 331 
L 2906 616 
Q 2728 306 2450 153 
Q 2172 0 1784 0 
Q 1141 0 747 490 
Q 353 981 353 1791 
Q 353 2603 747 3093 
Q 1141 3584 1784 3584 
Q 2172 3584 2450 3431 
Q 2728 3278 2906 2969 
L 2906 3500 
L 3481 3500 
L 3481 434 
z
" transform="scale(0.015625)"/>
      <path id="DejaVuSans-55" d="M 556 4666 
L 1191 4666 
L 1191 1831 
Q 1191 1081 1462 751 
Q 1734 422 2344 422 
Q 2950 422 3222 751 
Q 3494 1081 3494 1831 
L 3494 4666 
L 4128 4666 
L 4128 1753 
Q 4128 841 3676 375 
Q 3225 -91 2344 -91 
Q 1459 -91 1007 375 
Q 556 841 556 1753 
L 556 4666 
z
" transform="scale(0.015625)"/>
      <path id="DejaVuSans-50" d="M 1259 4147 
L 1259 2394 
L 2053 2394 
Q 2494 2394 2734 2622 
Q 2975 2850 2975 3272 
Q 2975 3691 2734 3919 
Q 2494 4147 2053 4147 
L 1259 4147 
z
M 628 4666 
L 2053 4666 
Q 2838 4666 3239 4311 
Q 3641 3956 3641 3272 
Q 3641 2581 3239 2228 
Q 2838 1875 2053 1875 
L 1259 1875 
L 1259 0 
L 628 0 
L 628 4666 
z
" transform="scale(0.015625)"/>
      <path id="DejaVuSans-29" d="M 513 4856 
L 1013 4856 
Q 1481 4119 1714 3412 
Q 1947 2706 1947 2009 
Q 1947 1309 1714 600 
Q 1481 -109 1013 -844 
L 513 -844 
Q 928 -128 1133 580 
Q 1338 1288 1338 2009 
Q 1338 2731 1133 3434 
Q 928 4138 513 4856 
z
" transform="scale(0.015625)"/>
     </defs>
     <use xlink:href="#DejaVuSans-28"/>
     <use xlink:href="#DejaVuSans-62" transform="translate(39.013672 0)"/>
     <use xlink:href="#DejaVuSans-6f" transform="translate(102.490234 0)"/>
     <use xlink:href="#DejaVuSans-74" transform="translate(163.671875 0)"/>
     <use xlink:href="#DejaVuSans-68" transform="translate(202.880859 0)"/>
     <use xlink:href="#DejaVuSans-20" transform="translate(266.259766 0)"/>
     <use xlink:href="#DejaVuSans-73" transform="translate(298.046875 0)"/>
     <use xlink:href="#DejaVuSans-69" transform="translate(350.146484 0)"/>
     <use xlink:href="#DejaVuSans-64" transform="translate(377.929688 0)"/>
     <use xlink:href="#DejaVuSans-65" transform="translate(441.40625 0)"/>
     <use xlink:href="#DejaVuSans-73" transform="translate(502.929688 0)"/>
     <use xlink:href="#DejaVuSans-20" transform="translate(555.029297 0)"/>
     <use xlink:href="#DejaVuSans-67" transform="translate(586.816406 0)"/>
     <use xlink:href="#DejaVuSans-6f" transform="translate(650.292969 0)"/>
     <use xlink:href="#DejaVuSans-20" transform="translate(711.474609 0)"/>
     <use xlink:href="#DejaVuSans-55" transform="translate(743.261719 0)"/>
     <use xlink:href="#DejaVuSans-50" transform="translate(816.455078 0)"/>
     <use xlink:href="#DejaVuSans-29" transform="translate(876.757812 0)"/>
    </g>
   </g>
   <g id="text_8">
    <!-- $y=x^4$   (first non-zero term: even, $+$) -->
    <g transform="translate(56.07625 59.7468) scale(0.11 -0.11)">
     <defs>
      <path id="DejaVuSans-Oblique-79" d="M 1588 -325 
Q 1188 -997 936 -1164 
Q 684 -1331 294 -1331 
L -159 -1331 
L -63 -850 
L 269 -850 
Q 509 -850 678 -719 
Q 847 -588 1056 -206 
L 1234 128 
L 459 3500 
L 1069 3500 
L 1650 819 
L 3256 3500 
L 3859 3500 
L 1588 -325 
z
" transform="scale(0.015625)"/>
      <path id="DejaVuSans-3d" d="M 678 2906 
L 4684 2906 
L 4684 2381 
L 678 2381 
L 678 2906 
z
M 678 1631 
L 4684 1631 
L 4684 1100 
L 678 1100 
L 678 1631 
z
" transform="scale(0.015625)"/>
      <path id="DejaVuSans-34" d="M 2419 4116 
L 825 1625 
L 2419 1625 
L 2419 4116 
z
M 2253 4666 
L 3047 4666 
L 3047 1625 
L 3713 1625 
L 3713 1100 
L 3047 1100 
L 3047 0 
L 2419 0 
L 2419 1100 
L 313 1100 
L 313 1709 
L 2253 4666 
z
" transform="scale(0.015625)"/>
      <path id="DejaVuSans-66" d="M 2375 4863 
L 2375 4384 
L 1825 4384 
Q 1516 4384 1395 4259 
Q 1275 4134 1275 3809 
L 1275 3500 
L 2222 3500 
L 2222 3053 
L 1275 3053 
L 1275 0 
L 697 0 
L 697 3053 
L 147 3053 
L 147 3500 
L 697 3500 
L 697 3744 
Q 697 4328 969 4595 
Q 1241 4863 1831 4863 
L 2375 4863 
z
" transform="scale(0.015625)"/>
      <path id="DejaVuSans-72" d="M 2631 2963 
Q 2534 3019 2420 3045 
Q 2306 3072 2169 3072 
Q 1681 3072 1420 2755 
Q 1159 2438 1159 1844 
L 1159 0 
L 581 0 
L 581 3500 
L 1159 3500 
L 1159 2956 
Q 1341 3275 1631 3429 
Q 1922 3584 2338 3584 
Q 2397 3584 2469 3576 
Q 2541 3569 2628 3553 
L 2631 2963 
z
" transform="scale(0.015625)"/>
      <path id="DejaVuSans-2d" d="M 313 2009 
L 1997 2009 
L 1997 1497 
L 313 1497 
L 313 2009 
z
" transform="scale(0.015625)"/>
      <path id="DejaVuSans-7a" d="M 353 3500 
L 3084 3500 
L 3084 2975 
L 922 459 
L 3084 459 
L 3084 0 
L 275 0 
L 275 525 
L 2438 3041 
L 353 3041 
L 353 3500 
z
" transform="scale(0.015625)"/>
      <path id="DejaVuSans-3a" d="M 750 794 
L 1409 794 
L 1409 0 
L 750 0 
L 750 794 
z
M 750 3309 
L 1409 3309 
L 1409 2516 
L 750 2516 
L 750 3309 
z
" transform="scale(0.015625)"/>
      <path id="DejaVuSans-76" d="M 191 3500 
L 800 3500 
L 1894 563 
L 2988 3500 
L 3597 3500 
L 2284 0 
L 1503 0 
L 191 3500 
z
" transform="scale(0.015625)"/>
      <path id="DejaVuSans-2c" d="M 750 794 
L 1409 794 
L 1409 256 
L 897 -744 
L 494 -744 
L 750 256 
L 750 794 
z
" transform="scale(0.015625)"/>
      <path id="DejaVuSans-2b" d="M 2944 4013 
L 2944 2272 
L 4684 2272 
L 4684 1741 
L 2944 1741 
L 2944 0 
L 2419 0 
L 2419 1741 
L 678 1741 
L 678 2272 
L 2419 2272 
L 2419 4013 
L 2944 4013 
z
" transform="scale(0.015625)"/>
     </defs>
     <use xlink:href="#DejaVuSans-Oblique-79" transform="translate(0 0.684375)"/>
     <use xlink:href="#DejaVuSans-3d" transform="translate(78.662109 0.684375)"/>
     <use xlink:href="#DejaVuSans-Oblique-78" transform="translate(181.933594 0.684375)"/>
     <use xlink:href="#DejaVuSans-34" transform="translate(245.579427 38.965625) scale(0.7)"/>
     <use xlink:href="#DejaVuSans-20" transform="translate(292.849935 0.684375)"/>
     <use xlink:href="#DejaVuSans-20" transform="translate(324.637044 0.684375)"/>
     <use xlink:href="#DejaVuSans-20" transform="translate(356.424154 0.684375)"/>
     <use xlink:href="#DejaVuSans-28" transform="translate(388.211263 0.684375)"/>
     <use xlink:href="#DejaVuSans-66" transform="translate(427.224935 0.684375)"/>
     <use xlink:href="#DejaVuSans-69" transform="translate(462.430013 0.684375)"/>
     <use xlink:href="#DejaVuSans-72" transform="translate(490.213216 0.684375)"/>
     <use xlink:href="#DejaVuSans-73" transform="translate(531.326497 0.684375)"/>
     <use xlink:href="#DejaVuSans-74" transform="translate(583.426107 0.684375)"/>
     <use xlink:href="#DejaVuSans-20" transform="translate(622.635091 0.684375)"/>
     <use xlink:href="#DejaVuSans-6e" transform="translate(654.422201 0.684375)"/>
     <use xlink:href="#DejaVuSans-6f" transform="translate(717.801107 0.684375)"/>
     <use xlink:href="#DejaVuSans-6e" transform="translate(778.982747 0.684375)"/>
     <use xlink:href="#DejaVuSans-2d" transform="translate(842.361654 0.684375)"/>
     <use xlink:href="#DejaVuSans-7a" transform="translate(878.445638 0.684375)"/>
     <use xlink:href="#DejaVuSans-65" transform="translate(930.935872 0.684375)"/>
     <use xlink:href="#DejaVuSans-72" transform="translate(992.45931 0.684375)"/>
     <use xlink:href="#DejaVuSans-6f" transform="translate(1033.572591 0.684375)"/>
     <use xlink:href="#DejaVuSans-20" transform="translate(1094.754232 0.684375)"/>
     <use xlink:href="#DejaVuSans-74" transform="translate(1126.541341 0.684375)"/>
     <use xlink:href="#DejaVuSans-65" transform="translate(1165.750326 0.684375)"/>
     <use xlink:href="#DejaVuSans-72" transform="translate(1227.273763 0.684375)"/>
     <use xlink:href="#DejaVuSans-6d" transform="translate(1268.387044 0.684375)"/>
     <use xlink:href="#DejaVuSans-3a" transform="translate(1364.049154 0.684375)"/>
     <use xlink:href="#DejaVuSans-20" transform="translate(1397.74056 0.684375)"/>
     <use xlink:href="#DejaVuSans-65" transform="translate(1429.527669 0.684375)"/>
     <use xlink:href="#DejaVuSans-76" transform="translate(1491.051107 0.684375)"/>
     <use xlink:href="#DejaVuSans-65" transform="translate(1550.230794 0.684375)"/>
     <use xlink:href="#DejaVuSans-6e" transform="translate(1611.754232 0.684375)"/>
     <use xlink:href="#DejaVuSans-2c" transform="translate(1675.133138 0.684375)"/>
     <use xlink:href="#DejaVuSans-20" transform="translate(1706.920247 0.684375)"/>
     <use xlink:href="#DejaVuSans-2b" transform="translate(1738.707357 0.684375)"/>
     <use xlink:href="#DejaVuSans-29" transform="translate(1822.496419 0.684375)"/>
    </g>
    <!-- $f''(0)=0$  but stays a min -->
    <g transform="translate(89.68125 72.3528) scale(0.11 -0.11)">
     <defs>
      <path id="DejaVuSans-Oblique-66" d="M 3059 4863 
L 2969 4384 
L 2419 4384 
Q 2106 4384 1964 4261 
Q 1822 4138 1753 3809 
L 1691 3500 
L 2638 3500 
L 2553 3053 
L 1606 3053 
L 1013 0 
L 434 0 
L 1031 3053 
L 481 3053 
L 563 3500 
L 1113 3500 
L 1159 3744 
Q 1278 4363 1576 4613 
Q 1875 4863 2516 4863 
L 3059 4863 
z
" transform="scale(0.015625)"/>
      <path id="Cmsy10-30" d="M 225 347 
Q 184 359 184 409 
L 966 3316 
Q 1003 3434 1093 3506 
Q 1184 3578 1300 3578 
Q 1450 3578 1564 3479 
Q 1678 3381 1678 3231 
Q 1678 3166 1644 3084 
L 488 319 
Q 466 275 428 275 
Q 394 275 320 306 
Q 247 338 225 347 
z
" transform="scale(0.015625)"/>
      <path id="DejaVuSans-75" d="M 544 1381 
L 544 3500 
L 1119 3500 
L 1119 1403 
Q 1119 906 1312 657 
Q 1506 409 1894 409 
Q 2359 409 2629 706 
Q 2900 1003 2900 1516 
L 2900 3500 
L 3475 3500 
L 3475 0 
L 2900 0 
L 2900 538 
Q 2691 219 2414 64 
Q 2138 -91 1772 -91 
Q 1169 -91 856 284 
Q 544 659 544 1381 
z
M 1991 3584 
L 1991 3584 
z
" transform="scale(0.015625)"/>
      <path id="DejaVuSans-79" d="M 2059 -325 
Q 1816 -950 1584 -1140 
Q 1353 -1331 966 -1331 
L 506 -1331 
L 506 -850 
L 844 -850 
Q 1081 -850 1212 -737 
Q 1344 -625 1503 -206 
L 1606 56 
L 191 3500 
L 800 3500 
L 1894 763 
L 2988 3500 
L 3597 3500 
L 2059 -325 
z
" transform="scale(0.015625)"/>
     </defs>
     <use xlink:href="#DejaVuSans-Oblique-66" transform="translate(0 0.584375)"/>
     <use xlink:href="#Cmsy10-30" transform="translate(42.652786 38.865625) scale(0.7)"/>
     <use xlink:href="#Cmsy10-30" transform="translate(61.895951 38.865625) scale(0.7)"/>
     <use xlink:href="#DejaVuSans-28" transform="translate(83.87349 0.584375)"/>
     <use xlink:href="#DejaVuSans-30" transform="translate(122.887161 0.584375)"/>
     <use xlink:href="#DejaVuSans-29" transform="translate(186.510208 0.584375)"/>
     <use xlink:href="#DejaVuSans-3d" transform="translate(245.006302 0.584375)"/>
     <use xlink:href="#DejaVuSans-30" transform="translate(348.277786 0.584375)"/>
     <use xlink:href="#DejaVuSans-20" transform="translate(411.900833 0.584375)"/>
     <use xlink:href="#DejaVuSans-20" transform="translate(443.687943 0.584375)"/>
     <use xlink:href="#DejaVuSans-62" transform="translate(475.475052 0.584375)"/>
     <use xlink:href="#DejaVuSans-75" transform="translate(538.951615 0.584375)"/>
     <use xlink:href="#DejaVuSans-74" transform="translate(602.330521 0.584375)"/>
     <use xlink:href="#DejaVuSans-20" transform="translate(641.539505 0.584375)"/>
     <use xlink:href="#DejaVuSans-73" transform="translate(673.326615 0.584375)"/>
     <use xlink:href="#DejaVuSans-74" transform="translate(725.426224 0.584375)"/>
     <use xlink:href="#DejaVuSans-61" transform="translate(764.635208 0.584375)"/>
     <use xlink:href="#DejaVuSans-79" transform="translate(825.914505 0.584375)"/>
     <use xlink:href="#DejaVuSans-73" transform="translate(885.094193 0.584375)"/>
     <use xlink:href="#DejaVuSans-20" transform="translate(937.193802 0.584375)"/>
     <use xlink:href="#DejaVuSans-61" transform="translate(968.980911 0.584375)"/>
     <use xlink:href="#DejaVuSans-20" transform="translate(1030.260208 0.584375)"/>
     <use xlink:href="#DejaVuSans-6d" transform="translate(1062.047318 0.584375)"/>
     <use xlink:href="#DejaVuSans-69" transform="translate(1159.459427 0.584375)"/>
     <use xlink:href="#DejaVuSans-6e" transform="translate(1187.24263 0.584375)"/>
    </g>
   </g>
   <g id="line2d_8">
    <path d="M 25.86726 0.070239 
L 29.182734 24.897552 
L 32.498209 47.886775 
L 35.813684 69.13095 
L 39.129159 88.720702 
L 42.444633 106.744241 
L 45.760108 123.287359 
L 48.412488 135.512059 
L 51.064868 146.884272 
L 53.717248 157.444581 
L 56.369627 167.232582 
L 59.022007 176.28688 
L 61.674387 184.64509 
L 64.326767 192.343837 
L 66.979147 199.418758 
L 69.631526 205.904497 
L 72.283906 211.83471 
L 74.936286 217.242064 
L 77.588666 222.158233 
L 80.241046 226.613905 
L 82.893425 230.638776 
L 85.545805 234.261551 
L 88.198185 237.509947 
L 90.850565 240.410691 
L 93.502945 242.98952 
L 96.155325 245.27118 
L 98.807704 247.279429 
L 101.460084 249.037033 
L 104.112464 250.565771 
L 107.427939 252.186422 
L 110.743413 253.520301 
L 114.058888 254.603416 
L 117.374363 255.46936 
L 121.352933 256.265552 
L 125.331502 256.843059 
L 129.973167 257.2992 
L 135.941022 257.634711 
L 143.235066 257.804925 
L 157.16006 257.850008 
L 177.052909 257.750982 
L 184.346953 257.477287 
L 189.651713 257.063834 
L 194.293377 256.480063 
L 198.271947 255.761995 
L 202.250517 254.792946 
L 205.565992 253.755875 
L 208.881466 252.474952 
L 212.196941 250.914652 
L 214.849321 249.439845 
L 217.501701 247.74146 
L 220.154081 245.797969 
L 222.80646 243.58685 
L 225.45884 241.084594 
L 228.11122 238.266703 
L 230.7636 235.107687 
L 233.41598 231.581066 
L 236.068359 227.659372 
L 238.720739 223.314146 
L 241.373119 218.515939 
L 244.025499 213.234313 
L 246.677879 207.437838 
L 249.330258 201.094097 
L 251.982638 194.169681 
L 254.635018 186.630192 
L 257.287398 178.440243 
L 259.939778 169.563455 
L 262.592157 159.96246 
L 265.244537 149.598901 
L 267.896917 138.433431 
L 270.549297 126.425711 
L 273.201677 113.534416 
L 275.854056 99.717226 
L 278.506436 84.930837 
L 281.821911 65.017334 
L 285.137386 43.431477 
L 288.452861 20.082157 
L 291.10524 0.070239 
L 291.10524 0.070239 
" clip-path="url(#p251be64ad8)" style="fill: none; stroke: #1f6feb; stroke-width: 2.6; stroke-linecap: square"/>
   </g>
   <g id="PathCollection_1">
    <defs>
     <path id="m2ed5d7f3f3" d="M 0 3.24037 
C 0.859356 3.24037 1.683631 2.898944 2.291288 2.291288 
C 2.898944 1.683631 3.24037 0.859356 3.24037 0 
C 3.24037 -0.859356 2.898944 -1.683631 2.291288 -2.291288 
C 1.683631 -2.898944 0.859356 -3.24037 0 -3.24037 
C -0.859356 -3.24037 -1.683631 -2.898944 -2.291288 -2.291288 
C -2.898944 -1.683631 -3.24037 -0.859356 -3.24037 0 
C -3.24037 0.859356 -2.898944 1.683631 -2.291288 2.291288 
C -1.683631 2.898944 -0.859356 3.24037 0 3.24037 
z
" style="stroke: #0b8457"/>
    </defs>
    <g clip-path="url(#p251be64ad8)">
     <use xlink:href="#m2ed5d7f3f3" x="158.48625" y="257.850011" style="fill: #0b8457; stroke: #0b8457"/>
    </g>
   </g>
  </g>
  <g id="axes_2">
   <g id="patch_6">
    <path d="M 328.925 273.688 
L 604.7725 273.688 
L 604.7725 78.3528 
L 328.925 78.3528 
z
" style="fill: #ffffff"/>
   </g>
   <g id="line2d_9">
    <path d="M 328.925 176.0204 
L 604.7725 176.0204 
" clip-path="url(#pf65cfb79ce)" style="fill: none; stroke: #d0d7de; stroke-width: 0.9; stroke-linecap: square"/>
   </g>
   <g id="line2d_10">
    <path d="M 466.84875 273.688 
L 466.84875 78.3528 
" clip-path="url(#pf65cfb79ce)" style="fill: none; stroke: #d0d7de; stroke-width: 0.9; stroke-linecap: square"/>
   </g>
   <g id="matplotlib.axis_3">
    <g id="xtick_4">
     <g id="line2d_11">
      <g>
       <use xlink:href="#m1e1f27ca77" x="360.753558" y="273.688" style="stroke: #000000; stroke-width: 0.8"/>
      </g>
     </g>
     <g id="text_9">
      <!-- −1 -->
      <g transform="translate(353.382464 288.286438) scale(0.1 -0.1)">
       <use xlink:href="#DejaVuSans-2212"/>
       <use xlink:href="#DejaVuSans-31" transform="translate(83.789062 0)"/>
      </g>
     </g>
    </g>
    <g id="xtick_5">
     <g id="line2d_12">
      <g>
       <use xlink:href="#m1e1f27ca77" x="466.84875" y="273.688" style="stroke: #000000; stroke-width: 0.8"/>
      </g>
     </g>
     <g id="text_10">
      <!-- 0 -->
      <g transform="translate(463.6675 288.286438) scale(0.1 -0.1)">
       <use xlink:href="#DejaVuSans-30"/>
      </g>
     </g>
    </g>
    <g id="xtick_6">
     <g id="line2d_13">
      <g>
       <use xlink:href="#m1e1f27ca77" x="572.943942" y="273.688" style="stroke: #000000; stroke-width: 0.8"/>
      </g>
     </g>
     <g id="text_11">
      <!-- 1 -->
      <g transform="translate(569.762692 288.286438) scale(0.1 -0.1)">
       <use xlink:href="#DejaVuSans-31"/>
      </g>
     </g>
    </g>
    <g id="text_12">
     <!-- $x$ -->
     <g transform="translate(463.84875 301.964562) scale(0.1 -0.1)">
      <use xlink:href="#DejaVuSans-Oblique-78" transform="translate(0 0.3125)"/>
     </g>
    </g>
   </g>
   <g id="matplotlib.axis_4">
    <g id="ytick_3">
     <g id="line2d_14">
      <g>
       <use xlink:href="#m82a3640ab2" x="328.925" y="233.471929" style="stroke: #000000; stroke-width: 0.8"/>
      </g>
     </g>
     <g id="text_13">
      <!-- −1 -->
      <g transform="translate(307.182813 237.271148) scale(0.1 -0.1)">
       <use xlink:href="#DejaVuSans-2212"/>
       <use xlink:href="#DejaVuSans-31" transform="translate(83.789062 0)"/>
      </g>
     </g>
    </g>
    <g id="ytick_4">
     <g id="line2d_15">
      <g>
       <use xlink:href="#m82a3640ab2" x="328.925" y="176.0204" style="stroke: #000000; stroke-width: 0.8"/>
      </g>
     </g>
     <g id="text_14">
      <!-- 0 -->
      <g transform="translate(315.5625 179.819619) scale(0.1 -0.1)">
       <use xlink:href="#DejaVuSans-30"/>
      </g>
     </g>
    </g>
    <g id="ytick_5">
     <g id="line2d_16">
      <g>
       <use xlink:href="#m82a3640ab2" x="328.925" y="118.568871" style="stroke: #000000; stroke-width: 0.8"/>
      </g>
     </g>
     <g id="text_15">
      <!-- 1 -->
      <g transform="translate(315.5625 122.368089) scale(0.1 -0.1)">
       <use xlink:href="#DejaVuSans-31"/>
      </g>
     </g>
    </g>
   </g>
   <g id="patch_7">
    <path d="M 328.925 273.688 
L 328.925 78.3528 
" style="fill: none; stroke: #000000; stroke-width: 0.8; stroke-linejoin: miter; stroke-linecap: square"/>
   </g>
   <g id="patch_8">
    <path d="M 328.925 273.688 
L 604.7725 273.688 
" style="fill: none; stroke: #000000; stroke-width: 0.8; stroke-linejoin: miter; stroke-linecap: square"/>
   </g>
   <g id="patch_9">
    <path d="M 409.18916 115.581262 
Q 437.3283 145.076882 464.618516 173.682655 
" style="fill: none; stroke: #8250df; stroke-width: 1.1; stroke-linecap: round"/>
    <path d="M 463.23882 169.194176 
L 464.618516 173.682655 
L 460.199915 172.093324 
" style="fill: none; stroke: #8250df; stroke-width: 1.1; stroke-linecap: round"/>
   </g>
   <g id="text_16">
    <!-- inflection -->
    <g style="fill: #8250df" transform="translate(339.534519 98.193438) scale(0.105 -0.105)">
     <use xlink:href="#DejaVuSans-69"/>
     <use xlink:href="#DejaVuSans-6e" transform="translate(27.783203 0)"/>
     <use xlink:href="#DejaVuSans-66" transform="translate(91.162109 0)"/>
     <use xlink:href="#DejaVuSans-6c" transform="translate(126.367188 0)"/>
     <use xlink:href="#DejaVuSans-65" transform="translate(154.150391 0)"/>
     <use xlink:href="#DejaVuSans-63" transform="translate(215.673828 0)"/>
     <use xlink:href="#DejaVuSans-74" transform="translate(270.654297 0)"/>
     <use xlink:href="#DejaVuSans-69" transform="translate(309.863281 0)"/>
     <use xlink:href="#DejaVuSans-6f" transform="translate(337.646484 0)"/>
     <use xlink:href="#DejaVuSans-6e" transform="translate(398.828125 0)"/>
    </g>
    <!-- (left DOWN, right UP) -->
    <g style="fill: #8250df" transform="translate(339.534519 109.951141) scale(0.105 -0.105)">
     <defs>
      <path id="DejaVuSans-44" d="M 1259 4147 
L 1259 519 
L 2022 519 
Q 2988 519 3436 956 
Q 3884 1394 3884 2338 
Q 3884 3275 3436 3711 
Q 2988 4147 2022 4147 
L 1259 4147 
z
M 628 4666 
L 1925 4666 
Q 3281 4666 3915 4102 
Q 4550 3538 4550 2338 
Q 4550 1131 3912 565 
Q 3275 0 1925 0 
L 628 0 
L 628 4666 
z
" transform="scale(0.015625)"/>
      <path id="DejaVuSans-4f" d="M 2522 4238 
Q 1834 4238 1429 3725 
Q 1025 3213 1025 2328 
Q 1025 1447 1429 934 
Q 1834 422 2522 422 
Q 3209 422 3611 934 
Q 4013 1447 4013 2328 
Q 4013 3213 3611 3725 
Q 3209 4238 2522 4238 
z
M 2522 4750 
Q 3503 4750 4090 4092 
Q 4678 3434 4678 2328 
Q 4678 1225 4090 567 
Q 3503 -91 2522 -91 
Q 1538 -91 948 565 
Q 359 1222 359 2328 
Q 359 3434 948 4092 
Q 1538 4750 2522 4750 
z
" transform="scale(0.015625)"/>
      <path id="DejaVuSans-57" d="M 213 4666 
L 850 4666 
L 1831 722 
L 2809 4666 
L 3519 4666 
L 4500 722 
L 5478 4666 
L 6119 4666 
L 4947 0 
L 4153 0 
L 3169 4050 
L 2175 0 
L 1381 0 
L 213 4666 
z
" transform="scale(0.015625)"/>
      <path id="DejaVuSans-4e" d="M 628 4666 
L 1478 4666 
L 3547 763 
L 3547 4666 
L 4159 4666 
L 4159 0 
L 3309 0 
L 1241 3903 
L 1241 0 
L 628 0 
L 628 4666 
z
" transform="scale(0.015625)"/>
     </defs>
     <use xlink:href="#DejaVuSans-28"/>
     <use xlink:href="#DejaVuSans-6c" transform="translate(39.013672 0)"/>
     <use xlink:href="#DejaVuSans-65" transform="translate(66.796875 0)"/>
     <use xlink:href="#DejaVuSans-66" transform="translate(128.320312 0)"/>
     <use xlink:href="#DejaVuSans-74" transform="translate(161.775391 0)"/>
     <use xlink:href="#DejaVuSans-20" transform="translate(200.984375 0)"/>
     <use xlink:href="#DejaVuSans-44" transform="translate(232.771484 0)"/>
     <use xlink:href="#DejaVuSans-4f" transform="translate(309.773438 0)"/>
     <use xlink:href="#DejaVuSans-57" transform="translate(388.484375 0)"/>
     <use xlink:href="#DejaVuSans-4e" transform="translate(487.361328 0)"/>
     <use xlink:href="#DejaVuSans-2c" transform="translate(562.166016 0)"/>
     <use xlink:href="#DejaVuSans-20" transform="translate(593.953125 0)"/>
     <use xlink:href="#DejaVuSans-72" transform="translate(625.740234 0)"/>
     <use xlink:href="#DejaVuSans-69" transform="translate(666.853516 0)"/>
     <use xlink:href="#DejaVuSans-67" transform="translate(694.636719 0)"/>
     <use xlink:href="#DejaVuSans-68" transform="translate(758.113281 0)"/>
     <use xlink:href="#DejaVuSans-74" transform="translate(821.492188 0)"/>
     <use xlink:href="#DejaVuSans-20" transform="translate(860.701172 0)"/>
     <use xlink:href="#DejaVuSans-55" transform="translate(892.488281 0)"/>
     <use xlink:href="#DejaVuSans-50" transform="translate(965.681641 0)"/>
     <use xlink:href="#DejaVuSans-29" transform="translate(1025.984375 0)"/>
    </g>
   </g>
   <g id="text_17">
    <!-- $y=x^3$   (first non-zero term: odd) -->
    <g transform="translate(375.71375 59.7468) scale(0.11 -0.11)">
     <defs>
      <path id="DejaVuSans-33" d="M 2597 2516 
Q 3050 2419 3304 2112 
Q 3559 1806 3559 1356 
Q 3559 666 3084 287 
Q 2609 -91 1734 -91 
Q 1441 -91 1130 -33 
Q 819 25 488 141 
L 488 750 
Q 750 597 1062 519 
Q 1375 441 1716 441 
Q 2309 441 2620 675 
Q 2931 909 2931 1356 
Q 2931 1769 2642 2001 
Q 2353 2234 1838 2234 
L 1294 2234 
L 1294 2753 
L 1863 2753 
Q 2328 2753 2575 2939 
Q 2822 3125 2822 3475 
Q 2822 3834 2567 4026 
Q 2313 4219 1838 4219 
Q 1578 4219 1281 4162 
Q 984 4106 628 3988 
L 628 4550 
Q 988 4650 1302 4700 
Q 1616 4750 1894 4750 
Q 2613 4750 3031 4423 
Q 3450 4097 3450 3541 
Q 3450 3153 3228 2886 
Q 3006 2619 2597 2516 
z
" transform="scale(0.015625)"/>
     </defs>
     <use xlink:href="#DejaVuSans-Oblique-79" transform="translate(0 0.765625)"/>
     <use xlink:href="#DejaVuSans-3d" transform="translate(78.662109 0.765625)"/>
     <use xlink:href="#DejaVuSans-Oblique-78" transform="translate(181.933594 0.765625)"/>
     <use xlink:href="#DejaVuSans-33" transform="translate(245.579427 39.046875) scale(0.7)"/>
     <use xlink:href="#DejaVuSans-20" transform="translate(292.849935 0.765625)"/>
     <use xlink:href="#DejaVuSans-20" transform="translate(324.637044 0.765625)"/>
     <use xlink:href="#DejaVuSans-20" transform="translate(356.424154 0.765625)"/>
     <use xlink:href="#DejaVuSans-28" transform="translate(388.211263 0.765625)"/>
     <use xlink:href="#DejaVuSans-66" transform="translate(427.224935 0.765625)"/>
     <use xlink:href="#DejaVuSans-69" transform="translate(462.430013 0.765625)"/>
     <use xlink:href="#DejaVuSans-72" transform="translate(490.213216 0.765625)"/>
     <use xlink:href="#DejaVuSans-73" transform="translate(531.326497 0.765625)"/>
     <use xlink:href="#DejaVuSans-74" transform="translate(583.426107 0.765625)"/>
     <use xlink:href="#DejaVuSans-20" transform="translate(622.635091 0.765625)"/>
     <use xlink:href="#DejaVuSans-6e" transform="translate(654.422201 0.765625)"/>
     <use xlink:href="#DejaVuSans-6f" transform="translate(717.801107 0.765625)"/>
     <use xlink:href="#DejaVuSans-6e" transform="translate(778.982747 0.765625)"/>
     <use xlink:href="#DejaVuSans-2d" transform="translate(842.361654 0.765625)"/>
     <use xlink:href="#DejaVuSans-7a" transform="translate(878.445638 0.765625)"/>
     <use xlink:href="#DejaVuSans-65" transform="translate(930.935872 0.765625)"/>
     <use xlink:href="#DejaVuSans-72" transform="translate(992.45931 0.765625)"/>
     <use xlink:href="#DejaVuSans-6f" transform="translate(1033.572591 0.765625)"/>
     <use xlink:href="#DejaVuSans-20" transform="translate(1094.754232 0.765625)"/>
     <use xlink:href="#DejaVuSans-74" transform="translate(1126.541341 0.765625)"/>
     <use xlink:href="#DejaVuSans-65" transform="translate(1165.750326 0.765625)"/>
     <use xlink:href="#DejaVuSans-72" transform="translate(1227.273763 0.765625)"/>
     <use xlink:href="#DejaVuSans-6d" transform="translate(1268.387044 0.765625)"/>
     <use xlink:href="#DejaVuSans-3a" transform="translate(1364.049154 0.765625)"/>
     <use xlink:href="#DejaVuSans-20" transform="translate(1397.74056 0.765625)"/>
     <use xlink:href="#DejaVuSans-6f" transform="translate(1429.527669 0.765625)"/>
     <use xlink:href="#DejaVuSans-64" transform="translate(1490.70931 0.765625)"/>
     <use xlink:href="#DejaVuSans-64" transform="translate(1554.185872 0.765625)"/>
     <use xlink:href="#DejaVuSans-29" transform="translate(1617.662435 0.765625)"/>
    </g>
    <!-- $f''(0)=0$  and sign flips -->
    <g transform="translate(404.09375 72.3528) scale(0.11 -0.11)">
     <defs>
      <path id="DejaVuSans-70" d="M 1159 525 
L 1159 -1331 
L 581 -1331 
L 581 3500 
L 1159 3500 
L 1159 2969 
Q 1341 3281 1617 3432 
Q 1894 3584 2278 3584 
Q 2916 3584 3314 3078 
Q 3713 2572 3713 1747 
Q 3713 922 3314 415 
Q 2916 -91 2278 -91 
Q 1894 -91 1617 61 
Q 1341 213 1159 525 
z
M 3116 1747 
Q 3116 2381 2855 2742 
Q 2594 3103 2138 3103 
Q 1681 3103 1420 2742 
Q 1159 2381 1159 1747 
Q 1159 1113 1420 752 
Q 1681 391 2138 391 
Q 2594 391 2855 752 
Q 3116 1113 3116 1747 
z
" transform="scale(0.015625)"/>
     </defs>
     <use xlink:href="#DejaVuSans-Oblique-66" transform="translate(0 0.584375)"/>
     <use xlink:href="#Cmsy10-30" transform="translate(42.652786 38.865625) scale(0.7)"/>
     <use xlink:href="#Cmsy10-30" transform="translate(61.895951 38.865625) scale(0.7)"/>
     <use xlink:href="#DejaVuSans-28" transform="translate(83.87349 0.584375)"/>
     <use xlink:href="#DejaVuSans-30" transform="translate(122.887161 0.584375)"/>
     <use xlink:href="#DejaVuSans-29" transform="translate(186.510208 0.584375)"/>
     <use xlink:href="#DejaVuSans-3d" transform="translate(245.006302 0.584375)"/>
     <use xlink:href="#DejaVuSans-30" transform="translate(348.277786 0.584375)"/>
     <use xlink:href="#DejaVuSans-20" transform="translate(411.900833 0.584375)"/>
     <use xlink:href="#DejaVuSans-20" transform="translate(443.687943 0.584375)"/>
     <use xlink:href="#DejaVuSans-61" transform="translate(475.475052 0.584375)"/>
     <use xlink:href="#DejaVuSans-6e" transform="translate(536.754349 0.584375)"/>
     <use xlink:href="#DejaVuSans-64" transform="translate(600.133255 0.584375)"/>
     <use xlink:href="#DejaVuSans-20" transform="translate(663.609818 0.584375)"/>
     <use xlink:href="#DejaVuSans-73" transform="translate(695.396927 0.584375)"/>
     <use xlink:href="#DejaVuSans-69" transform="translate(747.496536 0.584375)"/>
     <use xlink:href="#DejaVuSans-67" transform="translate(775.27974 0.584375)"/>
     <use xlink:href="#DejaVuSans-6e" transform="translate(838.756302 0.584375)"/>
     <use xlink:href="#DejaVuSans-20" transform="translate(902.135208 0.584375)"/>
     <use xlink:href="#DejaVuSans-66" transform="translate(933.922318 0.584375)"/>
     <use xlink:href="#DejaVuSans-6c" transform="translate(969.127396 0.584375)"/>
     <use xlink:href="#DejaVuSans-69" transform="translate(996.910599 0.584375)"/>
     <use xlink:href="#DejaVuSans-70" transform="translate(1024.693802 0.584375)"/>
     <use xlink:href="#DejaVuSans-73" transform="translate(1088.170365 0.584375)"/>
    </g>
   </g>
   <g id="line2d_17">
    <path d="M 334.22976 288.230418 
L 338.208329 278.431454 
L 342.186899 269.220246 
L 346.165469 260.578616 
L 350.144038 252.488386 
L 354.122608 244.931378 
L 358.101178 237.889413 
L 362.079748 231.344315 
L 366.058317 225.277905 
L 370.036887 219.672005 
L 374.015457 214.508436 
L 377.994026 209.769022 
L 381.972596 205.435583 
L 385.951166 201.489942 
L 389.929736 197.913921 
L 393.908305 194.689342 
L 397.886875 191.798026 
L 401.865445 189.221796 
L 405.844014 186.942474 
L 409.822584 184.941882 
L 413.801154 183.201841 
L 417.779724 181.704174 
L 421.758293 180.430703 
L 426.399958 179.204093 
L 431.041623 178.22903 
L 435.683287 177.476648 
L 440.988047 176.852423 
L 446.955901 176.399109 
L 453.586851 176.13261 
L 462.207085 176.025211 
L 481.436839 175.871048 
L 488.067788 175.560788 
L 494.035643 175.053697 
L 499.340403 174.370225 
L 503.982067 173.557166 
L 508.623732 172.513178 
L 512.602302 171.41265 
L 516.580871 170.103075 
L 520.559441 168.566274 
L 524.538011 166.784071 
L 528.516581 164.738286 
L 532.49515 162.410741 
L 536.47372 159.78326 
L 540.45229 156.837663 
L 543.767764 154.126879 
L 547.083239 151.172038 
L 550.398714 147.962622 
L 553.714189 144.488108 
L 557.029663 140.73798 
L 560.345138 136.701715 
L 563.660613 132.368795 
L 567.639183 126.762895 
L 571.617752 120.696485 
L 575.596322 114.151387 
L 579.574892 107.109422 
L 583.553462 99.552414 
L 587.532031 91.462184 
L 591.510601 82.820554 
L 595.489171 73.609346 
L 599.46774 63.810382 
L 599.46774 63.810382 
" clip-path="url(#pf65cfb79ce)" style="fill: none; stroke: #d1242f; stroke-width: 2.6; stroke-linecap: square"/>
   </g>
   <g id="PathCollection_2">
    <defs>
     <path id="m39bfc88fa4" d="M 0 3.24037 
C 0.859356 3.24037 1.683631 2.898944 2.291288 2.291288 
C 2.898944 1.683631 3.24037 0.859356 3.24037 0 
C 3.24037 -0.859356 2.898944 -1.683631 2.291288 -2.291288 
C 1.683631 -2.898944 0.859356 -3.24037 0 -3.24037 
C -0.859356 -3.24037 -1.683631 -2.898944 -2.291288 -2.291288 
C -2.898944 -1.683631 -3.24037 -0.859356 -3.24037 0 
C -3.24037 0.859356 -2.898944 1.683631 -2.291288 2.291288 
C -1.683631 2.898944 -0.859356 3.24037 0 3.24037 
z
" style="stroke: #8250df"/>
    </defs>
    <g clip-path="url(#pf65cfb79ce)">
     <use xlink:href="#m39bfc88fa4" x="466.84875" y="176.0204" style="fill: #8250df; stroke: #8250df"/>
    </g>
   </g>
  </g>
  <g id="text_18">
   <!-- First non-vanishing term's parity decides the local shape -->
   <g transform="translate(129.16293 16.698047) scale(0.125 -0.125)">
    <defs>
     <path id="DejaVuSans-46" d="M 628 4666 
L 3309 4666 
L 3309 4134 
L 1259 4134 
L 1259 2759 
L 3109 2759 
L 3109 2228 
L 1259 2228 
L 1259 0 
L 628 0 
L 628 4666 
z
" transform="scale(0.015625)"/>
     <path id="DejaVuSans-27" d="M 1147 4666 
L 1147 2931 
L 616 2931 
L 616 4666 
L 1147 4666 
z
" transform="scale(0.015625)"/>
    </defs>
    <use xlink:href="#DejaVuSans-46"/>
    <use xlink:href="#DejaVuSans-69" transform="translate(50.269531 0)"/>
    <use xlink:href="#DejaVuSans-72" transform="translate(78.052734 0)"/>
    <use xlink:href="#DejaVuSans-73" transform="translate(119.166016 0)"/>
    <use xlink:href="#DejaVuSans-74" transform="translate(171.265625 0)"/>
    <use xlink:href="#DejaVuSans-20" transform="translate(210.474609 0)"/>
    <use xlink:href="#DejaVuSans-6e" transform="translate(242.261719 0)"/>
    <use xlink:href="#DejaVuSans-6f" transform="translate(305.640625 0)"/>
    <use xlink:href="#DejaVuSans-6e" transform="translate(366.822266 0)"/>
    <use xlink:href="#DejaVuSans-2d" transform="translate(430.201172 0)"/>
    <use xlink:href="#DejaVuSans-76" transform="translate(463.660156 0)"/>
    <use xlink:href="#DejaVuSans-61" transform="translate(522.839844 0)"/>
    <use xlink:href="#DejaVuSans-6e" transform="translate(584.119141 0)"/>
    <use xlink:href="#DejaVuSans-69" transform="translate(647.498047 0)"/>
    <use xlink:href="#DejaVuSans-73" transform="translate(675.28125 0)"/>
    <use xlink:href="#DejaVuSans-68" transform="translate(727.380859 0)"/>
    <use xlink:href="#DejaVuSans-69" transform="translate(790.759766 0)"/>
    <use xlink:href="#DejaVuSans-6e" transform="translate(818.542969 0)"/>
    <use xlink:href="#DejaVuSans-67" transform="translate(881.921875 0)"/>
    <use xlink:href="#DejaVuSans-20" transform="translate(945.398438 0)"/>
    <use xlink:href="#DejaVuSans-74" transform="translate(977.185547 0)"/>
    <use xlink:href="#DejaVuSans-65" transform="translate(1016.394531 0)"/>
    <use xlink:href="#DejaVuSans-72" transform="translate(1077.917969 0)"/>
    <use xlink:href="#DejaVuSans-6d" transform="translate(1117.28125 0)"/>
    <use xlink:href="#DejaVuSans-27" transform="translate(1214.693359 0)"/>
    <use xlink:href="#DejaVuSans-73" transform="translate(1242.183594 0)"/>
    <use xlink:href="#DejaVuSans-20" transform="translate(1294.283203 0)"/>
    <use xlink:href="#DejaVuSans-70" transform="translate(1326.070312 0)"/>
    <use xlink:href="#DejaVuSans-61" transform="translate(1389.546875 0)"/>
    <use xlink:href="#DejaVuSans-72" transform="translate(1450.826172 0)"/>
    <use xlink:href="#DejaVuSans-69" transform="translate(1491.939453 0)"/>
    <use xlink:href="#DejaVuSans-74" transform="translate(1519.722656 0)"/>
    <use xlink:href="#DejaVuSans-79" transform="translate(1558.931641 0)"/>
    <use xlink:href="#DejaVuSans-20" transform="translate(1618.111328 0)"/>
    <use xlink:href="#DejaVuSans-64" transform="translate(1649.898438 0)"/>
    <use xlink:href="#DejaVuSans-65" transform="translate(1713.375 0)"/>
    <use xlink:href="#DejaVuSans-63" transform="translate(1774.898438 0)"/>
    <use xlink:href="#DejaVuSans-69" transform="translate(1829.878906 0)"/>
    <use xlink:href="#DejaVuSans-64" transform="translate(1857.662109 0)"/>
    <use xlink:href="#DejaVuSans-65" transform="translate(1921.138672 0)"/>
    <use xlink:href="#DejaVuSans-73" transform="translate(1982.662109 0)"/>
    <use xlink:href="#DejaVuSans-20" transform="translate(2034.761719 0)"/>
    <use xlink:href="#DejaVuSans-74" transform="translate(2066.548828 0)"/>
    <use xlink:href="#DejaVuSans-68" transform="translate(2105.757812 0)"/>
    <use xlink:href="#DejaVuSans-65" transform="translate(2169.136719 0)"/>
    <use xlink:href="#DejaVuSans-20" transform="translate(2230.660156 0)"/>
    <use xlink:href="#DejaVuSans-6c" transform="translate(2262.447266 0)"/>
    <use xlink:href="#DejaVuSans-6f" transform="translate(2290.230469 0)"/>
    <use xlink:href="#DejaVuSans-63" transform="translate(2351.412109 0)"/>
    <use xlink:href="#DejaVuSans-61" transform="translate(2406.392578 0)"/>
    <use xlink:href="#DejaVuSans-6c" transform="translate(2467.671875 0)"/>
    <use xlink:href="#DejaVuSans-20" transform="translate(2495.455078 0)"/>
    <use xlink:href="#DejaVuSans-73" transform="translate(2527.242188 0)"/>
    <use xlink:href="#DejaVuSans-68" transform="translate(2579.341797 0)"/>
    <use xlink:href="#DejaVuSans-61" transform="translate(2642.720703 0)"/>
    <use xlink:href="#DejaVuSans-70" transform="translate(2704 0)"/>
    <use xlink:href="#DejaVuSans-65" transform="translate(2767.476562 0)"/>
   </g>
  </g>
 </g>
 <defs>
  <clipPath id="p251be64ad8">
   <rect x="20.5625" y="78.3528" width="275.8475" height="195.3352"/>
  </clipPath>
  <clipPath id="pf65cfb79ce">
   <rect x="328.925" y="78.3528" width="275.8475" height="195.3352"/>
  </clipPath>
 </defs>
</svg>
